G04 #@! TF.GenerationSoftware,KiCad,Pcbnew,(5.1.2-1)-1*
G04 #@! TF.CreationDate,2019-06-08T01:43:03+01:00*
G04 #@! TF.ProjectId,ATF Programming Board,41544620-5072-46f6-9772-616d6d696e67,rev?*
G04 #@! TF.SameCoordinates,Original*
G04 #@! TF.FileFunction,Legend,Top*
G04 #@! TF.FilePolarity,Positive*
%FSLAX46Y46*%
G04 Gerber Fmt 4.6, Leading zero omitted, Abs format (unit mm)*
G04 Created by KiCad (PCBNEW (5.1.2-1)-1) date 2019-06-08 01:43:03*
%MOMM*%
%LPD*%
G04 APERTURE LIST*
%ADD10C,0.125000*%
%ADD11C,0.120000*%
%ADD12C,0.150000*%
G04 APERTURE END LIST*
D10*
X152454605Y-105136904D02*
X152554605Y-104336904D01*
X152859367Y-104336904D01*
X152930796Y-104375000D01*
X152964129Y-104413095D01*
X152992700Y-104489285D01*
X152978415Y-104603571D01*
X152930796Y-104679761D01*
X152887938Y-104717857D01*
X152806986Y-104755952D01*
X152502224Y-104755952D01*
X153664129Y-104603571D02*
X153597462Y-105136904D01*
X153321272Y-104603571D02*
X153268891Y-105022619D01*
X153297462Y-105098809D01*
X153368891Y-105136904D01*
X153483177Y-105136904D01*
X153564129Y-105098809D01*
X153606986Y-105060714D01*
X153978415Y-105136904D02*
X154078415Y-104336904D01*
X154040319Y-104641666D02*
X154121272Y-104603571D01*
X154273653Y-104603571D01*
X154345081Y-104641666D01*
X154378415Y-104679761D01*
X154406986Y-104755952D01*
X154378415Y-104984523D01*
X154330796Y-105060714D01*
X154287938Y-105098809D01*
X154206986Y-105136904D01*
X154054605Y-105136904D01*
X153983177Y-105098809D01*
X154816510Y-105136904D02*
X154745081Y-105098809D01*
X154716510Y-105022619D01*
X154802224Y-104336904D01*
X155121272Y-105136904D02*
X155187938Y-104603571D01*
X155221272Y-104336904D02*
X155178415Y-104375000D01*
X155211748Y-104413095D01*
X155254605Y-104375000D01*
X155221272Y-104336904D01*
X155211748Y-104413095D01*
X155468891Y-105098809D02*
X155540319Y-105136904D01*
X155692700Y-105136904D01*
X155773653Y-105098809D01*
X155821272Y-105022619D01*
X155826034Y-104984523D01*
X155797462Y-104908333D01*
X155726034Y-104870238D01*
X155611748Y-104870238D01*
X155540319Y-104832142D01*
X155511748Y-104755952D01*
X155516510Y-104717857D01*
X155564129Y-104641666D01*
X155645081Y-104603571D01*
X155759367Y-104603571D01*
X155830796Y-104641666D01*
X156149843Y-105136904D02*
X156249843Y-104336904D01*
X156492700Y-105136904D02*
X156545081Y-104717857D01*
X156516510Y-104641666D01*
X156445081Y-104603571D01*
X156330796Y-104603571D01*
X156249843Y-104641666D01*
X156206986Y-104679761D01*
X157183177Y-105098809D02*
X157102224Y-105136904D01*
X156949843Y-105136904D01*
X156878415Y-105098809D01*
X156849843Y-105022619D01*
X156887938Y-104717857D01*
X156935558Y-104641666D01*
X157016510Y-104603571D01*
X157168891Y-104603571D01*
X157240319Y-104641666D01*
X157268891Y-104717857D01*
X157259367Y-104794047D01*
X156868891Y-104870238D01*
X157902224Y-105136904D02*
X158002224Y-104336904D01*
X157906986Y-105098809D02*
X157826034Y-105136904D01*
X157673653Y-105136904D01*
X157602224Y-105098809D01*
X157568891Y-105060714D01*
X157540319Y-104984523D01*
X157568891Y-104755952D01*
X157616510Y-104679761D01*
X157659367Y-104641666D01*
X157740319Y-104603571D01*
X157892700Y-104603571D01*
X157964129Y-104641666D01*
X159302224Y-104603571D02*
X159235558Y-105136904D01*
X158959367Y-104603571D02*
X158906986Y-105022619D01*
X158935558Y-105098809D01*
X159006986Y-105136904D01*
X159121272Y-105136904D01*
X159202224Y-105098809D01*
X159245081Y-105060714D01*
X159683177Y-104603571D02*
X159616510Y-105136904D01*
X159673653Y-104679761D02*
X159716510Y-104641666D01*
X159797462Y-104603571D01*
X159911748Y-104603571D01*
X159983177Y-104641666D01*
X160011748Y-104717857D01*
X159959367Y-105136904D01*
X160683177Y-105136904D02*
X160783177Y-104336904D01*
X160687938Y-105098809D02*
X160606986Y-105136904D01*
X160454605Y-105136904D01*
X160383177Y-105098809D01*
X160349843Y-105060714D01*
X160321272Y-104984523D01*
X160349843Y-104755952D01*
X160397462Y-104679761D01*
X160440319Y-104641666D01*
X160521272Y-104603571D01*
X160673653Y-104603571D01*
X160745081Y-104641666D01*
X161373653Y-105098809D02*
X161292700Y-105136904D01*
X161140319Y-105136904D01*
X161068891Y-105098809D01*
X161040319Y-105022619D01*
X161078415Y-104717857D01*
X161126034Y-104641666D01*
X161206986Y-104603571D01*
X161359367Y-104603571D01*
X161430796Y-104641666D01*
X161459367Y-104717857D01*
X161449843Y-104794047D01*
X161059367Y-104870238D01*
X161749843Y-105136904D02*
X161816510Y-104603571D01*
X161797462Y-104755952D02*
X161845081Y-104679761D01*
X161887938Y-104641666D01*
X161968891Y-104603571D01*
X162045081Y-104603571D01*
X162806986Y-104603571D02*
X163111748Y-104603571D01*
X162954605Y-104336904D02*
X162868891Y-105022619D01*
X162897462Y-105098809D01*
X162968891Y-105136904D01*
X163045081Y-105136904D01*
X163311748Y-105136904D02*
X163411748Y-104336904D01*
X163654605Y-105136904D02*
X163706986Y-104717857D01*
X163678415Y-104641666D01*
X163606986Y-104603571D01*
X163492700Y-104603571D01*
X163411748Y-104641666D01*
X163368891Y-104679761D01*
X164345081Y-105098809D02*
X164264129Y-105136904D01*
X164111748Y-105136904D01*
X164040319Y-105098809D01*
X164011748Y-105022619D01*
X164049843Y-104717857D01*
X164097462Y-104641666D01*
X164178415Y-104603571D01*
X164330796Y-104603571D01*
X164402224Y-104641666D01*
X164430796Y-104717857D01*
X164421272Y-104794047D01*
X164030796Y-104870238D01*
X165845081Y-104375000D02*
X165773653Y-104336904D01*
X165659367Y-104336904D01*
X165540319Y-104375000D01*
X165454605Y-104451190D01*
X165406986Y-104527380D01*
X165349843Y-104679761D01*
X165335558Y-104794047D01*
X165354605Y-104946428D01*
X165383177Y-105022619D01*
X165449843Y-105098809D01*
X165559367Y-105136904D01*
X165635558Y-105136904D01*
X165754605Y-105098809D01*
X165797462Y-105060714D01*
X165830796Y-104794047D01*
X165678415Y-104794047D01*
X166130796Y-105136904D02*
X166230796Y-104336904D01*
X166587938Y-105136904D01*
X166687938Y-104336904D01*
X167068891Y-104336904D02*
X166987938Y-104984523D01*
X167016510Y-105060714D01*
X167049843Y-105098809D01*
X167121272Y-105136904D01*
X167273653Y-105136904D01*
X167354605Y-105098809D01*
X167397462Y-105060714D01*
X167445081Y-104984523D01*
X167526034Y-104336904D01*
X168416510Y-105136904D02*
X168516510Y-104336904D01*
X168821272Y-104336904D01*
X168892700Y-104375000D01*
X168926034Y-104413095D01*
X168954605Y-104489285D01*
X168940319Y-104603571D01*
X168892700Y-104679761D01*
X168849843Y-104717857D01*
X168768891Y-104755952D01*
X168464129Y-104755952D01*
X169626034Y-104603571D02*
X169559367Y-105136904D01*
X169283177Y-104603571D02*
X169230796Y-105022619D01*
X169259367Y-105098809D01*
X169330796Y-105136904D01*
X169445081Y-105136904D01*
X169526034Y-105098809D01*
X169568891Y-105060714D01*
X169940319Y-105136904D02*
X170040319Y-104336904D01*
X170002224Y-104641666D02*
X170083177Y-104603571D01*
X170235558Y-104603571D01*
X170306986Y-104641666D01*
X170340319Y-104679761D01*
X170368891Y-104755952D01*
X170340319Y-104984523D01*
X170292700Y-105060714D01*
X170249843Y-105098809D01*
X170168891Y-105136904D01*
X170016510Y-105136904D01*
X169945081Y-105098809D01*
X170778415Y-105136904D02*
X170706986Y-105098809D01*
X170678415Y-105022619D01*
X170764129Y-104336904D01*
X171083177Y-105136904D02*
X171149843Y-104603571D01*
X171183177Y-104336904D02*
X171140319Y-104375000D01*
X171173653Y-104413095D01*
X171216510Y-104375000D01*
X171183177Y-104336904D01*
X171173653Y-104413095D01*
X171811748Y-105098809D02*
X171730796Y-105136904D01*
X171578415Y-105136904D01*
X171506986Y-105098809D01*
X171473653Y-105060714D01*
X171445081Y-104984523D01*
X171473653Y-104755952D01*
X171521272Y-104679761D01*
X171564129Y-104641666D01*
X171645081Y-104603571D01*
X171797462Y-104603571D01*
X171868891Y-104641666D01*
X173140319Y-105136904D02*
X172759367Y-105136904D01*
X172859367Y-104336904D01*
X173406986Y-105136904D02*
X173473653Y-104603571D01*
X173506986Y-104336904D02*
X173464129Y-104375000D01*
X173497462Y-104413095D01*
X173540319Y-104375000D01*
X173506986Y-104336904D01*
X173497462Y-104413095D01*
X174135558Y-105098809D02*
X174054605Y-105136904D01*
X173902224Y-105136904D01*
X173830796Y-105098809D01*
X173797462Y-105060714D01*
X173768891Y-104984523D01*
X173797462Y-104755952D01*
X173845081Y-104679761D01*
X173887938Y-104641666D01*
X173968891Y-104603571D01*
X174121272Y-104603571D01*
X174192700Y-104641666D01*
X174783177Y-105098809D02*
X174702224Y-105136904D01*
X174549843Y-105136904D01*
X174478415Y-105098809D01*
X174449843Y-105022619D01*
X174487938Y-104717857D01*
X174535558Y-104641666D01*
X174616510Y-104603571D01*
X174768891Y-104603571D01*
X174840319Y-104641666D01*
X174868891Y-104717857D01*
X174859367Y-104794047D01*
X174468891Y-104870238D01*
X175226034Y-104603571D02*
X175159367Y-105136904D01*
X175216510Y-104679761D02*
X175259367Y-104641666D01*
X175340319Y-104603571D01*
X175454605Y-104603571D01*
X175526034Y-104641666D01*
X175554605Y-104717857D01*
X175502224Y-105136904D01*
X176230796Y-105098809D02*
X176149843Y-105136904D01*
X175997462Y-105136904D01*
X175926034Y-105098809D01*
X175892700Y-105060714D01*
X175864129Y-104984523D01*
X175892700Y-104755952D01*
X175940319Y-104679761D01*
X175983177Y-104641666D01*
X176064129Y-104603571D01*
X176216510Y-104603571D01*
X176287938Y-104641666D01*
X176878415Y-105098809D02*
X176797462Y-105136904D01*
X176645081Y-105136904D01*
X176573653Y-105098809D01*
X176545081Y-105022619D01*
X176583177Y-104717857D01*
X176630796Y-104641666D01*
X176711748Y-104603571D01*
X176864129Y-104603571D01*
X176935558Y-104641666D01*
X176964129Y-104717857D01*
X176954605Y-104794047D01*
X176564129Y-104870238D01*
X177854605Y-104603571D02*
X177978415Y-105136904D01*
X178235558Y-104603571D01*
X178526034Y-104413095D02*
X178568891Y-104375000D01*
X178649843Y-104336904D01*
X178840319Y-104336904D01*
X178911748Y-104375000D01*
X178945081Y-104413095D01*
X178973653Y-104489285D01*
X178964129Y-104565476D01*
X178911748Y-104679761D01*
X178397462Y-105136904D01*
X178892700Y-105136904D01*
X158352938Y-107346666D02*
X158319605Y-107308571D01*
X158257700Y-107194285D01*
X158229129Y-107118095D01*
X158205319Y-107003809D01*
X158191034Y-106813333D01*
X158210081Y-106660952D01*
X158271986Y-106470476D01*
X158324367Y-106356190D01*
X158371986Y-106280000D01*
X158462462Y-106165714D01*
X158505319Y-106127619D01*
X159162462Y-106965714D02*
X159119605Y-107003809D01*
X159000558Y-107041904D01*
X158924367Y-107041904D01*
X158814843Y-107003809D01*
X158748177Y-106927619D01*
X158719605Y-106851428D01*
X158700558Y-106699047D01*
X158714843Y-106584761D01*
X158771986Y-106432380D01*
X158819605Y-106356190D01*
X158905319Y-106280000D01*
X159024367Y-106241904D01*
X159100558Y-106241904D01*
X159210081Y-106280000D01*
X159243415Y-106318095D01*
X159381510Y-107346666D02*
X159424367Y-107308571D01*
X159514843Y-107194285D01*
X159562462Y-107118095D01*
X159614843Y-107003809D01*
X159676748Y-106813333D01*
X159695796Y-106660952D01*
X159681510Y-106470476D01*
X159657700Y-106356190D01*
X159629129Y-106280000D01*
X159567224Y-106165714D01*
X159533891Y-106127619D01*
X160691034Y-106318095D02*
X160733891Y-106280000D01*
X160814843Y-106241904D01*
X161005319Y-106241904D01*
X161076748Y-106280000D01*
X161110081Y-106318095D01*
X161138653Y-106394285D01*
X161129129Y-106470476D01*
X161076748Y-106584761D01*
X160562462Y-107041904D01*
X161057700Y-107041904D01*
X161652938Y-106241904D02*
X161729129Y-106241904D01*
X161800558Y-106280000D01*
X161833891Y-106318095D01*
X161862462Y-106394285D01*
X161881510Y-106546666D01*
X161857700Y-106737142D01*
X161800558Y-106889523D01*
X161752938Y-106965714D01*
X161710081Y-107003809D01*
X161629129Y-107041904D01*
X161552938Y-107041904D01*
X161481510Y-107003809D01*
X161448177Y-106965714D01*
X161419605Y-106889523D01*
X161400558Y-106737142D01*
X161424367Y-106546666D01*
X161481510Y-106394285D01*
X161529129Y-106318095D01*
X161571986Y-106280000D01*
X161652938Y-106241904D01*
X162581510Y-107041904D02*
X162124367Y-107041904D01*
X162352938Y-107041904D02*
X162452938Y-106241904D01*
X162362462Y-106356190D01*
X162276748Y-106432380D01*
X162195796Y-106470476D01*
X162962462Y-107041904D02*
X163114843Y-107041904D01*
X163195796Y-107003809D01*
X163238653Y-106965714D01*
X163329129Y-106851428D01*
X163386272Y-106699047D01*
X163424367Y-106394285D01*
X163395796Y-106318095D01*
X163362462Y-106280000D01*
X163291034Y-106241904D01*
X163138653Y-106241904D01*
X163057700Y-106280000D01*
X163014843Y-106318095D01*
X162967224Y-106394285D01*
X162943415Y-106584761D01*
X162971986Y-106660952D01*
X163005319Y-106699047D01*
X163076748Y-106737142D01*
X163229129Y-106737142D01*
X163310081Y-106699047D01*
X163352938Y-106660952D01*
X163400558Y-106584761D01*
X164295796Y-107041904D02*
X164395796Y-106241904D01*
X164752938Y-107041904D02*
X164467224Y-106584761D01*
X164852938Y-106241904D02*
X164338653Y-106699047D01*
X165438653Y-107041904D02*
X165491034Y-106622857D01*
X165462462Y-106546666D01*
X165391034Y-106508571D01*
X165238653Y-106508571D01*
X165157700Y-106546666D01*
X165443415Y-107003809D02*
X165362462Y-107041904D01*
X165171986Y-107041904D01*
X165100558Y-107003809D01*
X165071986Y-106927619D01*
X165081510Y-106851428D01*
X165129129Y-106775238D01*
X165210081Y-106737142D01*
X165400558Y-106737142D01*
X165481510Y-106699047D01*
X165819605Y-107041904D02*
X165886272Y-106508571D01*
X165919605Y-106241904D02*
X165876748Y-106280000D01*
X165910081Y-106318095D01*
X165952938Y-106280000D01*
X165919605Y-106241904D01*
X165910081Y-106318095D01*
X167267224Y-107041904D02*
X167048177Y-106660952D01*
X166810081Y-107041904D02*
X166910081Y-106241904D01*
X167214843Y-106241904D01*
X167286272Y-106280000D01*
X167319605Y-106318095D01*
X167348177Y-106394285D01*
X167333891Y-106508571D01*
X167286272Y-106584761D01*
X167243415Y-106622857D01*
X167162462Y-106660952D01*
X166857700Y-106660952D01*
X167724367Y-107041904D02*
X167652938Y-107003809D01*
X167619605Y-106965714D01*
X167591034Y-106889523D01*
X167619605Y-106660952D01*
X167667224Y-106584761D01*
X167710081Y-106546666D01*
X167791034Y-106508571D01*
X167905319Y-106508571D01*
X167976748Y-106546666D01*
X168010081Y-106584761D01*
X168038653Y-106660952D01*
X168010081Y-106889523D01*
X167962462Y-106965714D01*
X167919605Y-107003809D01*
X167838653Y-107041904D01*
X167724367Y-107041904D01*
X168333891Y-107041904D02*
X168433891Y-106241904D01*
X168395796Y-106546666D02*
X168476748Y-106508571D01*
X168629129Y-106508571D01*
X168700558Y-106546666D01*
X168733891Y-106584761D01*
X168762462Y-106660952D01*
X168733891Y-106889523D01*
X168686272Y-106965714D01*
X168643415Y-107003809D01*
X168562462Y-107041904D01*
X168410081Y-107041904D01*
X168338653Y-107003809D01*
X169057700Y-107041904D02*
X169124367Y-106508571D01*
X169157700Y-106241904D02*
X169114843Y-106280000D01*
X169148177Y-106318095D01*
X169191034Y-106280000D01*
X169157700Y-106241904D01*
X169148177Y-106318095D01*
X169505319Y-106508571D02*
X169438653Y-107041904D01*
X169495796Y-106584761D02*
X169538653Y-106546666D01*
X169619605Y-106508571D01*
X169733891Y-106508571D01*
X169805319Y-106546666D01*
X169833891Y-106622857D01*
X169781510Y-107041904D01*
X170129129Y-107003809D02*
X170200558Y-107041904D01*
X170352938Y-107041904D01*
X170433891Y-107003809D01*
X170481510Y-106927619D01*
X170486272Y-106889523D01*
X170457700Y-106813333D01*
X170386272Y-106775238D01*
X170271986Y-106775238D01*
X170200558Y-106737142D01*
X170171986Y-106660952D01*
X170176748Y-106622857D01*
X170224367Y-106546666D01*
X170305319Y-106508571D01*
X170419605Y-106508571D01*
X170491034Y-106546666D01*
X170924367Y-107041904D02*
X170852938Y-107003809D01*
X170819605Y-106965714D01*
X170791034Y-106889523D01*
X170819605Y-106660952D01*
X170867224Y-106584761D01*
X170910081Y-106546666D01*
X170991034Y-106508571D01*
X171105319Y-106508571D01*
X171176748Y-106546666D01*
X171210081Y-106584761D01*
X171238653Y-106660952D01*
X171210081Y-106889523D01*
X171162462Y-106965714D01*
X171119605Y-107003809D01*
X171038653Y-107041904D01*
X170924367Y-107041904D01*
X171600558Y-106508571D02*
X171533891Y-107041904D01*
X171591034Y-106584761D02*
X171633891Y-106546666D01*
X171714843Y-106508571D01*
X171829129Y-106508571D01*
X171900558Y-106546666D01*
X171929129Y-106622857D01*
X171876748Y-107041904D01*
X157359367Y-103003333D02*
X157740319Y-103003333D01*
X157254605Y-103231904D02*
X157621272Y-102431904D01*
X157787938Y-103231904D01*
X158040319Y-102431904D02*
X158497462Y-102431904D01*
X158168891Y-103231904D02*
X158268891Y-102431904D01*
X158983177Y-102812857D02*
X158716510Y-102812857D01*
X158664129Y-103231904D02*
X158764129Y-102431904D01*
X159145081Y-102431904D01*
X159768891Y-103231904D02*
X159311748Y-103231904D01*
X159540319Y-103231904D02*
X159640319Y-102431904D01*
X159549843Y-102546190D01*
X159464129Y-102622380D01*
X159383177Y-102660476D01*
X160592700Y-102431904D02*
X160211748Y-102431904D01*
X160126034Y-102812857D01*
X160168891Y-102774761D01*
X160249843Y-102736666D01*
X160440319Y-102736666D01*
X160511748Y-102774761D01*
X160545081Y-102812857D01*
X160573653Y-102889047D01*
X160549843Y-103079523D01*
X160502224Y-103155714D01*
X160459367Y-103193809D01*
X160378415Y-103231904D01*
X160187938Y-103231904D01*
X160116510Y-103193809D01*
X160083177Y-103155714D01*
X160797462Y-103231904D02*
X161283177Y-102698571D01*
X160864129Y-102698571D02*
X161216510Y-103231904D01*
X161445081Y-103231904D02*
X161930796Y-102698571D01*
X161511748Y-102698571D02*
X161864129Y-103231904D01*
X162745081Y-103193809D02*
X162854605Y-103231904D01*
X163045081Y-103231904D01*
X163126034Y-103193809D01*
X163168891Y-103155714D01*
X163216510Y-103079523D01*
X163226034Y-103003333D01*
X163197462Y-102927142D01*
X163164129Y-102889047D01*
X163092700Y-102850952D01*
X162945081Y-102812857D01*
X162873653Y-102774761D01*
X162840319Y-102736666D01*
X162811748Y-102660476D01*
X162821272Y-102584285D01*
X162868891Y-102508095D01*
X162911748Y-102470000D01*
X162992700Y-102431904D01*
X163183177Y-102431904D01*
X163292700Y-102470000D01*
X163849843Y-103193809D02*
X163768891Y-103231904D01*
X163616510Y-103231904D01*
X163545081Y-103193809D01*
X163516510Y-103117619D01*
X163554605Y-102812857D01*
X163602224Y-102736666D01*
X163683177Y-102698571D01*
X163835558Y-102698571D01*
X163906986Y-102736666D01*
X163935558Y-102812857D01*
X163926034Y-102889047D01*
X163535558Y-102965238D01*
X164226034Y-103231904D02*
X164292700Y-102698571D01*
X164273653Y-102850952D02*
X164321272Y-102774761D01*
X164364129Y-102736666D01*
X164445081Y-102698571D01*
X164521272Y-102698571D01*
X164721272Y-103231904D02*
X164787938Y-102698571D01*
X164821272Y-102431904D02*
X164778415Y-102470000D01*
X164811748Y-102508095D01*
X164854605Y-102470000D01*
X164821272Y-102431904D01*
X164811748Y-102508095D01*
X165411748Y-103193809D02*
X165330796Y-103231904D01*
X165178415Y-103231904D01*
X165106986Y-103193809D01*
X165078415Y-103117619D01*
X165116510Y-102812857D01*
X165164129Y-102736666D01*
X165245081Y-102698571D01*
X165397462Y-102698571D01*
X165468891Y-102736666D01*
X165497462Y-102812857D01*
X165487938Y-102889047D01*
X165097462Y-102965238D01*
X165754605Y-103193809D02*
X165826034Y-103231904D01*
X165978415Y-103231904D01*
X166059367Y-103193809D01*
X166106986Y-103117619D01*
X166111748Y-103079523D01*
X166083177Y-103003333D01*
X166011748Y-102965238D01*
X165897462Y-102965238D01*
X165826034Y-102927142D01*
X165797462Y-102850952D01*
X165802224Y-102812857D01*
X165849843Y-102736666D01*
X165930796Y-102698571D01*
X166045081Y-102698571D01*
X166116510Y-102736666D01*
X167045081Y-103231904D02*
X167145081Y-102431904D01*
X167449843Y-102431904D01*
X167521272Y-102470000D01*
X167554605Y-102508095D01*
X167583177Y-102584285D01*
X167568891Y-102698571D01*
X167521272Y-102774761D01*
X167478415Y-102812857D01*
X167397462Y-102850952D01*
X167092700Y-102850952D01*
X167845081Y-103231904D02*
X167911748Y-102698571D01*
X167892700Y-102850952D02*
X167940319Y-102774761D01*
X167983177Y-102736666D01*
X168064129Y-102698571D01*
X168140319Y-102698571D01*
X168454605Y-103231904D02*
X168383177Y-103193809D01*
X168349843Y-103155714D01*
X168321272Y-103079523D01*
X168349843Y-102850952D01*
X168397462Y-102774761D01*
X168440319Y-102736666D01*
X168521272Y-102698571D01*
X168635558Y-102698571D01*
X168706986Y-102736666D01*
X168740319Y-102774761D01*
X168768891Y-102850952D01*
X168740319Y-103079523D01*
X168692700Y-103155714D01*
X168649843Y-103193809D01*
X168568891Y-103231904D01*
X168454605Y-103231904D01*
X169473653Y-102698571D02*
X169392700Y-103346190D01*
X169345081Y-103422380D01*
X169302224Y-103460476D01*
X169221272Y-103498571D01*
X169106986Y-103498571D01*
X169035558Y-103460476D01*
X169411748Y-103193809D02*
X169330796Y-103231904D01*
X169178415Y-103231904D01*
X169106986Y-103193809D01*
X169073653Y-103155714D01*
X169045081Y-103079523D01*
X169073653Y-102850952D01*
X169121272Y-102774761D01*
X169164129Y-102736666D01*
X169245081Y-102698571D01*
X169397462Y-102698571D01*
X169468891Y-102736666D01*
X169787938Y-103231904D02*
X169854605Y-102698571D01*
X169835558Y-102850952D02*
X169883177Y-102774761D01*
X169926034Y-102736666D01*
X170006986Y-102698571D01*
X170083177Y-102698571D01*
X170626034Y-103231904D02*
X170678415Y-102812857D01*
X170649843Y-102736666D01*
X170578415Y-102698571D01*
X170426034Y-102698571D01*
X170345081Y-102736666D01*
X170630796Y-103193809D02*
X170549843Y-103231904D01*
X170359367Y-103231904D01*
X170287938Y-103193809D01*
X170259367Y-103117619D01*
X170268891Y-103041428D01*
X170316510Y-102965238D01*
X170397462Y-102927142D01*
X170587938Y-102927142D01*
X170668891Y-102889047D01*
X171006986Y-103231904D02*
X171073653Y-102698571D01*
X171064129Y-102774761D02*
X171106986Y-102736666D01*
X171187938Y-102698571D01*
X171302224Y-102698571D01*
X171373653Y-102736666D01*
X171402224Y-102812857D01*
X171349843Y-103231904D01*
X171402224Y-102812857D02*
X171449843Y-102736666D01*
X171530796Y-102698571D01*
X171645081Y-102698571D01*
X171716510Y-102736666D01*
X171745081Y-102812857D01*
X171692700Y-103231904D01*
X172073653Y-103231904D02*
X172140319Y-102698571D01*
X172130796Y-102774761D02*
X172173653Y-102736666D01*
X172254605Y-102698571D01*
X172368891Y-102698571D01*
X172440319Y-102736666D01*
X172468891Y-102812857D01*
X172416510Y-103231904D01*
X172468891Y-102812857D02*
X172516510Y-102736666D01*
X172597462Y-102698571D01*
X172711748Y-102698571D01*
X172783177Y-102736666D01*
X172811748Y-102812857D01*
X172759367Y-103231904D01*
X173449843Y-103193809D02*
X173368891Y-103231904D01*
X173216510Y-103231904D01*
X173145081Y-103193809D01*
X173116510Y-103117619D01*
X173154605Y-102812857D01*
X173202224Y-102736666D01*
X173283177Y-102698571D01*
X173435558Y-102698571D01*
X173506986Y-102736666D01*
X173535558Y-102812857D01*
X173526034Y-102889047D01*
X173135558Y-102965238D01*
X173826034Y-103231904D02*
X173892700Y-102698571D01*
X173873653Y-102850952D02*
X173921272Y-102774761D01*
X173964129Y-102736666D01*
X174045081Y-102698571D01*
X174121272Y-102698571D01*
D11*
X126270000Y-78005000D02*
X126270000Y-78335000D01*
X132810000Y-78005000D02*
X126270000Y-78005000D01*
X132810000Y-78335000D02*
X132810000Y-78005000D01*
X126270000Y-80745000D02*
X126270000Y-80415000D01*
X132810000Y-80745000D02*
X126270000Y-80745000D01*
X132810000Y-80415000D02*
X132810000Y-80745000D01*
X151550000Y-81495000D02*
X140700000Y-81495000D01*
X151550000Y-105195000D02*
X151550000Y-81495000D01*
X127850000Y-105195000D02*
X151550000Y-105195000D01*
X127850000Y-82495000D02*
X127850000Y-105195000D01*
X128850000Y-81495000D02*
X127850000Y-82495000D01*
X138700000Y-81495000D02*
X128850000Y-81495000D01*
X121345000Y-103445000D02*
X121345000Y-104775000D01*
X120015000Y-103445000D02*
X121345000Y-103445000D01*
X118745000Y-103445000D02*
X118745000Y-106105000D01*
X118745000Y-106105000D02*
X116145000Y-106105000D01*
X118745000Y-103445000D02*
X116145000Y-103445000D01*
X116145000Y-103445000D02*
X116145000Y-106105000D01*
X113820000Y-81395000D02*
X116360000Y-81395000D01*
X113820000Y-81395000D02*
X113820000Y-83935000D01*
X114070000Y-81645000D02*
X123420000Y-81645000D01*
X114070000Y-102505000D02*
X114070000Y-81645000D01*
X123420000Y-102505000D02*
X114070000Y-102505000D01*
X123420000Y-81645000D02*
X123420000Y-102505000D01*
X118555000Y-79665000D02*
X118711000Y-79665000D01*
X116239000Y-79665000D02*
X116395000Y-79665000D01*
X118554837Y-77063870D02*
G75*
G02X118555000Y-79145961I-1079837J-1041130D01*
G01*
X116395163Y-77063870D02*
G75*
G03X116395000Y-79145961I1079837J-1041130D01*
G01*
X118553608Y-76432665D02*
G75*
G02X118710516Y-79665000I-1078608J-1672335D01*
G01*
X116396392Y-76432665D02*
G75*
G03X116239484Y-79665000I1078608J-1672335D01*
G01*
X165545000Y-98425000D02*
G75*
G03X165545000Y-98425000I-2620000J0D01*
G01*
X165450000Y-80645000D02*
G75*
G03X165450000Y-80645000I-2620000J0D01*
G01*
X125730000Y-98495000D02*
X125730000Y-97205000D01*
X125730000Y-90575000D02*
X125730000Y-91865000D01*
X127400000Y-97205000D02*
X127400000Y-91865000D01*
X124060000Y-97205000D02*
X127400000Y-97205000D01*
X124060000Y-91865000D02*
X124060000Y-97205000D01*
X127400000Y-91865000D02*
X124060000Y-91865000D01*
X146120000Y-79375000D02*
X144830000Y-79375000D01*
X138200000Y-79375000D02*
X139490000Y-79375000D01*
X144830000Y-77705000D02*
X139490000Y-77705000D01*
X144830000Y-81045000D02*
X144830000Y-77705000D01*
X139490000Y-81045000D02*
X144830000Y-81045000D01*
X139490000Y-77705000D02*
X139490000Y-81045000D01*
X153670000Y-83110000D02*
X153670000Y-84400000D01*
X153670000Y-91030000D02*
X153670000Y-89740000D01*
X152000000Y-84400000D02*
X152000000Y-89740000D01*
X155340000Y-84400000D02*
X152000000Y-84400000D01*
X155340000Y-89740000D02*
X155340000Y-84400000D01*
X152000000Y-89740000D02*
X155340000Y-89740000D01*
X147390000Y-107315000D02*
X146100000Y-107315000D01*
X139470000Y-107315000D02*
X140760000Y-107315000D01*
X146100000Y-105645000D02*
X140760000Y-105645000D01*
X146100000Y-108985000D02*
X146100000Y-105645000D01*
X140760000Y-108985000D02*
X146100000Y-108985000D01*
X140760000Y-105645000D02*
X140760000Y-108985000D01*
X162440000Y-84415000D02*
X162440000Y-94655000D01*
X178330000Y-84415000D02*
X178330000Y-94655000D01*
X178330000Y-84415000D02*
X162440000Y-84415000D01*
X178330000Y-94655000D02*
X162440000Y-94655000D01*
X162440000Y-86995000D02*
X159900000Y-86995000D01*
X162440000Y-89535000D02*
X159900000Y-89535000D01*
X162440000Y-92075000D02*
X159900000Y-92075000D01*
D12*
X129373333Y-79977380D02*
X129040000Y-79501190D01*
X128801904Y-79977380D02*
X128801904Y-78977380D01*
X129182857Y-78977380D01*
X129278095Y-79025000D01*
X129325714Y-79072619D01*
X129373333Y-79167857D01*
X129373333Y-79310714D01*
X129325714Y-79405952D01*
X129278095Y-79453571D01*
X129182857Y-79501190D01*
X128801904Y-79501190D01*
X130325714Y-79977380D02*
X129754285Y-79977380D01*
X130040000Y-79977380D02*
X130040000Y-78977380D01*
X129944761Y-79120238D01*
X129849523Y-79215476D01*
X129754285Y-79263095D01*
X128778095Y-82637380D02*
X128778095Y-83446904D01*
X128825714Y-83542142D01*
X128873333Y-83589761D01*
X128968571Y-83637380D01*
X129159047Y-83637380D01*
X129254285Y-83589761D01*
X129301904Y-83542142D01*
X129349523Y-83446904D01*
X129349523Y-82637380D01*
X130349523Y-83637380D02*
X129778095Y-83637380D01*
X130063809Y-83637380D02*
X130063809Y-82637380D01*
X129968571Y-82780238D01*
X129873333Y-82875476D01*
X129778095Y-82923095D01*
X122011666Y-104227380D02*
X122011666Y-104941666D01*
X121964047Y-105084523D01*
X121868809Y-105179761D01*
X121725952Y-105227380D01*
X121630714Y-105227380D01*
X122440238Y-104322619D02*
X122487857Y-104275000D01*
X122583095Y-104227380D01*
X122821190Y-104227380D01*
X122916428Y-104275000D01*
X122964047Y-104322619D01*
X123011666Y-104417857D01*
X123011666Y-104513095D01*
X122964047Y-104655952D01*
X122392619Y-105227380D01*
X123011666Y-105227380D01*
X123912380Y-82883333D02*
X124626666Y-82883333D01*
X124769523Y-82930952D01*
X124864761Y-83026190D01*
X124912380Y-83169047D01*
X124912380Y-83264285D01*
X124912380Y-81883333D02*
X124912380Y-82454761D01*
X124912380Y-82169047D02*
X123912380Y-82169047D01*
X124055238Y-82264285D01*
X124150476Y-82359523D01*
X124198095Y-82454761D01*
X121102380Y-78843095D02*
X120102380Y-78843095D01*
X120102380Y-78605000D01*
X120150000Y-78462142D01*
X120245238Y-78366904D01*
X120340476Y-78319285D01*
X120530952Y-78271666D01*
X120673809Y-78271666D01*
X120864285Y-78319285D01*
X120959523Y-78366904D01*
X121054761Y-78462142D01*
X121102380Y-78605000D01*
X121102380Y-78843095D01*
X121102380Y-77319285D02*
X121102380Y-77890714D01*
X121102380Y-77605000D02*
X120102380Y-77605000D01*
X120245238Y-77700238D01*
X120340476Y-77795476D01*
X120388095Y-77890714D01*
X166727142Y-98591666D02*
X166774761Y-98639285D01*
X166822380Y-98782142D01*
X166822380Y-98877380D01*
X166774761Y-99020238D01*
X166679523Y-99115476D01*
X166584285Y-99163095D01*
X166393809Y-99210714D01*
X166250952Y-99210714D01*
X166060476Y-99163095D01*
X165965238Y-99115476D01*
X165870000Y-99020238D01*
X165822380Y-98877380D01*
X165822380Y-98782142D01*
X165870000Y-98639285D01*
X165917619Y-98591666D01*
X165822380Y-97734523D02*
X165822380Y-97925000D01*
X165870000Y-98020238D01*
X165917619Y-98067857D01*
X166060476Y-98163095D01*
X166250952Y-98210714D01*
X166631904Y-98210714D01*
X166727142Y-98163095D01*
X166774761Y-98115476D01*
X166822380Y-98020238D01*
X166822380Y-97829761D01*
X166774761Y-97734523D01*
X166727142Y-97686904D01*
X166631904Y-97639285D01*
X166393809Y-97639285D01*
X166298571Y-97686904D01*
X166250952Y-97734523D01*
X166203333Y-97829761D01*
X166203333Y-98020238D01*
X166250952Y-98115476D01*
X166298571Y-98163095D01*
X166393809Y-98210714D01*
X166727142Y-80811666D02*
X166774761Y-80859285D01*
X166822380Y-81002142D01*
X166822380Y-81097380D01*
X166774761Y-81240238D01*
X166679523Y-81335476D01*
X166584285Y-81383095D01*
X166393809Y-81430714D01*
X166250952Y-81430714D01*
X166060476Y-81383095D01*
X165965238Y-81335476D01*
X165870000Y-81240238D01*
X165822380Y-81097380D01*
X165822380Y-81002142D01*
X165870000Y-80859285D01*
X165917619Y-80811666D01*
X165822380Y-79906904D02*
X165822380Y-80383095D01*
X166298571Y-80430714D01*
X166250952Y-80383095D01*
X166203333Y-80287857D01*
X166203333Y-80049761D01*
X166250952Y-79954523D01*
X166298571Y-79906904D01*
X166393809Y-79859285D01*
X166631904Y-79859285D01*
X166727142Y-79906904D01*
X166774761Y-79954523D01*
X166822380Y-80049761D01*
X166822380Y-80287857D01*
X166774761Y-80383095D01*
X166727142Y-80430714D01*
X126087142Y-94701666D02*
X126134761Y-94749285D01*
X126182380Y-94892142D01*
X126182380Y-94987380D01*
X126134761Y-95130238D01*
X126039523Y-95225476D01*
X125944285Y-95273095D01*
X125753809Y-95320714D01*
X125610952Y-95320714D01*
X125420476Y-95273095D01*
X125325238Y-95225476D01*
X125230000Y-95130238D01*
X125182380Y-94987380D01*
X125182380Y-94892142D01*
X125230000Y-94749285D01*
X125277619Y-94701666D01*
X125515714Y-93844523D02*
X126182380Y-93844523D01*
X125134761Y-94082619D02*
X125849047Y-94320714D01*
X125849047Y-93701666D01*
X141993333Y-79744842D02*
X141945714Y-79792461D01*
X141802857Y-79840080D01*
X141707619Y-79840080D01*
X141564761Y-79792461D01*
X141469523Y-79697223D01*
X141421904Y-79601985D01*
X141374285Y-79411509D01*
X141374285Y-79268652D01*
X141421904Y-79078176D01*
X141469523Y-78982938D01*
X141564761Y-78887700D01*
X141707619Y-78840080D01*
X141802857Y-78840080D01*
X141945714Y-78887700D01*
X141993333Y-78935319D01*
X142326666Y-78840080D02*
X142945714Y-78840080D01*
X142612380Y-79221033D01*
X142755238Y-79221033D01*
X142850476Y-79268652D01*
X142898095Y-79316271D01*
X142945714Y-79411509D01*
X142945714Y-79649604D01*
X142898095Y-79744842D01*
X142850476Y-79792461D01*
X142755238Y-79840080D01*
X142469523Y-79840080D01*
X142374285Y-79792461D01*
X142326666Y-79744842D01*
X154032142Y-87236666D02*
X154079761Y-87284285D01*
X154127380Y-87427142D01*
X154127380Y-87522380D01*
X154079761Y-87665238D01*
X153984523Y-87760476D01*
X153889285Y-87808095D01*
X153698809Y-87855714D01*
X153555952Y-87855714D01*
X153365476Y-87808095D01*
X153270238Y-87760476D01*
X153175000Y-87665238D01*
X153127380Y-87522380D01*
X153127380Y-87427142D01*
X153175000Y-87284285D01*
X153222619Y-87236666D01*
X153222619Y-86855714D02*
X153175000Y-86808095D01*
X153127380Y-86712857D01*
X153127380Y-86474761D01*
X153175000Y-86379523D01*
X153222619Y-86331904D01*
X153317857Y-86284285D01*
X153413095Y-86284285D01*
X153555952Y-86331904D01*
X154127380Y-86903333D01*
X154127380Y-86284285D01*
X143263333Y-107672142D02*
X143215714Y-107719761D01*
X143072857Y-107767380D01*
X142977619Y-107767380D01*
X142834761Y-107719761D01*
X142739523Y-107624523D01*
X142691904Y-107529285D01*
X142644285Y-107338809D01*
X142644285Y-107195952D01*
X142691904Y-107005476D01*
X142739523Y-106910238D01*
X142834761Y-106815000D01*
X142977619Y-106767380D01*
X143072857Y-106767380D01*
X143215714Y-106815000D01*
X143263333Y-106862619D01*
X144215714Y-107767380D02*
X143644285Y-107767380D01*
X143930000Y-107767380D02*
X143930000Y-106767380D01*
X143834761Y-106910238D01*
X143739523Y-107005476D01*
X143644285Y-107053095D01*
X178782380Y-90296904D02*
X179591904Y-90296904D01*
X179687142Y-90249285D01*
X179734761Y-90201666D01*
X179782380Y-90106428D01*
X179782380Y-89915952D01*
X179734761Y-89820714D01*
X179687142Y-89773095D01*
X179591904Y-89725476D01*
X178782380Y-89725476D01*
X178877619Y-89296904D02*
X178830000Y-89249285D01*
X178782380Y-89154047D01*
X178782380Y-88915952D01*
X178830000Y-88820714D01*
X178877619Y-88773095D01*
X178972857Y-88725476D01*
X179068095Y-88725476D01*
X179210952Y-88773095D01*
X179782380Y-89344523D01*
X179782380Y-88725476D01*
M02*
