M48
; DRILL file {KiCad (5.1.2-1)-1} date Saturday, 08 June 2019 at 01:43:20
; FORMAT={3:3/ absolute / metric / suppress leading zeros}
; #@! TF.CreationDate,2019-06-08T01:43:20+01:00
; #@! TF.GenerationSoftware,Kicad,Pcbnew,(5.1.2-1)-1
FMAT,2
METRIC,TZ
T1C0.600
T2C0.800
T3C0.900
T4C1.000
T5C1.016
T6C1.100
T7C3.500
%
G90
G05
T1
X161925Y-98425
X163925Y-98425
X161830Y-80645
X163830Y-80645
T2
X137160Y-79375
X147160Y-79375
X130810Y-86995
X130810Y-89535
X130810Y-92075
X130810Y-94615
X130810Y-97155
X130810Y-99695
X133350Y-84455
X133350Y-86995
X133350Y-89535
X133350Y-92075
X133350Y-94615
X133350Y-97155
X133350Y-99695
X133350Y-102235
X135890Y-84455
X135890Y-86995
X135890Y-99695
X135890Y-102235
X138430Y-84455
X138430Y-86995
X138430Y-99695
X138430Y-102235
X140970Y-84455
X140970Y-86995
X140970Y-99695
X140970Y-102235
X143510Y-84455
X143510Y-86995
X143510Y-99695
X143510Y-102235
X146050Y-84455
X146050Y-86995
X146050Y-89535
X146050Y-92075
X146050Y-94615
X146050Y-97155
X146050Y-99695
X146050Y-102235
X148590Y-86995
X148590Y-89535
X148590Y-92075
X148590Y-94615
X148590Y-97155
X148590Y-99695
X153670Y-82070
X153670Y-92070
X125730Y-79375
X133350Y-79375
X138430Y-107315
X148430Y-107315
X125730Y-89535
X125730Y-99535
T3
X117475Y-76835
X117475Y-79375
T4
X117475Y-104775
X120015Y-104775
T5
X117475Y-86995
X117475Y-89535
X117475Y-92075
X117475Y-94615
X117475Y-97155
X120015Y-86995
X120015Y-89535
X120015Y-92075
X120015Y-94615
X120015Y-97155
T6
X158750Y-86995
X158750Y-89535
X158750Y-92075
T7
X175410Y-89535
T0
M30
