G04 #@! TF.GenerationSoftware,KiCad,Pcbnew,(5.1.2-1)-1*
G04 #@! TF.CreationDate,2019-06-08T01:43:03+01:00*
G04 #@! TF.ProjectId,ATF Programming Board,41544620-5072-46f6-9772-616d6d696e67,rev?*
G04 #@! TF.SameCoordinates,Original*
G04 #@! TF.FileFunction,Soldermask,Top*
G04 #@! TF.FilePolarity,Negative*
%FSLAX46Y46*%
G04 Gerber Fmt 4.6, Leading zero omitted, Abs format (unit mm)*
G04 Created by KiCad (PCBNEW (5.1.2-1)-1) date 2019-06-08 01:43:03*
%MOMM*%
%LPD*%
G04 APERTURE LIST*
%ADD10C,0.100000*%
G04 APERTURE END LIST*
D10*
G36*
X148596823Y-106476313D02*
G01*
X148757242Y-106524976D01*
X148824361Y-106560852D01*
X148905078Y-106603996D01*
X149034659Y-106710341D01*
X149141004Y-106839922D01*
X149141005Y-106839924D01*
X149220024Y-106987758D01*
X149268687Y-107148177D01*
X149285117Y-107315000D01*
X149268687Y-107481823D01*
X149220024Y-107642242D01*
X149179477Y-107718100D01*
X149141004Y-107790078D01*
X149034659Y-107919659D01*
X148905078Y-108026004D01*
X148905076Y-108026005D01*
X148757242Y-108105024D01*
X148596823Y-108153687D01*
X148471804Y-108166000D01*
X148388196Y-108166000D01*
X148263177Y-108153687D01*
X148102758Y-108105024D01*
X147954924Y-108026005D01*
X147954922Y-108026004D01*
X147825341Y-107919659D01*
X147718996Y-107790078D01*
X147680523Y-107718100D01*
X147639976Y-107642242D01*
X147591313Y-107481823D01*
X147574883Y-107315000D01*
X147591313Y-107148177D01*
X147639976Y-106987758D01*
X147718995Y-106839924D01*
X147718996Y-106839922D01*
X147825341Y-106710341D01*
X147954922Y-106603996D01*
X148035639Y-106560852D01*
X148102758Y-106524976D01*
X148263177Y-106476313D01*
X148388196Y-106464000D01*
X148471804Y-106464000D01*
X148596823Y-106476313D01*
X148596823Y-106476313D01*
G37*
G36*
X138678228Y-106496703D02*
G01*
X138833100Y-106560853D01*
X138972481Y-106653985D01*
X139091015Y-106772519D01*
X139184147Y-106911900D01*
X139248297Y-107066772D01*
X139281000Y-107231184D01*
X139281000Y-107398816D01*
X139248297Y-107563228D01*
X139184147Y-107718100D01*
X139091015Y-107857481D01*
X138972481Y-107976015D01*
X138833100Y-108069147D01*
X138678228Y-108133297D01*
X138513816Y-108166000D01*
X138346184Y-108166000D01*
X138181772Y-108133297D01*
X138026900Y-108069147D01*
X137887519Y-107976015D01*
X137768985Y-107857481D01*
X137675853Y-107718100D01*
X137611703Y-107563228D01*
X137579000Y-107398816D01*
X137579000Y-107231184D01*
X137611703Y-107066772D01*
X137675853Y-106911900D01*
X137768985Y-106772519D01*
X137887519Y-106653985D01*
X138026900Y-106560853D01*
X138181772Y-106496703D01*
X138346184Y-106464000D01*
X138513816Y-106464000D01*
X138678228Y-106496703D01*
X138678228Y-106496703D01*
G37*
G36*
X120916000Y-105676000D02*
G01*
X119114000Y-105676000D01*
X119114000Y-103874000D01*
X120916000Y-103874000D01*
X120916000Y-105676000D01*
X120916000Y-105676000D01*
G37*
G36*
X117585443Y-103880519D02*
G01*
X117651627Y-103887037D01*
X117821466Y-103938557D01*
X117977991Y-104022222D01*
X118013729Y-104051552D01*
X118115186Y-104134814D01*
X118198448Y-104236271D01*
X118227778Y-104272009D01*
X118311443Y-104428534D01*
X118362963Y-104598373D01*
X118380359Y-104775000D01*
X118362963Y-104951627D01*
X118311443Y-105121466D01*
X118227778Y-105277991D01*
X118198448Y-105313729D01*
X118115186Y-105415186D01*
X118013729Y-105498448D01*
X117977991Y-105527778D01*
X117821466Y-105611443D01*
X117651627Y-105662963D01*
X117585443Y-105669481D01*
X117519260Y-105676000D01*
X117430740Y-105676000D01*
X117364557Y-105669481D01*
X117298373Y-105662963D01*
X117128534Y-105611443D01*
X116972009Y-105527778D01*
X116936271Y-105498448D01*
X116834814Y-105415186D01*
X116751552Y-105313729D01*
X116722222Y-105277991D01*
X116638557Y-105121466D01*
X116587037Y-104951627D01*
X116569641Y-104775000D01*
X116587037Y-104598373D01*
X116638557Y-104428534D01*
X116722222Y-104272009D01*
X116751552Y-104236271D01*
X116834814Y-104134814D01*
X116936271Y-104051552D01*
X116972009Y-104022222D01*
X117128534Y-103938557D01*
X117298373Y-103887037D01*
X117364557Y-103880519D01*
X117430740Y-103874000D01*
X117519260Y-103874000D01*
X117585443Y-103880519D01*
X117585443Y-103880519D01*
G37*
G36*
X136112325Y-101502090D02*
G01*
X136251038Y-101559547D01*
X136375872Y-101642958D01*
X136482042Y-101749128D01*
X136565453Y-101873962D01*
X136622910Y-102012675D01*
X136652200Y-102159929D01*
X136652200Y-102310071D01*
X136622910Y-102457325D01*
X136565453Y-102596038D01*
X136482042Y-102720872D01*
X136375872Y-102827042D01*
X136251038Y-102910453D01*
X136112325Y-102967910D01*
X135965071Y-102997200D01*
X135814929Y-102997200D01*
X135667675Y-102967910D01*
X135528962Y-102910453D01*
X135404128Y-102827042D01*
X135297958Y-102720872D01*
X135214547Y-102596038D01*
X135157090Y-102457325D01*
X135127800Y-102310071D01*
X135127800Y-102159929D01*
X135157090Y-102012675D01*
X135214547Y-101873962D01*
X135297958Y-101749128D01*
X135404128Y-101642958D01*
X135528962Y-101559547D01*
X135667675Y-101502090D01*
X135814929Y-101472800D01*
X135965071Y-101472800D01*
X136112325Y-101502090D01*
X136112325Y-101502090D01*
G37*
G36*
X133572325Y-101502090D02*
G01*
X133711038Y-101559547D01*
X133835872Y-101642958D01*
X133942042Y-101749128D01*
X134025453Y-101873962D01*
X134082910Y-102012675D01*
X134112200Y-102159929D01*
X134112200Y-102310071D01*
X134082910Y-102457325D01*
X134025453Y-102596038D01*
X133942042Y-102720872D01*
X133835872Y-102827042D01*
X133711038Y-102910453D01*
X133572325Y-102967910D01*
X133425071Y-102997200D01*
X133274929Y-102997200D01*
X133127675Y-102967910D01*
X132988962Y-102910453D01*
X132864128Y-102827042D01*
X132757958Y-102720872D01*
X132674547Y-102596038D01*
X132617090Y-102457325D01*
X132587800Y-102310071D01*
X132587800Y-102159929D01*
X132617090Y-102012675D01*
X132674547Y-101873962D01*
X132757958Y-101749128D01*
X132864128Y-101642958D01*
X132988962Y-101559547D01*
X133127675Y-101502090D01*
X133274929Y-101472800D01*
X133425071Y-101472800D01*
X133572325Y-101502090D01*
X133572325Y-101502090D01*
G37*
G36*
X146272325Y-101502090D02*
G01*
X146411038Y-101559547D01*
X146535872Y-101642958D01*
X146642042Y-101749128D01*
X146725453Y-101873962D01*
X146782910Y-102012675D01*
X146812200Y-102159929D01*
X146812200Y-102310071D01*
X146782910Y-102457325D01*
X146725453Y-102596038D01*
X146642042Y-102720872D01*
X146535872Y-102827042D01*
X146411038Y-102910453D01*
X146272325Y-102967910D01*
X146125071Y-102997200D01*
X145974929Y-102997200D01*
X145827675Y-102967910D01*
X145688962Y-102910453D01*
X145564128Y-102827042D01*
X145457958Y-102720872D01*
X145374547Y-102596038D01*
X145317090Y-102457325D01*
X145287800Y-102310071D01*
X145287800Y-102159929D01*
X145317090Y-102012675D01*
X145374547Y-101873962D01*
X145457958Y-101749128D01*
X145564128Y-101642958D01*
X145688962Y-101559547D01*
X145827675Y-101502090D01*
X145974929Y-101472800D01*
X146125071Y-101472800D01*
X146272325Y-101502090D01*
X146272325Y-101502090D01*
G37*
G36*
X141192325Y-101502090D02*
G01*
X141331038Y-101559547D01*
X141455872Y-101642958D01*
X141562042Y-101749128D01*
X141645453Y-101873962D01*
X141702910Y-102012675D01*
X141732200Y-102159929D01*
X141732200Y-102310071D01*
X141702910Y-102457325D01*
X141645453Y-102596038D01*
X141562042Y-102720872D01*
X141455872Y-102827042D01*
X141331038Y-102910453D01*
X141192325Y-102967910D01*
X141045071Y-102997200D01*
X140894929Y-102997200D01*
X140747675Y-102967910D01*
X140608962Y-102910453D01*
X140484128Y-102827042D01*
X140377958Y-102720872D01*
X140294547Y-102596038D01*
X140237090Y-102457325D01*
X140207800Y-102310071D01*
X140207800Y-102159929D01*
X140237090Y-102012675D01*
X140294547Y-101873962D01*
X140377958Y-101749128D01*
X140484128Y-101642958D01*
X140608962Y-101559547D01*
X140747675Y-101502090D01*
X140894929Y-101472800D01*
X141045071Y-101472800D01*
X141192325Y-101502090D01*
X141192325Y-101502090D01*
G37*
G36*
X138652325Y-101502090D02*
G01*
X138791038Y-101559547D01*
X138915872Y-101642958D01*
X139022042Y-101749128D01*
X139105453Y-101873962D01*
X139162910Y-102012675D01*
X139192200Y-102159929D01*
X139192200Y-102310071D01*
X139162910Y-102457325D01*
X139105453Y-102596038D01*
X139022042Y-102720872D01*
X138915872Y-102827042D01*
X138791038Y-102910453D01*
X138652325Y-102967910D01*
X138505071Y-102997200D01*
X138354929Y-102997200D01*
X138207675Y-102967910D01*
X138068962Y-102910453D01*
X137944128Y-102827042D01*
X137837958Y-102720872D01*
X137754547Y-102596038D01*
X137697090Y-102457325D01*
X137667800Y-102310071D01*
X137667800Y-102159929D01*
X137697090Y-102012675D01*
X137754547Y-101873962D01*
X137837958Y-101749128D01*
X137944128Y-101642958D01*
X138068962Y-101559547D01*
X138207675Y-101502090D01*
X138354929Y-101472800D01*
X138505071Y-101472800D01*
X138652325Y-101502090D01*
X138652325Y-101502090D01*
G37*
G36*
X143732325Y-101502090D02*
G01*
X143871038Y-101559547D01*
X143995872Y-101642958D01*
X144102042Y-101749128D01*
X144185453Y-101873962D01*
X144242910Y-102012675D01*
X144272200Y-102159929D01*
X144272200Y-102310071D01*
X144242910Y-102457325D01*
X144185453Y-102596038D01*
X144102042Y-102720872D01*
X143995872Y-102827042D01*
X143871038Y-102910453D01*
X143732325Y-102967910D01*
X143585071Y-102997200D01*
X143434929Y-102997200D01*
X143287675Y-102967910D01*
X143148962Y-102910453D01*
X143024128Y-102827042D01*
X142917958Y-102720872D01*
X142834547Y-102596038D01*
X142777090Y-102457325D01*
X142747800Y-102310071D01*
X142747800Y-102159929D01*
X142777090Y-102012675D01*
X142834547Y-101873962D01*
X142917958Y-101749128D01*
X143024128Y-101642958D01*
X143148962Y-101559547D01*
X143287675Y-101502090D01*
X143434929Y-101472800D01*
X143585071Y-101472800D01*
X143732325Y-101502090D01*
X143732325Y-101502090D01*
G37*
G36*
X148812325Y-98962090D02*
G01*
X148951038Y-99019547D01*
X149075872Y-99102958D01*
X149182042Y-99209128D01*
X149265453Y-99333962D01*
X149322910Y-99472675D01*
X149352200Y-99619929D01*
X149352200Y-99770071D01*
X149322910Y-99917325D01*
X149265453Y-100056038D01*
X149182042Y-100180872D01*
X149075872Y-100287042D01*
X148951038Y-100370453D01*
X148812325Y-100427910D01*
X148665071Y-100457200D01*
X148514929Y-100457200D01*
X148367675Y-100427910D01*
X148228962Y-100370453D01*
X148104128Y-100287042D01*
X147997958Y-100180872D01*
X147914547Y-100056038D01*
X147857090Y-99917325D01*
X147827800Y-99770071D01*
X147827800Y-99619929D01*
X147857090Y-99472675D01*
X147914547Y-99333962D01*
X147997958Y-99209128D01*
X148104128Y-99102958D01*
X148228962Y-99019547D01*
X148367675Y-98962090D01*
X148514929Y-98932800D01*
X148665071Y-98932800D01*
X148812325Y-98962090D01*
X148812325Y-98962090D01*
G37*
G36*
X146272325Y-98962090D02*
G01*
X146411038Y-99019547D01*
X146535872Y-99102958D01*
X146642042Y-99209128D01*
X146725453Y-99333962D01*
X146782910Y-99472675D01*
X146812200Y-99619929D01*
X146812200Y-99770071D01*
X146782910Y-99917325D01*
X146725453Y-100056038D01*
X146642042Y-100180872D01*
X146535872Y-100287042D01*
X146411038Y-100370453D01*
X146272325Y-100427910D01*
X146125071Y-100457200D01*
X145974929Y-100457200D01*
X145827675Y-100427910D01*
X145688962Y-100370453D01*
X145564128Y-100287042D01*
X145457958Y-100180872D01*
X145374547Y-100056038D01*
X145317090Y-99917325D01*
X145287800Y-99770071D01*
X145287800Y-99619929D01*
X145317090Y-99472675D01*
X145374547Y-99333962D01*
X145457958Y-99209128D01*
X145564128Y-99102958D01*
X145688962Y-99019547D01*
X145827675Y-98962090D01*
X145974929Y-98932800D01*
X146125071Y-98932800D01*
X146272325Y-98962090D01*
X146272325Y-98962090D01*
G37*
G36*
X143732325Y-98962090D02*
G01*
X143871038Y-99019547D01*
X143995872Y-99102958D01*
X144102042Y-99209128D01*
X144185453Y-99333962D01*
X144242910Y-99472675D01*
X144272200Y-99619929D01*
X144272200Y-99770071D01*
X144242910Y-99917325D01*
X144185453Y-100056038D01*
X144102042Y-100180872D01*
X143995872Y-100287042D01*
X143871038Y-100370453D01*
X143732325Y-100427910D01*
X143585071Y-100457200D01*
X143434929Y-100457200D01*
X143287675Y-100427910D01*
X143148962Y-100370453D01*
X143024128Y-100287042D01*
X142917958Y-100180872D01*
X142834547Y-100056038D01*
X142777090Y-99917325D01*
X142747800Y-99770071D01*
X142747800Y-99619929D01*
X142777090Y-99472675D01*
X142834547Y-99333962D01*
X142917958Y-99209128D01*
X143024128Y-99102958D01*
X143148962Y-99019547D01*
X143287675Y-98962090D01*
X143434929Y-98932800D01*
X143585071Y-98932800D01*
X143732325Y-98962090D01*
X143732325Y-98962090D01*
G37*
G36*
X141192325Y-98962090D02*
G01*
X141331038Y-99019547D01*
X141455872Y-99102958D01*
X141562042Y-99209128D01*
X141645453Y-99333962D01*
X141702910Y-99472675D01*
X141732200Y-99619929D01*
X141732200Y-99770071D01*
X141702910Y-99917325D01*
X141645453Y-100056038D01*
X141562042Y-100180872D01*
X141455872Y-100287042D01*
X141331038Y-100370453D01*
X141192325Y-100427910D01*
X141045071Y-100457200D01*
X140894929Y-100457200D01*
X140747675Y-100427910D01*
X140608962Y-100370453D01*
X140484128Y-100287042D01*
X140377958Y-100180872D01*
X140294547Y-100056038D01*
X140237090Y-99917325D01*
X140207800Y-99770071D01*
X140207800Y-99619929D01*
X140237090Y-99472675D01*
X140294547Y-99333962D01*
X140377958Y-99209128D01*
X140484128Y-99102958D01*
X140608962Y-99019547D01*
X140747675Y-98962090D01*
X140894929Y-98932800D01*
X141045071Y-98932800D01*
X141192325Y-98962090D01*
X141192325Y-98962090D01*
G37*
G36*
X138652325Y-98962090D02*
G01*
X138791038Y-99019547D01*
X138915872Y-99102958D01*
X139022042Y-99209128D01*
X139105453Y-99333962D01*
X139162910Y-99472675D01*
X139192200Y-99619929D01*
X139192200Y-99770071D01*
X139162910Y-99917325D01*
X139105453Y-100056038D01*
X139022042Y-100180872D01*
X138915872Y-100287042D01*
X138791038Y-100370453D01*
X138652325Y-100427910D01*
X138505071Y-100457200D01*
X138354929Y-100457200D01*
X138207675Y-100427910D01*
X138068962Y-100370453D01*
X137944128Y-100287042D01*
X137837958Y-100180872D01*
X137754547Y-100056038D01*
X137697090Y-99917325D01*
X137667800Y-99770071D01*
X137667800Y-99619929D01*
X137697090Y-99472675D01*
X137754547Y-99333962D01*
X137837958Y-99209128D01*
X137944128Y-99102958D01*
X138068962Y-99019547D01*
X138207675Y-98962090D01*
X138354929Y-98932800D01*
X138505071Y-98932800D01*
X138652325Y-98962090D01*
X138652325Y-98962090D01*
G37*
G36*
X136112325Y-98962090D02*
G01*
X136251038Y-99019547D01*
X136375872Y-99102958D01*
X136482042Y-99209128D01*
X136565453Y-99333962D01*
X136622910Y-99472675D01*
X136652200Y-99619929D01*
X136652200Y-99770071D01*
X136622910Y-99917325D01*
X136565453Y-100056038D01*
X136482042Y-100180872D01*
X136375872Y-100287042D01*
X136251038Y-100370453D01*
X136112325Y-100427910D01*
X135965071Y-100457200D01*
X135814929Y-100457200D01*
X135667675Y-100427910D01*
X135528962Y-100370453D01*
X135404128Y-100287042D01*
X135297958Y-100180872D01*
X135214547Y-100056038D01*
X135157090Y-99917325D01*
X135127800Y-99770071D01*
X135127800Y-99619929D01*
X135157090Y-99472675D01*
X135214547Y-99333962D01*
X135297958Y-99209128D01*
X135404128Y-99102958D01*
X135528962Y-99019547D01*
X135667675Y-98962090D01*
X135814929Y-98932800D01*
X135965071Y-98932800D01*
X136112325Y-98962090D01*
X136112325Y-98962090D01*
G37*
G36*
X133572325Y-98962090D02*
G01*
X133711038Y-99019547D01*
X133835872Y-99102958D01*
X133942042Y-99209128D01*
X134025453Y-99333962D01*
X134082910Y-99472675D01*
X134112200Y-99619929D01*
X134112200Y-99770071D01*
X134082910Y-99917325D01*
X134025453Y-100056038D01*
X133942042Y-100180872D01*
X133835872Y-100287042D01*
X133711038Y-100370453D01*
X133572325Y-100427910D01*
X133425071Y-100457200D01*
X133274929Y-100457200D01*
X133127675Y-100427910D01*
X132988962Y-100370453D01*
X132864128Y-100287042D01*
X132757958Y-100180872D01*
X132674547Y-100056038D01*
X132617090Y-99917325D01*
X132587800Y-99770071D01*
X132587800Y-99619929D01*
X132617090Y-99472675D01*
X132674547Y-99333962D01*
X132757958Y-99209128D01*
X132864128Y-99102958D01*
X132988962Y-99019547D01*
X133127675Y-98962090D01*
X133274929Y-98932800D01*
X133425071Y-98932800D01*
X133572325Y-98962090D01*
X133572325Y-98962090D01*
G37*
G36*
X131032325Y-98962090D02*
G01*
X131171038Y-99019547D01*
X131295872Y-99102958D01*
X131402042Y-99209128D01*
X131485453Y-99333962D01*
X131542910Y-99472675D01*
X131572200Y-99619929D01*
X131572200Y-99770071D01*
X131542910Y-99917325D01*
X131485453Y-100056038D01*
X131402042Y-100180872D01*
X131295872Y-100287042D01*
X131171038Y-100370453D01*
X131032325Y-100427910D01*
X130885071Y-100457200D01*
X130734929Y-100457200D01*
X130587675Y-100427910D01*
X130448962Y-100370453D01*
X130324128Y-100287042D01*
X130217958Y-100180872D01*
X130134547Y-100056038D01*
X130077090Y-99917325D01*
X130047800Y-99770071D01*
X130047800Y-99619929D01*
X130077090Y-99472675D01*
X130134547Y-99333962D01*
X130217958Y-99209128D01*
X130324128Y-99102958D01*
X130448962Y-99019547D01*
X130587675Y-98962090D01*
X130734929Y-98932800D01*
X130885071Y-98932800D01*
X131032325Y-98962090D01*
X131032325Y-98962090D01*
G37*
G36*
X125896823Y-98696313D02*
G01*
X126057242Y-98744976D01*
X126189906Y-98815886D01*
X126205078Y-98823996D01*
X126334659Y-98930341D01*
X126441004Y-99059922D01*
X126441005Y-99059924D01*
X126520024Y-99207758D01*
X126568687Y-99368177D01*
X126585117Y-99535000D01*
X126568687Y-99701823D01*
X126520024Y-99862242D01*
X126490581Y-99917325D01*
X126441004Y-100010078D01*
X126334659Y-100139659D01*
X126205078Y-100246004D01*
X126205076Y-100246005D01*
X126057242Y-100325024D01*
X125896823Y-100373687D01*
X125771804Y-100386000D01*
X125688196Y-100386000D01*
X125563177Y-100373687D01*
X125402758Y-100325024D01*
X125254924Y-100246005D01*
X125254922Y-100246004D01*
X125125341Y-100139659D01*
X125018996Y-100010078D01*
X124969419Y-99917325D01*
X124939976Y-99862242D01*
X124891313Y-99701823D01*
X124874883Y-99535000D01*
X124891313Y-99368177D01*
X124939976Y-99207758D01*
X125018995Y-99059924D01*
X125018996Y-99059922D01*
X125125341Y-98930341D01*
X125254922Y-98823996D01*
X125270094Y-98815886D01*
X125402758Y-98744976D01*
X125563177Y-98696313D01*
X125688196Y-98684000D01*
X125771804Y-98684000D01*
X125896823Y-98696313D01*
X125896823Y-98696313D01*
G37*
G36*
X164114890Y-97799017D02*
G01*
X164233364Y-97848091D01*
X164292956Y-97887909D01*
X164339988Y-97919335D01*
X164430665Y-98010012D01*
X164501910Y-98116638D01*
X164550983Y-98235110D01*
X164576000Y-98360881D01*
X164576000Y-98489119D01*
X164550983Y-98614890D01*
X164522357Y-98684000D01*
X164501909Y-98733364D01*
X164430665Y-98839988D01*
X164339988Y-98930665D01*
X164233364Y-99001909D01*
X164233363Y-99001910D01*
X164233362Y-99001910D01*
X164114890Y-99050983D01*
X163989119Y-99076000D01*
X163860881Y-99076000D01*
X163735110Y-99050983D01*
X163616638Y-99001910D01*
X163616637Y-99001910D01*
X163616636Y-99001909D01*
X163510012Y-98930665D01*
X163419335Y-98839988D01*
X163348091Y-98733364D01*
X163327644Y-98684000D01*
X163299017Y-98614890D01*
X163274000Y-98489119D01*
X163274000Y-98360881D01*
X163299017Y-98235110D01*
X163348090Y-98116638D01*
X163419335Y-98010012D01*
X163510012Y-97919335D01*
X163557044Y-97887909D01*
X163616636Y-97848091D01*
X163735110Y-97799017D01*
X163860881Y-97774000D01*
X163989119Y-97774000D01*
X164114890Y-97799017D01*
X164114890Y-97799017D01*
G37*
G36*
X162114890Y-97799017D02*
G01*
X162233364Y-97848091D01*
X162292956Y-97887909D01*
X162339988Y-97919335D01*
X162430665Y-98010012D01*
X162501910Y-98116638D01*
X162550983Y-98235110D01*
X162576000Y-98360881D01*
X162576000Y-98489119D01*
X162550983Y-98614890D01*
X162522357Y-98684000D01*
X162501909Y-98733364D01*
X162430665Y-98839988D01*
X162339988Y-98930665D01*
X162233364Y-99001909D01*
X162233363Y-99001910D01*
X162233362Y-99001910D01*
X162114890Y-99050983D01*
X161989119Y-99076000D01*
X161860881Y-99076000D01*
X161735110Y-99050983D01*
X161616638Y-99001910D01*
X161616637Y-99001910D01*
X161616636Y-99001909D01*
X161510012Y-98930665D01*
X161419335Y-98839988D01*
X161348091Y-98733364D01*
X161327644Y-98684000D01*
X161299017Y-98614890D01*
X161274000Y-98489119D01*
X161274000Y-98360881D01*
X161299017Y-98235110D01*
X161348090Y-98116638D01*
X161419335Y-98010012D01*
X161510012Y-97919335D01*
X161557044Y-97887909D01*
X161616636Y-97848091D01*
X161735110Y-97799017D01*
X161860881Y-97774000D01*
X161989119Y-97774000D01*
X162114890Y-97799017D01*
X162114890Y-97799017D01*
G37*
G36*
X117654294Y-96253633D02*
G01*
X117826695Y-96305931D01*
X117985583Y-96390858D01*
X118124849Y-96505151D01*
X118239142Y-96644417D01*
X118324069Y-96803305D01*
X118376367Y-96975706D01*
X118394025Y-97155000D01*
X118376367Y-97334294D01*
X118324069Y-97506695D01*
X118239142Y-97665583D01*
X118124849Y-97804849D01*
X117985583Y-97919142D01*
X117826695Y-98004069D01*
X117654294Y-98056367D01*
X117519931Y-98069600D01*
X117430069Y-98069600D01*
X117295706Y-98056367D01*
X117123305Y-98004069D01*
X116964417Y-97919142D01*
X116825151Y-97804849D01*
X116710858Y-97665583D01*
X116625931Y-97506695D01*
X116573633Y-97334294D01*
X116555975Y-97155000D01*
X116573633Y-96975706D01*
X116625931Y-96803305D01*
X116710858Y-96644417D01*
X116825151Y-96505151D01*
X116964417Y-96390858D01*
X117123305Y-96305931D01*
X117295706Y-96253633D01*
X117430069Y-96240400D01*
X117519931Y-96240400D01*
X117654294Y-96253633D01*
X117654294Y-96253633D01*
G37*
G36*
X120194294Y-96253633D02*
G01*
X120366695Y-96305931D01*
X120525583Y-96390858D01*
X120664849Y-96505151D01*
X120779142Y-96644417D01*
X120864069Y-96803305D01*
X120916367Y-96975706D01*
X120934025Y-97155000D01*
X120916367Y-97334294D01*
X120864069Y-97506695D01*
X120779142Y-97665583D01*
X120664849Y-97804849D01*
X120525583Y-97919142D01*
X120366695Y-98004069D01*
X120194294Y-98056367D01*
X120059931Y-98069600D01*
X119970069Y-98069600D01*
X119835706Y-98056367D01*
X119663305Y-98004069D01*
X119504417Y-97919142D01*
X119365151Y-97804849D01*
X119250858Y-97665583D01*
X119165931Y-97506695D01*
X119113633Y-97334294D01*
X119095975Y-97155000D01*
X119113633Y-96975706D01*
X119165931Y-96803305D01*
X119250858Y-96644417D01*
X119365151Y-96505151D01*
X119504417Y-96390858D01*
X119663305Y-96305931D01*
X119835706Y-96253633D01*
X119970069Y-96240400D01*
X120059931Y-96240400D01*
X120194294Y-96253633D01*
X120194294Y-96253633D01*
G37*
G36*
X133572325Y-96422090D02*
G01*
X133711038Y-96479547D01*
X133835872Y-96562958D01*
X133942042Y-96669128D01*
X134025453Y-96793962D01*
X134082910Y-96932675D01*
X134112200Y-97079929D01*
X134112200Y-97230071D01*
X134082910Y-97377325D01*
X134025453Y-97516038D01*
X133942042Y-97640872D01*
X133835872Y-97747042D01*
X133711038Y-97830453D01*
X133572325Y-97887910D01*
X133425071Y-97917200D01*
X133274929Y-97917200D01*
X133127675Y-97887910D01*
X132988962Y-97830453D01*
X132864128Y-97747042D01*
X132757958Y-97640872D01*
X132674547Y-97516038D01*
X132617090Y-97377325D01*
X132587800Y-97230071D01*
X132587800Y-97079929D01*
X132617090Y-96932675D01*
X132674547Y-96793962D01*
X132757958Y-96669128D01*
X132864128Y-96562958D01*
X132988962Y-96479547D01*
X133127675Y-96422090D01*
X133274929Y-96392800D01*
X133425071Y-96392800D01*
X133572325Y-96422090D01*
X133572325Y-96422090D01*
G37*
G36*
X131032325Y-96422090D02*
G01*
X131171038Y-96479547D01*
X131295872Y-96562958D01*
X131402042Y-96669128D01*
X131485453Y-96793962D01*
X131542910Y-96932675D01*
X131572200Y-97079929D01*
X131572200Y-97230071D01*
X131542910Y-97377325D01*
X131485453Y-97516038D01*
X131402042Y-97640872D01*
X131295872Y-97747042D01*
X131171038Y-97830453D01*
X131032325Y-97887910D01*
X130885071Y-97917200D01*
X130734929Y-97917200D01*
X130587675Y-97887910D01*
X130448962Y-97830453D01*
X130324128Y-97747042D01*
X130217958Y-97640872D01*
X130134547Y-97516038D01*
X130077090Y-97377325D01*
X130047800Y-97230071D01*
X130047800Y-97079929D01*
X130077090Y-96932675D01*
X130134547Y-96793962D01*
X130217958Y-96669128D01*
X130324128Y-96562958D01*
X130448962Y-96479547D01*
X130587675Y-96422090D01*
X130734929Y-96392800D01*
X130885071Y-96392800D01*
X131032325Y-96422090D01*
X131032325Y-96422090D01*
G37*
G36*
X146272325Y-96422090D02*
G01*
X146411038Y-96479547D01*
X146535872Y-96562958D01*
X146642042Y-96669128D01*
X146725453Y-96793962D01*
X146782910Y-96932675D01*
X146812200Y-97079929D01*
X146812200Y-97230071D01*
X146782910Y-97377325D01*
X146725453Y-97516038D01*
X146642042Y-97640872D01*
X146535872Y-97747042D01*
X146411038Y-97830453D01*
X146272325Y-97887910D01*
X146125071Y-97917200D01*
X145974929Y-97917200D01*
X145827675Y-97887910D01*
X145688962Y-97830453D01*
X145564128Y-97747042D01*
X145457958Y-97640872D01*
X145374547Y-97516038D01*
X145317090Y-97377325D01*
X145287800Y-97230071D01*
X145287800Y-97079929D01*
X145317090Y-96932675D01*
X145374547Y-96793962D01*
X145457958Y-96669128D01*
X145564128Y-96562958D01*
X145688962Y-96479547D01*
X145827675Y-96422090D01*
X145974929Y-96392800D01*
X146125071Y-96392800D01*
X146272325Y-96422090D01*
X146272325Y-96422090D01*
G37*
G36*
X148812325Y-96422090D02*
G01*
X148951038Y-96479547D01*
X149075872Y-96562958D01*
X149182042Y-96669128D01*
X149265453Y-96793962D01*
X149322910Y-96932675D01*
X149352200Y-97079929D01*
X149352200Y-97230071D01*
X149322910Y-97377325D01*
X149265453Y-97516038D01*
X149182042Y-97640872D01*
X149075872Y-97747042D01*
X148951038Y-97830453D01*
X148812325Y-97887910D01*
X148665071Y-97917200D01*
X148514929Y-97917200D01*
X148367675Y-97887910D01*
X148228962Y-97830453D01*
X148104128Y-97747042D01*
X147997958Y-97640872D01*
X147914547Y-97516038D01*
X147857090Y-97377325D01*
X147827800Y-97230071D01*
X147827800Y-97079929D01*
X147857090Y-96932675D01*
X147914547Y-96793962D01*
X147997958Y-96669128D01*
X148104128Y-96562958D01*
X148228962Y-96479547D01*
X148367675Y-96422090D01*
X148514929Y-96392800D01*
X148665071Y-96392800D01*
X148812325Y-96422090D01*
X148812325Y-96422090D01*
G37*
G36*
X117654294Y-93713633D02*
G01*
X117826695Y-93765931D01*
X117985583Y-93850858D01*
X118124849Y-93965151D01*
X118239142Y-94104417D01*
X118324069Y-94263305D01*
X118376367Y-94435706D01*
X118394025Y-94615000D01*
X118376367Y-94794294D01*
X118324069Y-94966695D01*
X118239142Y-95125583D01*
X118124849Y-95264849D01*
X117985583Y-95379142D01*
X117826695Y-95464069D01*
X117654294Y-95516367D01*
X117519931Y-95529600D01*
X117430069Y-95529600D01*
X117295706Y-95516367D01*
X117123305Y-95464069D01*
X116964417Y-95379142D01*
X116825151Y-95264849D01*
X116710858Y-95125583D01*
X116625931Y-94966695D01*
X116573633Y-94794294D01*
X116555975Y-94615000D01*
X116573633Y-94435706D01*
X116625931Y-94263305D01*
X116710858Y-94104417D01*
X116825151Y-93965151D01*
X116964417Y-93850858D01*
X117123305Y-93765931D01*
X117295706Y-93713633D01*
X117430069Y-93700400D01*
X117519931Y-93700400D01*
X117654294Y-93713633D01*
X117654294Y-93713633D01*
G37*
G36*
X120194294Y-93713633D02*
G01*
X120366695Y-93765931D01*
X120525583Y-93850858D01*
X120664849Y-93965151D01*
X120779142Y-94104417D01*
X120864069Y-94263305D01*
X120916367Y-94435706D01*
X120934025Y-94615000D01*
X120916367Y-94794294D01*
X120864069Y-94966695D01*
X120779142Y-95125583D01*
X120664849Y-95264849D01*
X120525583Y-95379142D01*
X120366695Y-95464069D01*
X120194294Y-95516367D01*
X120059931Y-95529600D01*
X119970069Y-95529600D01*
X119835706Y-95516367D01*
X119663305Y-95464069D01*
X119504417Y-95379142D01*
X119365151Y-95264849D01*
X119250858Y-95125583D01*
X119165931Y-94966695D01*
X119113633Y-94794294D01*
X119095975Y-94615000D01*
X119113633Y-94435706D01*
X119165931Y-94263305D01*
X119250858Y-94104417D01*
X119365151Y-93965151D01*
X119504417Y-93850858D01*
X119663305Y-93765931D01*
X119835706Y-93713633D01*
X119970069Y-93700400D01*
X120059931Y-93700400D01*
X120194294Y-93713633D01*
X120194294Y-93713633D01*
G37*
G36*
X131032325Y-93882090D02*
G01*
X131171038Y-93939547D01*
X131295872Y-94022958D01*
X131402042Y-94129128D01*
X131485453Y-94253962D01*
X131542910Y-94392675D01*
X131572200Y-94539929D01*
X131572200Y-94690071D01*
X131542910Y-94837325D01*
X131485453Y-94976038D01*
X131402042Y-95100872D01*
X131295872Y-95207042D01*
X131171038Y-95290453D01*
X131032325Y-95347910D01*
X130885071Y-95377200D01*
X130734929Y-95377200D01*
X130587675Y-95347910D01*
X130448962Y-95290453D01*
X130324128Y-95207042D01*
X130217958Y-95100872D01*
X130134547Y-94976038D01*
X130077090Y-94837325D01*
X130047800Y-94690071D01*
X130047800Y-94539929D01*
X130077090Y-94392675D01*
X130134547Y-94253962D01*
X130217958Y-94129128D01*
X130324128Y-94022958D01*
X130448962Y-93939547D01*
X130587675Y-93882090D01*
X130734929Y-93852800D01*
X130885071Y-93852800D01*
X131032325Y-93882090D01*
X131032325Y-93882090D01*
G37*
G36*
X133572325Y-93882090D02*
G01*
X133711038Y-93939547D01*
X133835872Y-94022958D01*
X133942042Y-94129128D01*
X134025453Y-94253962D01*
X134082910Y-94392675D01*
X134112200Y-94539929D01*
X134112200Y-94690071D01*
X134082910Y-94837325D01*
X134025453Y-94976038D01*
X133942042Y-95100872D01*
X133835872Y-95207042D01*
X133711038Y-95290453D01*
X133572325Y-95347910D01*
X133425071Y-95377200D01*
X133274929Y-95377200D01*
X133127675Y-95347910D01*
X132988962Y-95290453D01*
X132864128Y-95207042D01*
X132757958Y-95100872D01*
X132674547Y-94976038D01*
X132617090Y-94837325D01*
X132587800Y-94690071D01*
X132587800Y-94539929D01*
X132617090Y-94392675D01*
X132674547Y-94253962D01*
X132757958Y-94129128D01*
X132864128Y-94022958D01*
X132988962Y-93939547D01*
X133127675Y-93882090D01*
X133274929Y-93852800D01*
X133425071Y-93852800D01*
X133572325Y-93882090D01*
X133572325Y-93882090D01*
G37*
G36*
X146272325Y-93882090D02*
G01*
X146411038Y-93939547D01*
X146535872Y-94022958D01*
X146642042Y-94129128D01*
X146725453Y-94253962D01*
X146782910Y-94392675D01*
X146812200Y-94539929D01*
X146812200Y-94690071D01*
X146782910Y-94837325D01*
X146725453Y-94976038D01*
X146642042Y-95100872D01*
X146535872Y-95207042D01*
X146411038Y-95290453D01*
X146272325Y-95347910D01*
X146125071Y-95377200D01*
X145974929Y-95377200D01*
X145827675Y-95347910D01*
X145688962Y-95290453D01*
X145564128Y-95207042D01*
X145457958Y-95100872D01*
X145374547Y-94976038D01*
X145317090Y-94837325D01*
X145287800Y-94690071D01*
X145287800Y-94539929D01*
X145317090Y-94392675D01*
X145374547Y-94253962D01*
X145457958Y-94129128D01*
X145564128Y-94022958D01*
X145688962Y-93939547D01*
X145827675Y-93882090D01*
X145974929Y-93852800D01*
X146125071Y-93852800D01*
X146272325Y-93882090D01*
X146272325Y-93882090D01*
G37*
G36*
X148812325Y-93882090D02*
G01*
X148951038Y-93939547D01*
X149075872Y-94022958D01*
X149182042Y-94129128D01*
X149265453Y-94253962D01*
X149322910Y-94392675D01*
X149352200Y-94539929D01*
X149352200Y-94690071D01*
X149322910Y-94837325D01*
X149265453Y-94976038D01*
X149182042Y-95100872D01*
X149075872Y-95207042D01*
X148951038Y-95290453D01*
X148812325Y-95347910D01*
X148665071Y-95377200D01*
X148514929Y-95377200D01*
X148367675Y-95347910D01*
X148228962Y-95290453D01*
X148104128Y-95207042D01*
X147997958Y-95100872D01*
X147914547Y-94976038D01*
X147857090Y-94837325D01*
X147827800Y-94690071D01*
X147827800Y-94539929D01*
X147857090Y-94392675D01*
X147914547Y-94253962D01*
X147997958Y-94129128D01*
X148104128Y-94022958D01*
X148228962Y-93939547D01*
X148367675Y-93882090D01*
X148514929Y-93852800D01*
X148665071Y-93852800D01*
X148812325Y-93882090D01*
X148812325Y-93882090D01*
G37*
G36*
X158895936Y-91076340D02*
G01*
X158994220Y-91086020D01*
X159183381Y-91143401D01*
X159357712Y-91236583D01*
X159510515Y-91361985D01*
X159635917Y-91514788D01*
X159729099Y-91689119D01*
X159786480Y-91878280D01*
X159805855Y-92075000D01*
X159786480Y-92271720D01*
X159729099Y-92460881D01*
X159635917Y-92635212D01*
X159510515Y-92788015D01*
X159357712Y-92913417D01*
X159183381Y-93006599D01*
X158994220Y-93063980D01*
X158895936Y-93073660D01*
X158846795Y-93078500D01*
X158653205Y-93078500D01*
X158604064Y-93073660D01*
X158505780Y-93063980D01*
X158316619Y-93006599D01*
X158142288Y-92913417D01*
X157989485Y-92788015D01*
X157864083Y-92635212D01*
X157770901Y-92460881D01*
X157713520Y-92271720D01*
X157694145Y-92075000D01*
X157713520Y-91878280D01*
X157770901Y-91689119D01*
X157864083Y-91514788D01*
X157989485Y-91361985D01*
X158142288Y-91236583D01*
X158316619Y-91143401D01*
X158505780Y-91086020D01*
X158604064Y-91076340D01*
X158653205Y-91071500D01*
X158846795Y-91071500D01*
X158895936Y-91076340D01*
X158895936Y-91076340D01*
G37*
G36*
X120194294Y-91173633D02*
G01*
X120366695Y-91225931D01*
X120525583Y-91310858D01*
X120664849Y-91425151D01*
X120779142Y-91564417D01*
X120864069Y-91723305D01*
X120916367Y-91895706D01*
X120934025Y-92075000D01*
X120916367Y-92254294D01*
X120864069Y-92426695D01*
X120779142Y-92585583D01*
X120664849Y-92724849D01*
X120525583Y-92839142D01*
X120366695Y-92924069D01*
X120194294Y-92976367D01*
X120059931Y-92989600D01*
X119970069Y-92989600D01*
X119835706Y-92976367D01*
X119663305Y-92924069D01*
X119504417Y-92839142D01*
X119365151Y-92724849D01*
X119250858Y-92585583D01*
X119165931Y-92426695D01*
X119113633Y-92254294D01*
X119095975Y-92075000D01*
X119113633Y-91895706D01*
X119165931Y-91723305D01*
X119250858Y-91564417D01*
X119365151Y-91425151D01*
X119504417Y-91310858D01*
X119663305Y-91225931D01*
X119835706Y-91173633D01*
X119970069Y-91160400D01*
X120059931Y-91160400D01*
X120194294Y-91173633D01*
X120194294Y-91173633D01*
G37*
G36*
X117654294Y-91173633D02*
G01*
X117826695Y-91225931D01*
X117985583Y-91310858D01*
X118124849Y-91425151D01*
X118239142Y-91564417D01*
X118324069Y-91723305D01*
X118376367Y-91895706D01*
X118394025Y-92075000D01*
X118376367Y-92254294D01*
X118324069Y-92426695D01*
X118239142Y-92585583D01*
X118124849Y-92724849D01*
X117985583Y-92839142D01*
X117826695Y-92924069D01*
X117654294Y-92976367D01*
X117519931Y-92989600D01*
X117430069Y-92989600D01*
X117295706Y-92976367D01*
X117123305Y-92924069D01*
X116964417Y-92839142D01*
X116825151Y-92724849D01*
X116710858Y-92585583D01*
X116625931Y-92426695D01*
X116573633Y-92254294D01*
X116555975Y-92075000D01*
X116573633Y-91895706D01*
X116625931Y-91723305D01*
X116710858Y-91564417D01*
X116825151Y-91425151D01*
X116964417Y-91310858D01*
X117123305Y-91225931D01*
X117295706Y-91173633D01*
X117430069Y-91160400D01*
X117519931Y-91160400D01*
X117654294Y-91173633D01*
X117654294Y-91173633D01*
G37*
G36*
X153918228Y-91251703D02*
G01*
X154073100Y-91315853D01*
X154212481Y-91408985D01*
X154331015Y-91527519D01*
X154424147Y-91666900D01*
X154488297Y-91821772D01*
X154521000Y-91986184D01*
X154521000Y-92153816D01*
X154488297Y-92318228D01*
X154424147Y-92473100D01*
X154331015Y-92612481D01*
X154212481Y-92731015D01*
X154073100Y-92824147D01*
X153918228Y-92888297D01*
X153753816Y-92921000D01*
X153586184Y-92921000D01*
X153421772Y-92888297D01*
X153266900Y-92824147D01*
X153127519Y-92731015D01*
X153008985Y-92612481D01*
X152915853Y-92473100D01*
X152851703Y-92318228D01*
X152819000Y-92153816D01*
X152819000Y-91986184D01*
X152851703Y-91821772D01*
X152915853Y-91666900D01*
X153008985Y-91527519D01*
X153127519Y-91408985D01*
X153266900Y-91315853D01*
X153421772Y-91251703D01*
X153586184Y-91219000D01*
X153753816Y-91219000D01*
X153918228Y-91251703D01*
X153918228Y-91251703D01*
G37*
G36*
X133572325Y-91342090D02*
G01*
X133711038Y-91399547D01*
X133835872Y-91482958D01*
X133942042Y-91589128D01*
X134025453Y-91713962D01*
X134082910Y-91852675D01*
X134112200Y-91999929D01*
X134112200Y-92150071D01*
X134082910Y-92297325D01*
X134025453Y-92436038D01*
X133942042Y-92560872D01*
X133835872Y-92667042D01*
X133711038Y-92750453D01*
X133572325Y-92807910D01*
X133425071Y-92837200D01*
X133274929Y-92837200D01*
X133127675Y-92807910D01*
X132988962Y-92750453D01*
X132864128Y-92667042D01*
X132757958Y-92560872D01*
X132674547Y-92436038D01*
X132617090Y-92297325D01*
X132587800Y-92150071D01*
X132587800Y-91999929D01*
X132617090Y-91852675D01*
X132674547Y-91713962D01*
X132757958Y-91589128D01*
X132864128Y-91482958D01*
X132988962Y-91399547D01*
X133127675Y-91342090D01*
X133274929Y-91312800D01*
X133425071Y-91312800D01*
X133572325Y-91342090D01*
X133572325Y-91342090D01*
G37*
G36*
X148812325Y-91342090D02*
G01*
X148951038Y-91399547D01*
X149075872Y-91482958D01*
X149182042Y-91589128D01*
X149265453Y-91713962D01*
X149322910Y-91852675D01*
X149352200Y-91999929D01*
X149352200Y-92150071D01*
X149322910Y-92297325D01*
X149265453Y-92436038D01*
X149182042Y-92560872D01*
X149075872Y-92667042D01*
X148951038Y-92750453D01*
X148812325Y-92807910D01*
X148665071Y-92837200D01*
X148514929Y-92837200D01*
X148367675Y-92807910D01*
X148228962Y-92750453D01*
X148104128Y-92667042D01*
X147997958Y-92560872D01*
X147914547Y-92436038D01*
X147857090Y-92297325D01*
X147827800Y-92150071D01*
X147827800Y-91999929D01*
X147857090Y-91852675D01*
X147914547Y-91713962D01*
X147997958Y-91589128D01*
X148104128Y-91482958D01*
X148228962Y-91399547D01*
X148367675Y-91342090D01*
X148514929Y-91312800D01*
X148665071Y-91312800D01*
X148812325Y-91342090D01*
X148812325Y-91342090D01*
G37*
G36*
X146272325Y-91342090D02*
G01*
X146411038Y-91399547D01*
X146535872Y-91482958D01*
X146642042Y-91589128D01*
X146725453Y-91713962D01*
X146782910Y-91852675D01*
X146812200Y-91999929D01*
X146812200Y-92150071D01*
X146782910Y-92297325D01*
X146725453Y-92436038D01*
X146642042Y-92560872D01*
X146535872Y-92667042D01*
X146411038Y-92750453D01*
X146272325Y-92807910D01*
X146125071Y-92837200D01*
X145974929Y-92837200D01*
X145827675Y-92807910D01*
X145688962Y-92750453D01*
X145564128Y-92667042D01*
X145457958Y-92560872D01*
X145374547Y-92436038D01*
X145317090Y-92297325D01*
X145287800Y-92150071D01*
X145287800Y-91999929D01*
X145317090Y-91852675D01*
X145374547Y-91713962D01*
X145457958Y-91589128D01*
X145564128Y-91482958D01*
X145688962Y-91399547D01*
X145827675Y-91342090D01*
X145974929Y-91312800D01*
X146125071Y-91312800D01*
X146272325Y-91342090D01*
X146272325Y-91342090D01*
G37*
G36*
X131032325Y-91342090D02*
G01*
X131171038Y-91399547D01*
X131295872Y-91482958D01*
X131402042Y-91589128D01*
X131485453Y-91713962D01*
X131542910Y-91852675D01*
X131572200Y-91999929D01*
X131572200Y-92150071D01*
X131542910Y-92297325D01*
X131485453Y-92436038D01*
X131402042Y-92560872D01*
X131295872Y-92667042D01*
X131171038Y-92750453D01*
X131032325Y-92807910D01*
X130885071Y-92837200D01*
X130734929Y-92837200D01*
X130587675Y-92807910D01*
X130448962Y-92750453D01*
X130324128Y-92667042D01*
X130217958Y-92560872D01*
X130134547Y-92436038D01*
X130077090Y-92297325D01*
X130047800Y-92150071D01*
X130047800Y-91999929D01*
X130077090Y-91852675D01*
X130134547Y-91713962D01*
X130217958Y-91589128D01*
X130324128Y-91482958D01*
X130448962Y-91399547D01*
X130587675Y-91342090D01*
X130734929Y-91312800D01*
X130885071Y-91312800D01*
X131032325Y-91342090D01*
X131032325Y-91342090D01*
G37*
G36*
X175586669Y-87742686D02*
G01*
X175763058Y-87760059D01*
X176102548Y-87863042D01*
X176102550Y-87863043D01*
X176415422Y-88030277D01*
X176689661Y-88255339D01*
X176914723Y-88529578D01*
X177071018Y-88821985D01*
X177081958Y-88842452D01*
X177184941Y-89181942D01*
X177219714Y-89535000D01*
X177184941Y-89888058D01*
X177081958Y-90227548D01*
X177081957Y-90227550D01*
X176914723Y-90540422D01*
X176689661Y-90814661D01*
X176415422Y-91039723D01*
X176164893Y-91173634D01*
X176102548Y-91206958D01*
X175763058Y-91309941D01*
X175586669Y-91327314D01*
X175498476Y-91336000D01*
X175321524Y-91336000D01*
X175233331Y-91327314D01*
X175056942Y-91309941D01*
X174717452Y-91206958D01*
X174655107Y-91173634D01*
X174404578Y-91039723D01*
X174130339Y-90814661D01*
X173905277Y-90540422D01*
X173738043Y-90227550D01*
X173738042Y-90227548D01*
X173635059Y-89888058D01*
X173600286Y-89535000D01*
X173635059Y-89181942D01*
X173738042Y-88842452D01*
X173748982Y-88821985D01*
X173905277Y-88529578D01*
X174130339Y-88255339D01*
X174404578Y-88030277D01*
X174717450Y-87863043D01*
X174717452Y-87863042D01*
X175056942Y-87760059D01*
X175233331Y-87742686D01*
X175321524Y-87734000D01*
X175498476Y-87734000D01*
X175586669Y-87742686D01*
X175586669Y-87742686D01*
G37*
G36*
X158895936Y-88536340D02*
G01*
X158994220Y-88546020D01*
X159183381Y-88603401D01*
X159357712Y-88696583D01*
X159510515Y-88821985D01*
X159635917Y-88974788D01*
X159729099Y-89149119D01*
X159786480Y-89338280D01*
X159805855Y-89535000D01*
X159786480Y-89731720D01*
X159729099Y-89920881D01*
X159635917Y-90095212D01*
X159510515Y-90248015D01*
X159357712Y-90373417D01*
X159183381Y-90466599D01*
X158994220Y-90523980D01*
X158895936Y-90533660D01*
X158846795Y-90538500D01*
X158653205Y-90538500D01*
X158604064Y-90533660D01*
X158505780Y-90523980D01*
X158316619Y-90466599D01*
X158142288Y-90373417D01*
X157989485Y-90248015D01*
X157864083Y-90095212D01*
X157770901Y-89920881D01*
X157713520Y-89731720D01*
X157694145Y-89535000D01*
X157713520Y-89338280D01*
X157770901Y-89149119D01*
X157864083Y-88974788D01*
X157989485Y-88821985D01*
X158142288Y-88696583D01*
X158316619Y-88603401D01*
X158505780Y-88546020D01*
X158604064Y-88536340D01*
X158653205Y-88531500D01*
X158846795Y-88531500D01*
X158895936Y-88536340D01*
X158895936Y-88536340D01*
G37*
G36*
X117654294Y-88633633D02*
G01*
X117826695Y-88685931D01*
X117985583Y-88770858D01*
X118124849Y-88885151D01*
X118239142Y-89024417D01*
X118324069Y-89183305D01*
X118376367Y-89355706D01*
X118394025Y-89535000D01*
X118376367Y-89714294D01*
X118324069Y-89886695D01*
X118239142Y-90045583D01*
X118124849Y-90184849D01*
X117985583Y-90299142D01*
X117826695Y-90384069D01*
X117654294Y-90436367D01*
X117519931Y-90449600D01*
X117430069Y-90449600D01*
X117295706Y-90436367D01*
X117123305Y-90384069D01*
X116964417Y-90299142D01*
X116825151Y-90184849D01*
X116710858Y-90045583D01*
X116625931Y-89886695D01*
X116573633Y-89714294D01*
X116555975Y-89535000D01*
X116573633Y-89355706D01*
X116625931Y-89183305D01*
X116710858Y-89024417D01*
X116825151Y-88885151D01*
X116964417Y-88770858D01*
X117123305Y-88685931D01*
X117295706Y-88633633D01*
X117430069Y-88620400D01*
X117519931Y-88620400D01*
X117654294Y-88633633D01*
X117654294Y-88633633D01*
G37*
G36*
X120194294Y-88633633D02*
G01*
X120366695Y-88685931D01*
X120525583Y-88770858D01*
X120664849Y-88885151D01*
X120779142Y-89024417D01*
X120864069Y-89183305D01*
X120916367Y-89355706D01*
X120934025Y-89535000D01*
X120916367Y-89714294D01*
X120864069Y-89886695D01*
X120779142Y-90045583D01*
X120664849Y-90184849D01*
X120525583Y-90299142D01*
X120366695Y-90384069D01*
X120194294Y-90436367D01*
X120059931Y-90449600D01*
X119970069Y-90449600D01*
X119835706Y-90436367D01*
X119663305Y-90384069D01*
X119504417Y-90299142D01*
X119365151Y-90184849D01*
X119250858Y-90045583D01*
X119165931Y-89886695D01*
X119113633Y-89714294D01*
X119095975Y-89535000D01*
X119113633Y-89355706D01*
X119165931Y-89183305D01*
X119250858Y-89024417D01*
X119365151Y-88885151D01*
X119504417Y-88770858D01*
X119663305Y-88685931D01*
X119835706Y-88633633D01*
X119970069Y-88620400D01*
X120059931Y-88620400D01*
X120194294Y-88633633D01*
X120194294Y-88633633D01*
G37*
G36*
X125978228Y-88716703D02*
G01*
X126133100Y-88780853D01*
X126272481Y-88873985D01*
X126391015Y-88992519D01*
X126484147Y-89131900D01*
X126548297Y-89286772D01*
X126581000Y-89451184D01*
X126581000Y-89618816D01*
X126548297Y-89783228D01*
X126484147Y-89938100D01*
X126391015Y-90077481D01*
X126272481Y-90196015D01*
X126133100Y-90289147D01*
X125978228Y-90353297D01*
X125813816Y-90386000D01*
X125646184Y-90386000D01*
X125481772Y-90353297D01*
X125326900Y-90289147D01*
X125187519Y-90196015D01*
X125068985Y-90077481D01*
X124975853Y-89938100D01*
X124911703Y-89783228D01*
X124879000Y-89618816D01*
X124879000Y-89451184D01*
X124911703Y-89286772D01*
X124975853Y-89131900D01*
X125068985Y-88992519D01*
X125187519Y-88873985D01*
X125326900Y-88780853D01*
X125481772Y-88716703D01*
X125646184Y-88684000D01*
X125813816Y-88684000D01*
X125978228Y-88716703D01*
X125978228Y-88716703D01*
G37*
G36*
X131032325Y-88802090D02*
G01*
X131171038Y-88859547D01*
X131295872Y-88942958D01*
X131402042Y-89049128D01*
X131485453Y-89173962D01*
X131542910Y-89312675D01*
X131572200Y-89459929D01*
X131572200Y-89610071D01*
X131542910Y-89757325D01*
X131485453Y-89896038D01*
X131402042Y-90020872D01*
X131295872Y-90127042D01*
X131171038Y-90210453D01*
X131032325Y-90267910D01*
X130885071Y-90297200D01*
X130734929Y-90297200D01*
X130587675Y-90267910D01*
X130448962Y-90210453D01*
X130324128Y-90127042D01*
X130217958Y-90020872D01*
X130134547Y-89896038D01*
X130077090Y-89757325D01*
X130047800Y-89610071D01*
X130047800Y-89459929D01*
X130077090Y-89312675D01*
X130134547Y-89173962D01*
X130217958Y-89049128D01*
X130324128Y-88942958D01*
X130448962Y-88859547D01*
X130587675Y-88802090D01*
X130734929Y-88772800D01*
X130885071Y-88772800D01*
X131032325Y-88802090D01*
X131032325Y-88802090D01*
G37*
G36*
X148812325Y-88802090D02*
G01*
X148951038Y-88859547D01*
X149075872Y-88942958D01*
X149182042Y-89049128D01*
X149265453Y-89173962D01*
X149322910Y-89312675D01*
X149352200Y-89459929D01*
X149352200Y-89610071D01*
X149322910Y-89757325D01*
X149265453Y-89896038D01*
X149182042Y-90020872D01*
X149075872Y-90127042D01*
X148951038Y-90210453D01*
X148812325Y-90267910D01*
X148665071Y-90297200D01*
X148514929Y-90297200D01*
X148367675Y-90267910D01*
X148228962Y-90210453D01*
X148104128Y-90127042D01*
X147997958Y-90020872D01*
X147914547Y-89896038D01*
X147857090Y-89757325D01*
X147827800Y-89610071D01*
X147827800Y-89459929D01*
X147857090Y-89312675D01*
X147914547Y-89173962D01*
X147997958Y-89049128D01*
X148104128Y-88942958D01*
X148228962Y-88859547D01*
X148367675Y-88802090D01*
X148514929Y-88772800D01*
X148665071Y-88772800D01*
X148812325Y-88802090D01*
X148812325Y-88802090D01*
G37*
G36*
X146272325Y-88802090D02*
G01*
X146411038Y-88859547D01*
X146535872Y-88942958D01*
X146642042Y-89049128D01*
X146725453Y-89173962D01*
X146782910Y-89312675D01*
X146812200Y-89459929D01*
X146812200Y-89610071D01*
X146782910Y-89757325D01*
X146725453Y-89896038D01*
X146642042Y-90020872D01*
X146535872Y-90127042D01*
X146411038Y-90210453D01*
X146272325Y-90267910D01*
X146125071Y-90297200D01*
X145974929Y-90297200D01*
X145827675Y-90267910D01*
X145688962Y-90210453D01*
X145564128Y-90127042D01*
X145457958Y-90020872D01*
X145374547Y-89896038D01*
X145317090Y-89757325D01*
X145287800Y-89610071D01*
X145287800Y-89459929D01*
X145317090Y-89312675D01*
X145374547Y-89173962D01*
X145457958Y-89049128D01*
X145564128Y-88942958D01*
X145688962Y-88859547D01*
X145827675Y-88802090D01*
X145974929Y-88772800D01*
X146125071Y-88772800D01*
X146272325Y-88802090D01*
X146272325Y-88802090D01*
G37*
G36*
X133572325Y-88802090D02*
G01*
X133711038Y-88859547D01*
X133835872Y-88942958D01*
X133942042Y-89049128D01*
X134025453Y-89173962D01*
X134082910Y-89312675D01*
X134112200Y-89459929D01*
X134112200Y-89610071D01*
X134082910Y-89757325D01*
X134025453Y-89896038D01*
X133942042Y-90020872D01*
X133835872Y-90127042D01*
X133711038Y-90210453D01*
X133572325Y-90267910D01*
X133425071Y-90297200D01*
X133274929Y-90297200D01*
X133127675Y-90267910D01*
X132988962Y-90210453D01*
X132864128Y-90127042D01*
X132757958Y-90020872D01*
X132674547Y-89896038D01*
X132617090Y-89757325D01*
X132587800Y-89610071D01*
X132587800Y-89459929D01*
X132617090Y-89312675D01*
X132674547Y-89173962D01*
X132757958Y-89049128D01*
X132864128Y-88942958D01*
X132988962Y-88859547D01*
X133127675Y-88802090D01*
X133274929Y-88772800D01*
X133425071Y-88772800D01*
X133572325Y-88802090D01*
X133572325Y-88802090D01*
G37*
G36*
X159801000Y-87998500D02*
G01*
X157699000Y-87998500D01*
X157699000Y-85991500D01*
X159801000Y-85991500D01*
X159801000Y-87998500D01*
X159801000Y-87998500D01*
G37*
G36*
X118389600Y-87909600D02*
G01*
X116560400Y-87909600D01*
X116560400Y-86080400D01*
X118389600Y-86080400D01*
X118389600Y-87909600D01*
X118389600Y-87909600D01*
G37*
G36*
X120194294Y-86093633D02*
G01*
X120366695Y-86145931D01*
X120525583Y-86230858D01*
X120664849Y-86345151D01*
X120779142Y-86484417D01*
X120864069Y-86643305D01*
X120916367Y-86815706D01*
X120934025Y-86995000D01*
X120916367Y-87174294D01*
X120864069Y-87346695D01*
X120779142Y-87505583D01*
X120664849Y-87644849D01*
X120525583Y-87759142D01*
X120366695Y-87844069D01*
X120194294Y-87896367D01*
X120059931Y-87909600D01*
X119970069Y-87909600D01*
X119835706Y-87896367D01*
X119663305Y-87844069D01*
X119504417Y-87759142D01*
X119365151Y-87644849D01*
X119250858Y-87505583D01*
X119165931Y-87346695D01*
X119113633Y-87174294D01*
X119095975Y-86995000D01*
X119113633Y-86815706D01*
X119165931Y-86643305D01*
X119250858Y-86484417D01*
X119365151Y-86345151D01*
X119504417Y-86230858D01*
X119663305Y-86145931D01*
X119835706Y-86093633D01*
X119970069Y-86080400D01*
X120059931Y-86080400D01*
X120194294Y-86093633D01*
X120194294Y-86093633D01*
G37*
G36*
X131032325Y-86262090D02*
G01*
X131171038Y-86319547D01*
X131295872Y-86402958D01*
X131402042Y-86509128D01*
X131485453Y-86633962D01*
X131542910Y-86772675D01*
X131572200Y-86919929D01*
X131572200Y-87070071D01*
X131542910Y-87217325D01*
X131485453Y-87356038D01*
X131402042Y-87480872D01*
X131295872Y-87587042D01*
X131171038Y-87670453D01*
X131032325Y-87727910D01*
X130885071Y-87757200D01*
X130734929Y-87757200D01*
X130587675Y-87727910D01*
X130448962Y-87670453D01*
X130324128Y-87587042D01*
X130217958Y-87480872D01*
X130134547Y-87356038D01*
X130077090Y-87217325D01*
X130047800Y-87070071D01*
X130047800Y-86919929D01*
X130077090Y-86772675D01*
X130134547Y-86633962D01*
X130217958Y-86509128D01*
X130324128Y-86402958D01*
X130448962Y-86319547D01*
X130587675Y-86262090D01*
X130734929Y-86232800D01*
X130885071Y-86232800D01*
X131032325Y-86262090D01*
X131032325Y-86262090D01*
G37*
G36*
X133572325Y-86262090D02*
G01*
X133711038Y-86319547D01*
X133835872Y-86402958D01*
X133942042Y-86509128D01*
X134025453Y-86633962D01*
X134082910Y-86772675D01*
X134112200Y-86919929D01*
X134112200Y-87070071D01*
X134082910Y-87217325D01*
X134025453Y-87356038D01*
X133942042Y-87480872D01*
X133835872Y-87587042D01*
X133711038Y-87670453D01*
X133572325Y-87727910D01*
X133425071Y-87757200D01*
X133274929Y-87757200D01*
X133127675Y-87727910D01*
X132988962Y-87670453D01*
X132864128Y-87587042D01*
X132757958Y-87480872D01*
X132674547Y-87356038D01*
X132617090Y-87217325D01*
X132587800Y-87070071D01*
X132587800Y-86919929D01*
X132617090Y-86772675D01*
X132674547Y-86633962D01*
X132757958Y-86509128D01*
X132864128Y-86402958D01*
X132988962Y-86319547D01*
X133127675Y-86262090D01*
X133274929Y-86232800D01*
X133425071Y-86232800D01*
X133572325Y-86262090D01*
X133572325Y-86262090D01*
G37*
G36*
X136112325Y-86262090D02*
G01*
X136251038Y-86319547D01*
X136375872Y-86402958D01*
X136482042Y-86509128D01*
X136565453Y-86633962D01*
X136622910Y-86772675D01*
X136652200Y-86919929D01*
X136652200Y-87070071D01*
X136622910Y-87217325D01*
X136565453Y-87356038D01*
X136482042Y-87480872D01*
X136375872Y-87587042D01*
X136251038Y-87670453D01*
X136112325Y-87727910D01*
X135965071Y-87757200D01*
X135814929Y-87757200D01*
X135667675Y-87727910D01*
X135528962Y-87670453D01*
X135404128Y-87587042D01*
X135297958Y-87480872D01*
X135214547Y-87356038D01*
X135157090Y-87217325D01*
X135127800Y-87070071D01*
X135127800Y-86919929D01*
X135157090Y-86772675D01*
X135214547Y-86633962D01*
X135297958Y-86509128D01*
X135404128Y-86402958D01*
X135528962Y-86319547D01*
X135667675Y-86262090D01*
X135814929Y-86232800D01*
X135965071Y-86232800D01*
X136112325Y-86262090D01*
X136112325Y-86262090D01*
G37*
G36*
X141732200Y-87757200D02*
G01*
X140207800Y-87757200D01*
X140207800Y-86232800D01*
X141732200Y-86232800D01*
X141732200Y-87757200D01*
X141732200Y-87757200D01*
G37*
G36*
X146272325Y-86262090D02*
G01*
X146411038Y-86319547D01*
X146535872Y-86402958D01*
X146642042Y-86509128D01*
X146725453Y-86633962D01*
X146782910Y-86772675D01*
X146812200Y-86919929D01*
X146812200Y-87070071D01*
X146782910Y-87217325D01*
X146725453Y-87356038D01*
X146642042Y-87480872D01*
X146535872Y-87587042D01*
X146411038Y-87670453D01*
X146272325Y-87727910D01*
X146125071Y-87757200D01*
X145974929Y-87757200D01*
X145827675Y-87727910D01*
X145688962Y-87670453D01*
X145564128Y-87587042D01*
X145457958Y-87480872D01*
X145374547Y-87356038D01*
X145317090Y-87217325D01*
X145287800Y-87070071D01*
X145287800Y-86919929D01*
X145317090Y-86772675D01*
X145374547Y-86633962D01*
X145457958Y-86509128D01*
X145564128Y-86402958D01*
X145688962Y-86319547D01*
X145827675Y-86262090D01*
X145974929Y-86232800D01*
X146125071Y-86232800D01*
X146272325Y-86262090D01*
X146272325Y-86262090D01*
G37*
G36*
X143732325Y-86262090D02*
G01*
X143871038Y-86319547D01*
X143995872Y-86402958D01*
X144102042Y-86509128D01*
X144185453Y-86633962D01*
X144242910Y-86772675D01*
X144272200Y-86919929D01*
X144272200Y-87070071D01*
X144242910Y-87217325D01*
X144185453Y-87356038D01*
X144102042Y-87480872D01*
X143995872Y-87587042D01*
X143871038Y-87670453D01*
X143732325Y-87727910D01*
X143585071Y-87757200D01*
X143434929Y-87757200D01*
X143287675Y-87727910D01*
X143148962Y-87670453D01*
X143024128Y-87587042D01*
X142917958Y-87480872D01*
X142834547Y-87356038D01*
X142777090Y-87217325D01*
X142747800Y-87070071D01*
X142747800Y-86919929D01*
X142777090Y-86772675D01*
X142834547Y-86633962D01*
X142917958Y-86509128D01*
X143024128Y-86402958D01*
X143148962Y-86319547D01*
X143287675Y-86262090D01*
X143434929Y-86232800D01*
X143585071Y-86232800D01*
X143732325Y-86262090D01*
X143732325Y-86262090D01*
G37*
G36*
X138652325Y-86262090D02*
G01*
X138791038Y-86319547D01*
X138915872Y-86402958D01*
X139022042Y-86509128D01*
X139105453Y-86633962D01*
X139162910Y-86772675D01*
X139192200Y-86919929D01*
X139192200Y-87070071D01*
X139162910Y-87217325D01*
X139105453Y-87356038D01*
X139022042Y-87480872D01*
X138915872Y-87587042D01*
X138791038Y-87670453D01*
X138652325Y-87727910D01*
X138505071Y-87757200D01*
X138354929Y-87757200D01*
X138207675Y-87727910D01*
X138068962Y-87670453D01*
X137944128Y-87587042D01*
X137837958Y-87480872D01*
X137754547Y-87356038D01*
X137697090Y-87217325D01*
X137667800Y-87070071D01*
X137667800Y-86919929D01*
X137697090Y-86772675D01*
X137754547Y-86633962D01*
X137837958Y-86509128D01*
X137944128Y-86402958D01*
X138068962Y-86319547D01*
X138207675Y-86262090D01*
X138354929Y-86232800D01*
X138505071Y-86232800D01*
X138652325Y-86262090D01*
X138652325Y-86262090D01*
G37*
G36*
X148812325Y-86262090D02*
G01*
X148951038Y-86319547D01*
X149075872Y-86402958D01*
X149182042Y-86509128D01*
X149265453Y-86633962D01*
X149322910Y-86772675D01*
X149352200Y-86919929D01*
X149352200Y-87070071D01*
X149322910Y-87217325D01*
X149265453Y-87356038D01*
X149182042Y-87480872D01*
X149075872Y-87587042D01*
X148951038Y-87670453D01*
X148812325Y-87727910D01*
X148665071Y-87757200D01*
X148514929Y-87757200D01*
X148367675Y-87727910D01*
X148228962Y-87670453D01*
X148104128Y-87587042D01*
X147997958Y-87480872D01*
X147914547Y-87356038D01*
X147857090Y-87217325D01*
X147827800Y-87070071D01*
X147827800Y-86919929D01*
X147857090Y-86772675D01*
X147914547Y-86633962D01*
X147997958Y-86509128D01*
X148104128Y-86402958D01*
X148228962Y-86319547D01*
X148367675Y-86262090D01*
X148514929Y-86232800D01*
X148665071Y-86232800D01*
X148812325Y-86262090D01*
X148812325Y-86262090D01*
G37*
G36*
X146272325Y-83722090D02*
G01*
X146411038Y-83779547D01*
X146535872Y-83862958D01*
X146642042Y-83969128D01*
X146725453Y-84093962D01*
X146782910Y-84232675D01*
X146812200Y-84379929D01*
X146812200Y-84530071D01*
X146782910Y-84677325D01*
X146725453Y-84816038D01*
X146642042Y-84940872D01*
X146535872Y-85047042D01*
X146411038Y-85130453D01*
X146272325Y-85187910D01*
X146125071Y-85217200D01*
X145974929Y-85217200D01*
X145827675Y-85187910D01*
X145688962Y-85130453D01*
X145564128Y-85047042D01*
X145457958Y-84940872D01*
X145374547Y-84816038D01*
X145317090Y-84677325D01*
X145287800Y-84530071D01*
X145287800Y-84379929D01*
X145317090Y-84232675D01*
X145374547Y-84093962D01*
X145457958Y-83969128D01*
X145564128Y-83862958D01*
X145688962Y-83779547D01*
X145827675Y-83722090D01*
X145974929Y-83692800D01*
X146125071Y-83692800D01*
X146272325Y-83722090D01*
X146272325Y-83722090D01*
G37*
G36*
X143732325Y-83722090D02*
G01*
X143871038Y-83779547D01*
X143995872Y-83862958D01*
X144102042Y-83969128D01*
X144185453Y-84093962D01*
X144242910Y-84232675D01*
X144272200Y-84379929D01*
X144272200Y-84530071D01*
X144242910Y-84677325D01*
X144185453Y-84816038D01*
X144102042Y-84940872D01*
X143995872Y-85047042D01*
X143871038Y-85130453D01*
X143732325Y-85187910D01*
X143585071Y-85217200D01*
X143434929Y-85217200D01*
X143287675Y-85187910D01*
X143148962Y-85130453D01*
X143024128Y-85047042D01*
X142917958Y-84940872D01*
X142834547Y-84816038D01*
X142777090Y-84677325D01*
X142747800Y-84530071D01*
X142747800Y-84379929D01*
X142777090Y-84232675D01*
X142834547Y-84093962D01*
X142917958Y-83969128D01*
X143024128Y-83862958D01*
X143148962Y-83779547D01*
X143287675Y-83722090D01*
X143434929Y-83692800D01*
X143585071Y-83692800D01*
X143732325Y-83722090D01*
X143732325Y-83722090D01*
G37*
G36*
X133572325Y-83722090D02*
G01*
X133711038Y-83779547D01*
X133835872Y-83862958D01*
X133942042Y-83969128D01*
X134025453Y-84093962D01*
X134082910Y-84232675D01*
X134112200Y-84379929D01*
X134112200Y-84530071D01*
X134082910Y-84677325D01*
X134025453Y-84816038D01*
X133942042Y-84940872D01*
X133835872Y-85047042D01*
X133711038Y-85130453D01*
X133572325Y-85187910D01*
X133425071Y-85217200D01*
X133274929Y-85217200D01*
X133127675Y-85187910D01*
X132988962Y-85130453D01*
X132864128Y-85047042D01*
X132757958Y-84940872D01*
X132674547Y-84816038D01*
X132617090Y-84677325D01*
X132587800Y-84530071D01*
X132587800Y-84379929D01*
X132617090Y-84232675D01*
X132674547Y-84093962D01*
X132757958Y-83969128D01*
X132864128Y-83862958D01*
X132988962Y-83779547D01*
X133127675Y-83722090D01*
X133274929Y-83692800D01*
X133425071Y-83692800D01*
X133572325Y-83722090D01*
X133572325Y-83722090D01*
G37*
G36*
X136112325Y-83722090D02*
G01*
X136251038Y-83779547D01*
X136375872Y-83862958D01*
X136482042Y-83969128D01*
X136565453Y-84093962D01*
X136622910Y-84232675D01*
X136652200Y-84379929D01*
X136652200Y-84530071D01*
X136622910Y-84677325D01*
X136565453Y-84816038D01*
X136482042Y-84940872D01*
X136375872Y-85047042D01*
X136251038Y-85130453D01*
X136112325Y-85187910D01*
X135965071Y-85217200D01*
X135814929Y-85217200D01*
X135667675Y-85187910D01*
X135528962Y-85130453D01*
X135404128Y-85047042D01*
X135297958Y-84940872D01*
X135214547Y-84816038D01*
X135157090Y-84677325D01*
X135127800Y-84530071D01*
X135127800Y-84379929D01*
X135157090Y-84232675D01*
X135214547Y-84093962D01*
X135297958Y-83969128D01*
X135404128Y-83862958D01*
X135528962Y-83779547D01*
X135667675Y-83722090D01*
X135814929Y-83692800D01*
X135965071Y-83692800D01*
X136112325Y-83722090D01*
X136112325Y-83722090D01*
G37*
G36*
X138652325Y-83722090D02*
G01*
X138791038Y-83779547D01*
X138915872Y-83862958D01*
X139022042Y-83969128D01*
X139105453Y-84093962D01*
X139162910Y-84232675D01*
X139192200Y-84379929D01*
X139192200Y-84530071D01*
X139162910Y-84677325D01*
X139105453Y-84816038D01*
X139022042Y-84940872D01*
X138915872Y-85047042D01*
X138791038Y-85130453D01*
X138652325Y-85187910D01*
X138505071Y-85217200D01*
X138354929Y-85217200D01*
X138207675Y-85187910D01*
X138068962Y-85130453D01*
X137944128Y-85047042D01*
X137837958Y-84940872D01*
X137754547Y-84816038D01*
X137697090Y-84677325D01*
X137667800Y-84530071D01*
X137667800Y-84379929D01*
X137697090Y-84232675D01*
X137754547Y-84093962D01*
X137837958Y-83969128D01*
X137944128Y-83862958D01*
X138068962Y-83779547D01*
X138207675Y-83722090D01*
X138354929Y-83692800D01*
X138505071Y-83692800D01*
X138652325Y-83722090D01*
X138652325Y-83722090D01*
G37*
G36*
X141192325Y-83722090D02*
G01*
X141331038Y-83779547D01*
X141455872Y-83862958D01*
X141562042Y-83969128D01*
X141645453Y-84093962D01*
X141702910Y-84232675D01*
X141732200Y-84379929D01*
X141732200Y-84530071D01*
X141702910Y-84677325D01*
X141645453Y-84816038D01*
X141562042Y-84940872D01*
X141455872Y-85047042D01*
X141331038Y-85130453D01*
X141192325Y-85187910D01*
X141045071Y-85217200D01*
X140894929Y-85217200D01*
X140747675Y-85187910D01*
X140608962Y-85130453D01*
X140484128Y-85047042D01*
X140377958Y-84940872D01*
X140294547Y-84816038D01*
X140237090Y-84677325D01*
X140207800Y-84530071D01*
X140207800Y-84379929D01*
X140237090Y-84232675D01*
X140294547Y-84093962D01*
X140377958Y-83969128D01*
X140484128Y-83862958D01*
X140608962Y-83779547D01*
X140747675Y-83722090D01*
X140894929Y-83692800D01*
X141045071Y-83692800D01*
X141192325Y-83722090D01*
X141192325Y-83722090D01*
G37*
G36*
X153836823Y-81231313D02*
G01*
X153997242Y-81279976D01*
X154129906Y-81350886D01*
X154145078Y-81358996D01*
X154274659Y-81465341D01*
X154381004Y-81594922D01*
X154381005Y-81594924D01*
X154460024Y-81742758D01*
X154508687Y-81903177D01*
X154525117Y-82070000D01*
X154508687Y-82236823D01*
X154460024Y-82397242D01*
X154389114Y-82529906D01*
X154381004Y-82545078D01*
X154274659Y-82674659D01*
X154145078Y-82781004D01*
X154145076Y-82781005D01*
X153997242Y-82860024D01*
X153836823Y-82908687D01*
X153711804Y-82921000D01*
X153628196Y-82921000D01*
X153503177Y-82908687D01*
X153342758Y-82860024D01*
X153194924Y-82781005D01*
X153194922Y-82781004D01*
X153065341Y-82674659D01*
X152958996Y-82545078D01*
X152950886Y-82529906D01*
X152879976Y-82397242D01*
X152831313Y-82236823D01*
X152814883Y-82070000D01*
X152831313Y-81903177D01*
X152879976Y-81742758D01*
X152958995Y-81594924D01*
X152958996Y-81594922D01*
X153065341Y-81465341D01*
X153194922Y-81358996D01*
X153210094Y-81350886D01*
X153342758Y-81279976D01*
X153503177Y-81231313D01*
X153628196Y-81219000D01*
X153711804Y-81219000D01*
X153836823Y-81231313D01*
X153836823Y-81231313D01*
G37*
G36*
X162019890Y-80019017D02*
G01*
X162060927Y-80036015D01*
X162138364Y-80068091D01*
X162244988Y-80139335D01*
X162335665Y-80230012D01*
X162406909Y-80336636D01*
X162455983Y-80455110D01*
X162481000Y-80580882D01*
X162481000Y-80709118D01*
X162455983Y-80834890D01*
X162406909Y-80953364D01*
X162335665Y-81059988D01*
X162244988Y-81150665D01*
X162138364Y-81221909D01*
X162138363Y-81221910D01*
X162138362Y-81221910D01*
X162019890Y-81270983D01*
X161894119Y-81296000D01*
X161765881Y-81296000D01*
X161640110Y-81270983D01*
X161521638Y-81221910D01*
X161521637Y-81221910D01*
X161521636Y-81221909D01*
X161415012Y-81150665D01*
X161324335Y-81059988D01*
X161253091Y-80953364D01*
X161204017Y-80834890D01*
X161179000Y-80709118D01*
X161179000Y-80580882D01*
X161204017Y-80455110D01*
X161253091Y-80336636D01*
X161324335Y-80230012D01*
X161415012Y-80139335D01*
X161521636Y-80068091D01*
X161599074Y-80036015D01*
X161640110Y-80019017D01*
X161765881Y-79994000D01*
X161894119Y-79994000D01*
X162019890Y-80019017D01*
X162019890Y-80019017D01*
G37*
G36*
X164019890Y-80019017D02*
G01*
X164060927Y-80036015D01*
X164138364Y-80068091D01*
X164244988Y-80139335D01*
X164335665Y-80230012D01*
X164406909Y-80336636D01*
X164455983Y-80455110D01*
X164481000Y-80580882D01*
X164481000Y-80709118D01*
X164455983Y-80834890D01*
X164406909Y-80953364D01*
X164335665Y-81059988D01*
X164244988Y-81150665D01*
X164138364Y-81221909D01*
X164138363Y-81221910D01*
X164138362Y-81221910D01*
X164019890Y-81270983D01*
X163894119Y-81296000D01*
X163765881Y-81296000D01*
X163640110Y-81270983D01*
X163521638Y-81221910D01*
X163521637Y-81221910D01*
X163521636Y-81221909D01*
X163415012Y-81150665D01*
X163324335Y-81059988D01*
X163253091Y-80953364D01*
X163204017Y-80834890D01*
X163179000Y-80709118D01*
X163179000Y-80580882D01*
X163204017Y-80455110D01*
X163253091Y-80336636D01*
X163324335Y-80230012D01*
X163415012Y-80139335D01*
X163521636Y-80068091D01*
X163599074Y-80036015D01*
X163640110Y-80019017D01*
X163765881Y-79994000D01*
X163894119Y-79994000D01*
X164019890Y-80019017D01*
X164019890Y-80019017D01*
G37*
G36*
X118426000Y-80326000D02*
G01*
X116524000Y-80326000D01*
X116524000Y-78424000D01*
X118426000Y-78424000D01*
X118426000Y-80326000D01*
X118426000Y-80326000D01*
G37*
G36*
X133598228Y-78556703D02*
G01*
X133753100Y-78620853D01*
X133892481Y-78713985D01*
X134011015Y-78832519D01*
X134104147Y-78971900D01*
X134168297Y-79126772D01*
X134201000Y-79291184D01*
X134201000Y-79458816D01*
X134168297Y-79623228D01*
X134104147Y-79778100D01*
X134011015Y-79917481D01*
X133892481Y-80036015D01*
X133753100Y-80129147D01*
X133598228Y-80193297D01*
X133433816Y-80226000D01*
X133266184Y-80226000D01*
X133101772Y-80193297D01*
X132946900Y-80129147D01*
X132807519Y-80036015D01*
X132688985Y-79917481D01*
X132595853Y-79778100D01*
X132531703Y-79623228D01*
X132499000Y-79458816D01*
X132499000Y-79291184D01*
X132531703Y-79126772D01*
X132595853Y-78971900D01*
X132688985Y-78832519D01*
X132807519Y-78713985D01*
X132946900Y-78620853D01*
X133101772Y-78556703D01*
X133266184Y-78524000D01*
X133433816Y-78524000D01*
X133598228Y-78556703D01*
X133598228Y-78556703D01*
G37*
G36*
X125896823Y-78536313D02*
G01*
X126057242Y-78584976D01*
X126124361Y-78620852D01*
X126205078Y-78663996D01*
X126334659Y-78770341D01*
X126441004Y-78899922D01*
X126441005Y-78899924D01*
X126520024Y-79047758D01*
X126568687Y-79208177D01*
X126585117Y-79375000D01*
X126568687Y-79541823D01*
X126520024Y-79702242D01*
X126479477Y-79778100D01*
X126441004Y-79850078D01*
X126334659Y-79979659D01*
X126205078Y-80086004D01*
X126205076Y-80086005D01*
X126057242Y-80165024D01*
X125896823Y-80213687D01*
X125771804Y-80226000D01*
X125688196Y-80226000D01*
X125563177Y-80213687D01*
X125402758Y-80165024D01*
X125254924Y-80086005D01*
X125254922Y-80086004D01*
X125125341Y-79979659D01*
X125018996Y-79850078D01*
X124980523Y-79778100D01*
X124939976Y-79702242D01*
X124891313Y-79541823D01*
X124874883Y-79375000D01*
X124891313Y-79208177D01*
X124939976Y-79047758D01*
X125018995Y-78899924D01*
X125018996Y-78899922D01*
X125125341Y-78770341D01*
X125254922Y-78663996D01*
X125335639Y-78620852D01*
X125402758Y-78584976D01*
X125563177Y-78536313D01*
X125688196Y-78524000D01*
X125771804Y-78524000D01*
X125896823Y-78536313D01*
X125896823Y-78536313D01*
G37*
G36*
X147326823Y-78536313D02*
G01*
X147487242Y-78584976D01*
X147554361Y-78620852D01*
X147635078Y-78663996D01*
X147764659Y-78770341D01*
X147871004Y-78899922D01*
X147871005Y-78899924D01*
X147950024Y-79047758D01*
X147998687Y-79208177D01*
X148015117Y-79375000D01*
X147998687Y-79541823D01*
X147950024Y-79702242D01*
X147909477Y-79778100D01*
X147871004Y-79850078D01*
X147764659Y-79979659D01*
X147635078Y-80086004D01*
X147635076Y-80086005D01*
X147487242Y-80165024D01*
X147326823Y-80213687D01*
X147201804Y-80226000D01*
X147118196Y-80226000D01*
X146993177Y-80213687D01*
X146832758Y-80165024D01*
X146684924Y-80086005D01*
X146684922Y-80086004D01*
X146555341Y-79979659D01*
X146448996Y-79850078D01*
X146410523Y-79778100D01*
X146369976Y-79702242D01*
X146321313Y-79541823D01*
X146304883Y-79375000D01*
X146321313Y-79208177D01*
X146369976Y-79047758D01*
X146448995Y-78899924D01*
X146448996Y-78899922D01*
X146555341Y-78770341D01*
X146684922Y-78663996D01*
X146765639Y-78620852D01*
X146832758Y-78584976D01*
X146993177Y-78536313D01*
X147118196Y-78524000D01*
X147201804Y-78524000D01*
X147326823Y-78536313D01*
X147326823Y-78536313D01*
G37*
G36*
X137408228Y-78556703D02*
G01*
X137563100Y-78620853D01*
X137702481Y-78713985D01*
X137821015Y-78832519D01*
X137914147Y-78971900D01*
X137978297Y-79126772D01*
X138011000Y-79291184D01*
X138011000Y-79458816D01*
X137978297Y-79623228D01*
X137914147Y-79778100D01*
X137821015Y-79917481D01*
X137702481Y-80036015D01*
X137563100Y-80129147D01*
X137408228Y-80193297D01*
X137243816Y-80226000D01*
X137076184Y-80226000D01*
X136911772Y-80193297D01*
X136756900Y-80129147D01*
X136617519Y-80036015D01*
X136498985Y-79917481D01*
X136405853Y-79778100D01*
X136341703Y-79623228D01*
X136309000Y-79458816D01*
X136309000Y-79291184D01*
X136341703Y-79126772D01*
X136405853Y-78971900D01*
X136498985Y-78832519D01*
X136617519Y-78713985D01*
X136756900Y-78620853D01*
X136911772Y-78556703D01*
X137076184Y-78524000D01*
X137243816Y-78524000D01*
X137408228Y-78556703D01*
X137408228Y-78556703D01*
G37*
G36*
X117752395Y-75920546D02*
G01*
X117925466Y-75992234D01*
X117925467Y-75992235D01*
X118081227Y-76096310D01*
X118213690Y-76228773D01*
X118213691Y-76228775D01*
X118317766Y-76384534D01*
X118389454Y-76557605D01*
X118426000Y-76741333D01*
X118426000Y-76928667D01*
X118389454Y-77112395D01*
X118317766Y-77285466D01*
X118317765Y-77285467D01*
X118213690Y-77441227D01*
X118081227Y-77573690D01*
X118002818Y-77626081D01*
X117925466Y-77677766D01*
X117752395Y-77749454D01*
X117568667Y-77786000D01*
X117381333Y-77786000D01*
X117197605Y-77749454D01*
X117024534Y-77677766D01*
X116947182Y-77626081D01*
X116868773Y-77573690D01*
X116736310Y-77441227D01*
X116632235Y-77285467D01*
X116632234Y-77285466D01*
X116560546Y-77112395D01*
X116524000Y-76928667D01*
X116524000Y-76741333D01*
X116560546Y-76557605D01*
X116632234Y-76384534D01*
X116736309Y-76228775D01*
X116736310Y-76228773D01*
X116868773Y-76096310D01*
X117024533Y-75992235D01*
X117024534Y-75992234D01*
X117197605Y-75920546D01*
X117381333Y-75884000D01*
X117568667Y-75884000D01*
X117752395Y-75920546D01*
X117752395Y-75920546D01*
G37*
M02*
