G04 #@! TF.GenerationSoftware,KiCad,Pcbnew,(5.1.2-1)-1*
G04 #@! TF.CreationDate,2019-06-08T01:43:03+01:00*
G04 #@! TF.ProjectId,ATF Programming Board,41544620-5072-46f6-9772-616d6d696e67,rev?*
G04 #@! TF.SameCoordinates,Original*
G04 #@! TF.FileFunction,Copper,L1,Top*
G04 #@! TF.FilePolarity,Positive*
%FSLAX46Y46*%
G04 Gerber Fmt 4.6, Leading zero omitted, Abs format (unit mm)*
G04 Created by KiCad (PCBNEW (5.1.2-1)-1) date 2019-06-08 01:43:03*
%MOMM*%
%LPD*%
G04 APERTURE LIST*
%ADD10O,1.600000X1.600000*%
%ADD11C,1.600000*%
%ADD12C,1.422400*%
%ADD13R,1.422400X1.422400*%
%ADD14O,1.700000X1.700000*%
%ADD15R,1.700000X1.700000*%
%ADD16O,1.727200X1.727200*%
%ADD17R,1.727200X1.727200*%
%ADD18C,1.800000*%
%ADD19R,1.800000X1.800000*%
%ADD20C,1.200000*%
%ADD21R,2.000000X1.905000*%
%ADD22O,2.000000X1.905000*%
%ADD23C,0.381000*%
%ADD24C,0.250000*%
%ADD25C,0.254000*%
G04 APERTURE END LIST*
D10*
X125730000Y-79375000D03*
D11*
X133350000Y-79375000D03*
D12*
X148590000Y-86995000D03*
X148590000Y-89535000D03*
X148590000Y-92075000D03*
X148590000Y-94615000D03*
X148590000Y-97155000D03*
X146050000Y-84455000D03*
X146050000Y-89535000D03*
X146050000Y-92075000D03*
X146050000Y-94615000D03*
X146050000Y-97155000D03*
X146050000Y-99695000D03*
X146050000Y-102235000D03*
X143510000Y-102235000D03*
X140970000Y-102235000D03*
X138430000Y-102235000D03*
X135890000Y-102235000D03*
X133350000Y-102235000D03*
X148590000Y-99695000D03*
X143510000Y-99695000D03*
X140970000Y-99695000D03*
X138430000Y-99695000D03*
X135890000Y-99695000D03*
X133350000Y-99695000D03*
X130810000Y-99695000D03*
X130810000Y-97155000D03*
X130810000Y-94615000D03*
X130810000Y-92075000D03*
X130810000Y-89535000D03*
X130810000Y-86995000D03*
X133350000Y-97155000D03*
X133350000Y-94615000D03*
X133350000Y-92075000D03*
X133350000Y-89535000D03*
X133350000Y-86995000D03*
X143510000Y-84455000D03*
X140970000Y-84455000D03*
X133350000Y-84455000D03*
X135890000Y-84455000D03*
X138430000Y-84455000D03*
X146050000Y-86995000D03*
X143510000Y-86995000D03*
X135890000Y-86995000D03*
X138430000Y-86995000D03*
D13*
X140970000Y-86995000D03*
D14*
X117475000Y-104775000D03*
D15*
X120015000Y-104775000D03*
D16*
X120015000Y-97155000D03*
X117475000Y-97155000D03*
X120015000Y-94615000D03*
X117475000Y-94615000D03*
X120015000Y-92075000D03*
X117475000Y-92075000D03*
X120015000Y-89535000D03*
X117475000Y-89535000D03*
X120015000Y-86995000D03*
D17*
X117475000Y-86995000D03*
D18*
X117475000Y-76835000D03*
D19*
X117475000Y-79375000D03*
D20*
X163925000Y-98425000D03*
X161925000Y-98425000D03*
X161830000Y-80645000D03*
X163830000Y-80645000D03*
D10*
X125730000Y-99535000D03*
D11*
X125730000Y-89535000D03*
D10*
X147160000Y-79375000D03*
D11*
X137160000Y-79375000D03*
D10*
X153670000Y-82070000D03*
D11*
X153670000Y-92070000D03*
D10*
X148430000Y-107315000D03*
D11*
X138430000Y-107315000D03*
D21*
X158750000Y-86995000D03*
D22*
X158750000Y-89535000D03*
X158750000Y-92075000D03*
D23*
X148430000Y-100806200D02*
X139541200Y-100806200D01*
X139541200Y-100806200D02*
X138430000Y-99695000D01*
X149694600Y-92075000D02*
X149694600Y-100174000D01*
X149694600Y-100174000D02*
X149062400Y-100806200D01*
X149062400Y-100806200D02*
X148430000Y-100806200D01*
X148430000Y-100806200D02*
X148430000Y-106124200D01*
X149694600Y-92075000D02*
X148590000Y-92075000D01*
X153670000Y-92072500D02*
X149697100Y-92072500D01*
X149697100Y-92072500D02*
X149694600Y-92075000D01*
X148430000Y-107315000D02*
X148430000Y-106124200D01*
X138430000Y-86995000D02*
X137160000Y-85725000D01*
X137160000Y-85725000D02*
X137160000Y-79375000D01*
X138430000Y-99695000D02*
X137327900Y-100797100D01*
X137327900Y-100797100D02*
X135369500Y-100797100D01*
X135369500Y-100797100D02*
X134452100Y-99879700D01*
X134452100Y-99879700D02*
X134452100Y-99169300D01*
X134452100Y-99169300D02*
X133707800Y-98425000D01*
X133707800Y-98425000D02*
X132080000Y-98425000D01*
X132080000Y-98425000D02*
X130810000Y-97155000D01*
X125730000Y-99535000D02*
X126920800Y-99535000D01*
X126920800Y-99535000D02*
X129300800Y-97155000D01*
X129300800Y-97155000D02*
X130810000Y-97155000D01*
X158750000Y-93418300D02*
X161925000Y-96593300D01*
X161925000Y-96593300D02*
X161925000Y-98425000D01*
X158750000Y-92075000D02*
X158750000Y-93418300D01*
X137160000Y-79375000D02*
X134620000Y-76835000D01*
X134620000Y-76835000D02*
X117475000Y-76835000D01*
X158750000Y-92075000D02*
X153672500Y-92075000D01*
X153672500Y-92075000D02*
X153670000Y-92072500D01*
X153670000Y-92072500D02*
X153670000Y-92070000D01*
X120015000Y-104775000D02*
X120015000Y-103534200D01*
X158750000Y-86323300D02*
X154268300Y-90805000D01*
X154268300Y-90805000D02*
X148288300Y-90805000D01*
X148288300Y-90805000D02*
X147152100Y-91941200D01*
X147152100Y-91941200D02*
X147152100Y-97680700D01*
X147152100Y-97680700D02*
X146551200Y-98281600D01*
X146551200Y-98281600D02*
X138868800Y-98281600D01*
X138868800Y-98281600D02*
X136626900Y-96039700D01*
X136626900Y-96039700D02*
X127509500Y-96039700D01*
X127509500Y-96039700D02*
X120015000Y-103534200D01*
X158750000Y-86323300D02*
X158750000Y-85651700D01*
X158750000Y-86995000D02*
X158750000Y-86323300D01*
X158750000Y-85651700D02*
X158823300Y-85651700D01*
X158823300Y-85651700D02*
X163830000Y-80645000D01*
D24*
X117475000Y-79375000D02*
X125730000Y-79375000D01*
X117475000Y-97155000D02*
X117475000Y-95966100D01*
X117475000Y-95966100D02*
X117103500Y-95966100D01*
X117103500Y-95966100D02*
X115785700Y-94648300D01*
X115785700Y-94648300D02*
X115785700Y-86491100D01*
X115785700Y-86491100D02*
X116486600Y-85790200D01*
X116486600Y-85790200D02*
X129605200Y-85790200D01*
X129605200Y-85790200D02*
X130810000Y-86995000D01*
X117475000Y-92075000D02*
X118663900Y-92075000D01*
X118663900Y-92075000D02*
X118663900Y-92446600D01*
X118663900Y-92446600D02*
X119481200Y-93263900D01*
X119481200Y-93263900D02*
X129458900Y-93263900D01*
X129458900Y-93263900D02*
X130810000Y-94615000D01*
X117475000Y-89535000D02*
X118663900Y-89535000D01*
X146050000Y-89535000D02*
X144861100Y-88346100D01*
X144861100Y-88346100D02*
X119481200Y-88346100D01*
X119481200Y-88346100D02*
X118663900Y-89163400D01*
X118663900Y-89163400D02*
X118663900Y-89535000D01*
X117475000Y-86995000D02*
X117475000Y-88183900D01*
X117475000Y-88183900D02*
X117103500Y-88183900D01*
X117103500Y-88183900D02*
X116236100Y-89051300D01*
X116236100Y-89051300D02*
X116236100Y-90023700D01*
X116236100Y-90023700D02*
X117017400Y-90805000D01*
X117017400Y-90805000D02*
X139700000Y-90805000D01*
X139700000Y-90805000D02*
X146050000Y-97155000D01*
D25*
G36*
X179578000Y-78157606D02*
G01*
X179578000Y-105992394D01*
X177112394Y-108458000D01*
X149299254Y-108458000D01*
X149449608Y-108334608D01*
X149628932Y-108116101D01*
X149762182Y-107866808D01*
X149844236Y-107596309D01*
X149871943Y-107315000D01*
X149844236Y-107033691D01*
X149762182Y-106763192D01*
X149628932Y-106513899D01*
X149449608Y-106295392D01*
X149255500Y-106136092D01*
X149255500Y-101610269D01*
X149379834Y-101572553D01*
X149523242Y-101495899D01*
X149648941Y-101392741D01*
X149674797Y-101361235D01*
X150249644Y-100786390D01*
X150281141Y-100760541D01*
X150306989Y-100729045D01*
X150306992Y-100729042D01*
X150384299Y-100634843D01*
X150460953Y-100491434D01*
X150475139Y-100444668D01*
X150508156Y-100335826D01*
X150520100Y-100214553D01*
X150520100Y-100214551D01*
X150524094Y-100174000D01*
X150520100Y-100133450D01*
X150520100Y-92898000D01*
X152497393Y-92898000D01*
X152555363Y-92984759D01*
X152755241Y-93184637D01*
X152990273Y-93341680D01*
X153251426Y-93449853D01*
X153528665Y-93505000D01*
X153811335Y-93505000D01*
X154088574Y-93449853D01*
X154349727Y-93341680D01*
X154584759Y-93184637D01*
X154784637Y-92984759D01*
X154840937Y-92900500D01*
X157343692Y-92900500D01*
X157376155Y-92961235D01*
X157574537Y-93202963D01*
X157816265Y-93401345D01*
X157924536Y-93459217D01*
X157936445Y-93580126D01*
X157983647Y-93735733D01*
X158060301Y-93879142D01*
X158112507Y-93942754D01*
X158163460Y-94004841D01*
X158194961Y-94030693D01*
X161099500Y-96935233D01*
X161099500Y-97503946D01*
X160965713Y-97637733D01*
X160830557Y-97840008D01*
X160737460Y-98064764D01*
X160690000Y-98303363D01*
X160690000Y-98546637D01*
X160737460Y-98785236D01*
X160830557Y-99009992D01*
X160965713Y-99212267D01*
X161137733Y-99384287D01*
X161340008Y-99519443D01*
X161564764Y-99612540D01*
X161803363Y-99660000D01*
X162046637Y-99660000D01*
X162285236Y-99612540D01*
X162509992Y-99519443D01*
X162712267Y-99384287D01*
X162821790Y-99274764D01*
X163254841Y-99274764D01*
X163302148Y-99498348D01*
X163523516Y-99599237D01*
X163760313Y-99655000D01*
X164003438Y-99663495D01*
X164243549Y-99624395D01*
X164471418Y-99539202D01*
X164547852Y-99498348D01*
X164595159Y-99274764D01*
X163925000Y-98604605D01*
X163254841Y-99274764D01*
X162821790Y-99274764D01*
X162884287Y-99212267D01*
X162976496Y-99074267D01*
X163075236Y-99095159D01*
X163745395Y-98425000D01*
X164104605Y-98425000D01*
X164774764Y-99095159D01*
X164998348Y-99047852D01*
X165099237Y-98826484D01*
X165155000Y-98589687D01*
X165163495Y-98346562D01*
X165124395Y-98106451D01*
X165039202Y-97878582D01*
X164998348Y-97802148D01*
X164774764Y-97754841D01*
X164104605Y-98425000D01*
X163745395Y-98425000D01*
X163075236Y-97754841D01*
X162976496Y-97775733D01*
X162884287Y-97637733D01*
X162821790Y-97575236D01*
X163254841Y-97575236D01*
X163925000Y-98245395D01*
X164595159Y-97575236D01*
X164547852Y-97351652D01*
X164326484Y-97250763D01*
X164089687Y-97195000D01*
X163846562Y-97186505D01*
X163606451Y-97225605D01*
X163378582Y-97310798D01*
X163302148Y-97351652D01*
X163254841Y-97575236D01*
X162821790Y-97575236D01*
X162750500Y-97503946D01*
X162750500Y-96633850D01*
X162754494Y-96593299D01*
X162750500Y-96552747D01*
X162738556Y-96431474D01*
X162691353Y-96275866D01*
X162651617Y-96201526D01*
X162614699Y-96132457D01*
X162564177Y-96070896D01*
X162511541Y-96006759D01*
X162480041Y-95980908D01*
X159802779Y-93303647D01*
X159925463Y-93202963D01*
X160123845Y-92961235D01*
X160271255Y-92685449D01*
X160362030Y-92386204D01*
X160392681Y-92075000D01*
X160362030Y-91763796D01*
X160271255Y-91464551D01*
X160123845Y-91188765D01*
X159925463Y-90947037D01*
X159746101Y-90799837D01*
X159931315Y-90644437D01*
X160125969Y-90401923D01*
X160269571Y-90126094D01*
X160340563Y-89907980D01*
X160220594Y-89662000D01*
X158877000Y-89662000D01*
X158877000Y-89682000D01*
X158623000Y-89682000D01*
X158623000Y-89662000D01*
X157279406Y-89662000D01*
X157159437Y-89907980D01*
X157230429Y-90126094D01*
X157374031Y-90401923D01*
X157568685Y-90644437D01*
X157753899Y-90799837D01*
X157574537Y-90947037D01*
X157376155Y-91188765D01*
X157343692Y-91249500D01*
X154991232Y-91249500D01*
X156705732Y-89535000D01*
X173013461Y-89535000D01*
X173059510Y-90002542D01*
X173195887Y-90452116D01*
X173417351Y-90866446D01*
X173715391Y-91229609D01*
X174078554Y-91527649D01*
X174492884Y-91749113D01*
X174942458Y-91885490D01*
X175292843Y-91920000D01*
X175527157Y-91920000D01*
X175877542Y-91885490D01*
X176327116Y-91749113D01*
X176741446Y-91527649D01*
X177104609Y-91229609D01*
X177402649Y-90866446D01*
X177624113Y-90452116D01*
X177760490Y-90002542D01*
X177806539Y-89535000D01*
X177760490Y-89067458D01*
X177624113Y-88617884D01*
X177402649Y-88203554D01*
X177104609Y-87840391D01*
X176741446Y-87542351D01*
X176327116Y-87320887D01*
X175877542Y-87184510D01*
X175527157Y-87150000D01*
X175292843Y-87150000D01*
X174942458Y-87184510D01*
X174492884Y-87320887D01*
X174078554Y-87542351D01*
X173715391Y-87840391D01*
X173417351Y-88203554D01*
X173195887Y-88617884D01*
X173059510Y-89067458D01*
X173013461Y-89535000D01*
X156705732Y-89535000D01*
X157198389Y-89042344D01*
X157159437Y-89162020D01*
X157279406Y-89408000D01*
X158623000Y-89408000D01*
X158623000Y-89388000D01*
X158877000Y-89388000D01*
X158877000Y-89408000D01*
X160220594Y-89408000D01*
X160340563Y-89162020D01*
X160269571Y-88943906D01*
X160125969Y-88668077D01*
X160012781Y-88527059D01*
X160104494Y-88478037D01*
X160201185Y-88398685D01*
X160280537Y-88301994D01*
X160339502Y-88191680D01*
X160375812Y-88071982D01*
X160388072Y-87947500D01*
X160388072Y-86042500D01*
X160375812Y-85918018D01*
X160339502Y-85798320D01*
X160280537Y-85688006D01*
X160201185Y-85591315D01*
X160118761Y-85523671D01*
X163762433Y-81880000D01*
X163951637Y-81880000D01*
X164190236Y-81832540D01*
X164414992Y-81739443D01*
X164617267Y-81604287D01*
X164789287Y-81432267D01*
X164924443Y-81229992D01*
X165017540Y-81005236D01*
X165065000Y-80766637D01*
X165065000Y-80523363D01*
X165017540Y-80284764D01*
X164924443Y-80060008D01*
X164789287Y-79857733D01*
X164617267Y-79685713D01*
X164414992Y-79550557D01*
X164190236Y-79457460D01*
X163951637Y-79410000D01*
X163708363Y-79410000D01*
X163469764Y-79457460D01*
X163245008Y-79550557D01*
X163042733Y-79685713D01*
X162870713Y-79857733D01*
X162778504Y-79995733D01*
X162679764Y-79974841D01*
X162009605Y-80645000D01*
X162023748Y-80659143D01*
X161844143Y-80838748D01*
X161830000Y-80824605D01*
X161159841Y-81494764D01*
X161207148Y-81718348D01*
X161428516Y-81819237D01*
X161476930Y-81830638D01*
X158410342Y-84897226D01*
X158289158Y-84962001D01*
X158163459Y-85065159D01*
X158060301Y-85190858D01*
X157983647Y-85334266D01*
X157962364Y-85404428D01*
X157750000Y-85404428D01*
X157625518Y-85416688D01*
X157505820Y-85452998D01*
X157395506Y-85511963D01*
X157298815Y-85591315D01*
X157219463Y-85688006D01*
X157160498Y-85798320D01*
X157124188Y-85918018D01*
X157111928Y-86042500D01*
X157111928Y-86793938D01*
X153926368Y-89979500D01*
X149862999Y-89979500D01*
X149884467Y-89927672D01*
X149936200Y-89667589D01*
X149936200Y-89402411D01*
X149884467Y-89142328D01*
X149782987Y-88897335D01*
X149635662Y-88676847D01*
X149448153Y-88489338D01*
X149227665Y-88342013D01*
X149041740Y-88265000D01*
X149227665Y-88187987D01*
X149448153Y-88040662D01*
X149635662Y-87853153D01*
X149782987Y-87632665D01*
X149884467Y-87387672D01*
X149936200Y-87127589D01*
X149936200Y-86862411D01*
X149884467Y-86602328D01*
X149782987Y-86357335D01*
X149635662Y-86136847D01*
X149448153Y-85949338D01*
X149227665Y-85802013D01*
X148982672Y-85700533D01*
X148722589Y-85648800D01*
X148457411Y-85648800D01*
X148197328Y-85700533D01*
X147952335Y-85802013D01*
X147731847Y-85949338D01*
X147544338Y-86136847D01*
X147397013Y-86357335D01*
X147320000Y-86543260D01*
X147242987Y-86357335D01*
X147095662Y-86136847D01*
X146908153Y-85949338D01*
X146687665Y-85802013D01*
X146501740Y-85725000D01*
X146687665Y-85647987D01*
X146908153Y-85500662D01*
X147095662Y-85313153D01*
X147242987Y-85092665D01*
X147344467Y-84847672D01*
X147396200Y-84587589D01*
X147396200Y-84322411D01*
X147344467Y-84062328D01*
X147242987Y-83817335D01*
X147095662Y-83596847D01*
X146908153Y-83409338D01*
X146687665Y-83262013D01*
X146442672Y-83160533D01*
X146182589Y-83108800D01*
X145917411Y-83108800D01*
X145657328Y-83160533D01*
X145412335Y-83262013D01*
X145191847Y-83409338D01*
X145004338Y-83596847D01*
X144857013Y-83817335D01*
X144779031Y-84005600D01*
X144729542Y-83869720D01*
X144674183Y-83766152D01*
X144439273Y-83705332D01*
X143689605Y-84455000D01*
X144439273Y-85204668D01*
X144674183Y-85143848D01*
X144782206Y-84912066D01*
X144857013Y-85092665D01*
X145004338Y-85313153D01*
X145191847Y-85500662D01*
X145412335Y-85647987D01*
X145598260Y-85725000D01*
X145412335Y-85802013D01*
X145191847Y-85949338D01*
X145004338Y-86136847D01*
X144857013Y-86357335D01*
X144780000Y-86543260D01*
X144702987Y-86357335D01*
X144555662Y-86136847D01*
X144368153Y-85949338D01*
X144147665Y-85802013D01*
X143959400Y-85724031D01*
X144095280Y-85674542D01*
X144198848Y-85619183D01*
X144259668Y-85384273D01*
X143510000Y-84634605D01*
X142760332Y-85384273D01*
X142821152Y-85619183D01*
X143052934Y-85727206D01*
X142872335Y-85802013D01*
X142651847Y-85949338D01*
X142464338Y-86136847D01*
X142319272Y-86353954D01*
X142319272Y-86283800D01*
X142307012Y-86159318D01*
X142270702Y-86039620D01*
X142211737Y-85929306D01*
X142132385Y-85832615D01*
X142035694Y-85753263D01*
X141925380Y-85694298D01*
X141805682Y-85657988D01*
X141681200Y-85645728D01*
X141611046Y-85645728D01*
X141828153Y-85500662D01*
X142015662Y-85313153D01*
X142162987Y-85092665D01*
X142240969Y-84904400D01*
X142290458Y-85040280D01*
X142345817Y-85143848D01*
X142580727Y-85204668D01*
X143330395Y-84455000D01*
X142580727Y-83705332D01*
X142345817Y-83766152D01*
X142237794Y-83997934D01*
X142162987Y-83817335D01*
X142015662Y-83596847D01*
X141944542Y-83525727D01*
X142760332Y-83525727D01*
X143510000Y-84275395D01*
X144259668Y-83525727D01*
X144198848Y-83290817D01*
X143958491Y-83178798D01*
X143700898Y-83115824D01*
X143435970Y-83104313D01*
X143173887Y-83144709D01*
X142924720Y-83235458D01*
X142821152Y-83290817D01*
X142760332Y-83525727D01*
X141944542Y-83525727D01*
X141828153Y-83409338D01*
X141607665Y-83262013D01*
X141362672Y-83160533D01*
X141102589Y-83108800D01*
X140837411Y-83108800D01*
X140577328Y-83160533D01*
X140332335Y-83262013D01*
X140111847Y-83409338D01*
X139924338Y-83596847D01*
X139777013Y-83817335D01*
X139700000Y-84003260D01*
X139622987Y-83817335D01*
X139475662Y-83596847D01*
X139288153Y-83409338D01*
X139067665Y-83262013D01*
X138822672Y-83160533D01*
X138562589Y-83108800D01*
X138297411Y-83108800D01*
X138037328Y-83160533D01*
X137985500Y-83182001D01*
X137985500Y-82419040D01*
X152278091Y-82419040D01*
X152372930Y-82683881D01*
X152517615Y-82925131D01*
X152706586Y-83133519D01*
X152932580Y-83301037D01*
X153186913Y-83421246D01*
X153320961Y-83461904D01*
X153543000Y-83339915D01*
X153543000Y-82197000D01*
X153797000Y-82197000D01*
X153797000Y-83339915D01*
X154019039Y-83461904D01*
X154153087Y-83421246D01*
X154407420Y-83301037D01*
X154633414Y-83133519D01*
X154822385Y-82925131D01*
X154967070Y-82683881D01*
X155061909Y-82419040D01*
X154940624Y-82197000D01*
X153797000Y-82197000D01*
X153543000Y-82197000D01*
X152399376Y-82197000D01*
X152278091Y-82419040D01*
X137985500Y-82419040D01*
X137985500Y-81720960D01*
X152278091Y-81720960D01*
X152399376Y-81943000D01*
X153543000Y-81943000D01*
X153543000Y-80800085D01*
X153797000Y-80800085D01*
X153797000Y-81943000D01*
X154940624Y-81943000D01*
X155061909Y-81720960D01*
X154967070Y-81456119D01*
X154822385Y-81214869D01*
X154633414Y-81006481D01*
X154407420Y-80838963D01*
X154162998Y-80723438D01*
X160591505Y-80723438D01*
X160630605Y-80963549D01*
X160715798Y-81191418D01*
X160756652Y-81267852D01*
X160980236Y-81315159D01*
X161650395Y-80645000D01*
X160980236Y-79974841D01*
X160756652Y-80022148D01*
X160655763Y-80243516D01*
X160600000Y-80480313D01*
X160591505Y-80723438D01*
X154162998Y-80723438D01*
X154153087Y-80718754D01*
X154019039Y-80678096D01*
X153797000Y-80800085D01*
X153543000Y-80800085D01*
X153320961Y-80678096D01*
X153186913Y-80718754D01*
X152932580Y-80838963D01*
X152706586Y-81006481D01*
X152517615Y-81214869D01*
X152372930Y-81456119D01*
X152278091Y-81720960D01*
X137985500Y-81720960D01*
X137985500Y-80549278D01*
X138074759Y-80489637D01*
X138274637Y-80289759D01*
X138431680Y-80054727D01*
X138539853Y-79793574D01*
X138553684Y-79724039D01*
X145768096Y-79724039D01*
X145808754Y-79858087D01*
X145928963Y-80112420D01*
X146096481Y-80338414D01*
X146304869Y-80527385D01*
X146546119Y-80672070D01*
X146810960Y-80766909D01*
X147033000Y-80645624D01*
X147033000Y-79502000D01*
X147287000Y-79502000D01*
X147287000Y-80645624D01*
X147509040Y-80766909D01*
X147773881Y-80672070D01*
X148015131Y-80527385D01*
X148223519Y-80338414D01*
X148391037Y-80112420D01*
X148511246Y-79858087D01*
X148530309Y-79795236D01*
X161159841Y-79795236D01*
X161830000Y-80465395D01*
X162500159Y-79795236D01*
X162452852Y-79571652D01*
X162231484Y-79470763D01*
X161994687Y-79415000D01*
X161751562Y-79406505D01*
X161511451Y-79445605D01*
X161283582Y-79530798D01*
X161207148Y-79571652D01*
X161159841Y-79795236D01*
X148530309Y-79795236D01*
X148551904Y-79724039D01*
X148429915Y-79502000D01*
X147287000Y-79502000D01*
X147033000Y-79502000D01*
X145890085Y-79502000D01*
X145768096Y-79724039D01*
X138553684Y-79724039D01*
X138595000Y-79516335D01*
X138595000Y-79233665D01*
X138553685Y-79025961D01*
X145768096Y-79025961D01*
X145890085Y-79248000D01*
X147033000Y-79248000D01*
X147033000Y-78104376D01*
X147287000Y-78104376D01*
X147287000Y-79248000D01*
X148429915Y-79248000D01*
X148551904Y-79025961D01*
X148511246Y-78891913D01*
X148391037Y-78637580D01*
X148223519Y-78411586D01*
X148015131Y-78222615D01*
X147773881Y-78077930D01*
X147509040Y-77983091D01*
X147287000Y-78104376D01*
X147033000Y-78104376D01*
X146810960Y-77983091D01*
X146546119Y-78077930D01*
X146304869Y-78222615D01*
X146096481Y-78411586D01*
X145928963Y-78637580D01*
X145808754Y-78891913D01*
X145768096Y-79025961D01*
X138553685Y-79025961D01*
X138539853Y-78956426D01*
X138431680Y-78695273D01*
X138274637Y-78460241D01*
X138074759Y-78260363D01*
X137839727Y-78103320D01*
X137578574Y-77995147D01*
X137301335Y-77940000D01*
X137018665Y-77940000D01*
X136913376Y-77960944D01*
X135232398Y-76279966D01*
X135206541Y-76248459D01*
X135080842Y-76145301D01*
X134937434Y-76068647D01*
X134781826Y-76021444D01*
X134660553Y-76009500D01*
X134660550Y-76009500D01*
X134620000Y-76005506D01*
X134579450Y-76009500D01*
X118769547Y-76009500D01*
X118667312Y-75856495D01*
X118502817Y-75692000D01*
X177112394Y-75692000D01*
X179578000Y-78157606D01*
X179578000Y-78157606D01*
G37*
X179578000Y-78157606D02*
X179578000Y-105992394D01*
X177112394Y-108458000D01*
X149299254Y-108458000D01*
X149449608Y-108334608D01*
X149628932Y-108116101D01*
X149762182Y-107866808D01*
X149844236Y-107596309D01*
X149871943Y-107315000D01*
X149844236Y-107033691D01*
X149762182Y-106763192D01*
X149628932Y-106513899D01*
X149449608Y-106295392D01*
X149255500Y-106136092D01*
X149255500Y-101610269D01*
X149379834Y-101572553D01*
X149523242Y-101495899D01*
X149648941Y-101392741D01*
X149674797Y-101361235D01*
X150249644Y-100786390D01*
X150281141Y-100760541D01*
X150306989Y-100729045D01*
X150306992Y-100729042D01*
X150384299Y-100634843D01*
X150460953Y-100491434D01*
X150475139Y-100444668D01*
X150508156Y-100335826D01*
X150520100Y-100214553D01*
X150520100Y-100214551D01*
X150524094Y-100174000D01*
X150520100Y-100133450D01*
X150520100Y-92898000D01*
X152497393Y-92898000D01*
X152555363Y-92984759D01*
X152755241Y-93184637D01*
X152990273Y-93341680D01*
X153251426Y-93449853D01*
X153528665Y-93505000D01*
X153811335Y-93505000D01*
X154088574Y-93449853D01*
X154349727Y-93341680D01*
X154584759Y-93184637D01*
X154784637Y-92984759D01*
X154840937Y-92900500D01*
X157343692Y-92900500D01*
X157376155Y-92961235D01*
X157574537Y-93202963D01*
X157816265Y-93401345D01*
X157924536Y-93459217D01*
X157936445Y-93580126D01*
X157983647Y-93735733D01*
X158060301Y-93879142D01*
X158112507Y-93942754D01*
X158163460Y-94004841D01*
X158194961Y-94030693D01*
X161099500Y-96935233D01*
X161099500Y-97503946D01*
X160965713Y-97637733D01*
X160830557Y-97840008D01*
X160737460Y-98064764D01*
X160690000Y-98303363D01*
X160690000Y-98546637D01*
X160737460Y-98785236D01*
X160830557Y-99009992D01*
X160965713Y-99212267D01*
X161137733Y-99384287D01*
X161340008Y-99519443D01*
X161564764Y-99612540D01*
X161803363Y-99660000D01*
X162046637Y-99660000D01*
X162285236Y-99612540D01*
X162509992Y-99519443D01*
X162712267Y-99384287D01*
X162821790Y-99274764D01*
X163254841Y-99274764D01*
X163302148Y-99498348D01*
X163523516Y-99599237D01*
X163760313Y-99655000D01*
X164003438Y-99663495D01*
X164243549Y-99624395D01*
X164471418Y-99539202D01*
X164547852Y-99498348D01*
X164595159Y-99274764D01*
X163925000Y-98604605D01*
X163254841Y-99274764D01*
X162821790Y-99274764D01*
X162884287Y-99212267D01*
X162976496Y-99074267D01*
X163075236Y-99095159D01*
X163745395Y-98425000D01*
X164104605Y-98425000D01*
X164774764Y-99095159D01*
X164998348Y-99047852D01*
X165099237Y-98826484D01*
X165155000Y-98589687D01*
X165163495Y-98346562D01*
X165124395Y-98106451D01*
X165039202Y-97878582D01*
X164998348Y-97802148D01*
X164774764Y-97754841D01*
X164104605Y-98425000D01*
X163745395Y-98425000D01*
X163075236Y-97754841D01*
X162976496Y-97775733D01*
X162884287Y-97637733D01*
X162821790Y-97575236D01*
X163254841Y-97575236D01*
X163925000Y-98245395D01*
X164595159Y-97575236D01*
X164547852Y-97351652D01*
X164326484Y-97250763D01*
X164089687Y-97195000D01*
X163846562Y-97186505D01*
X163606451Y-97225605D01*
X163378582Y-97310798D01*
X163302148Y-97351652D01*
X163254841Y-97575236D01*
X162821790Y-97575236D01*
X162750500Y-97503946D01*
X162750500Y-96633850D01*
X162754494Y-96593299D01*
X162750500Y-96552747D01*
X162738556Y-96431474D01*
X162691353Y-96275866D01*
X162651617Y-96201526D01*
X162614699Y-96132457D01*
X162564177Y-96070896D01*
X162511541Y-96006759D01*
X162480041Y-95980908D01*
X159802779Y-93303647D01*
X159925463Y-93202963D01*
X160123845Y-92961235D01*
X160271255Y-92685449D01*
X160362030Y-92386204D01*
X160392681Y-92075000D01*
X160362030Y-91763796D01*
X160271255Y-91464551D01*
X160123845Y-91188765D01*
X159925463Y-90947037D01*
X159746101Y-90799837D01*
X159931315Y-90644437D01*
X160125969Y-90401923D01*
X160269571Y-90126094D01*
X160340563Y-89907980D01*
X160220594Y-89662000D01*
X158877000Y-89662000D01*
X158877000Y-89682000D01*
X158623000Y-89682000D01*
X158623000Y-89662000D01*
X157279406Y-89662000D01*
X157159437Y-89907980D01*
X157230429Y-90126094D01*
X157374031Y-90401923D01*
X157568685Y-90644437D01*
X157753899Y-90799837D01*
X157574537Y-90947037D01*
X157376155Y-91188765D01*
X157343692Y-91249500D01*
X154991232Y-91249500D01*
X156705732Y-89535000D01*
X173013461Y-89535000D01*
X173059510Y-90002542D01*
X173195887Y-90452116D01*
X173417351Y-90866446D01*
X173715391Y-91229609D01*
X174078554Y-91527649D01*
X174492884Y-91749113D01*
X174942458Y-91885490D01*
X175292843Y-91920000D01*
X175527157Y-91920000D01*
X175877542Y-91885490D01*
X176327116Y-91749113D01*
X176741446Y-91527649D01*
X177104609Y-91229609D01*
X177402649Y-90866446D01*
X177624113Y-90452116D01*
X177760490Y-90002542D01*
X177806539Y-89535000D01*
X177760490Y-89067458D01*
X177624113Y-88617884D01*
X177402649Y-88203554D01*
X177104609Y-87840391D01*
X176741446Y-87542351D01*
X176327116Y-87320887D01*
X175877542Y-87184510D01*
X175527157Y-87150000D01*
X175292843Y-87150000D01*
X174942458Y-87184510D01*
X174492884Y-87320887D01*
X174078554Y-87542351D01*
X173715391Y-87840391D01*
X173417351Y-88203554D01*
X173195887Y-88617884D01*
X173059510Y-89067458D01*
X173013461Y-89535000D01*
X156705732Y-89535000D01*
X157198389Y-89042344D01*
X157159437Y-89162020D01*
X157279406Y-89408000D01*
X158623000Y-89408000D01*
X158623000Y-89388000D01*
X158877000Y-89388000D01*
X158877000Y-89408000D01*
X160220594Y-89408000D01*
X160340563Y-89162020D01*
X160269571Y-88943906D01*
X160125969Y-88668077D01*
X160012781Y-88527059D01*
X160104494Y-88478037D01*
X160201185Y-88398685D01*
X160280537Y-88301994D01*
X160339502Y-88191680D01*
X160375812Y-88071982D01*
X160388072Y-87947500D01*
X160388072Y-86042500D01*
X160375812Y-85918018D01*
X160339502Y-85798320D01*
X160280537Y-85688006D01*
X160201185Y-85591315D01*
X160118761Y-85523671D01*
X163762433Y-81880000D01*
X163951637Y-81880000D01*
X164190236Y-81832540D01*
X164414992Y-81739443D01*
X164617267Y-81604287D01*
X164789287Y-81432267D01*
X164924443Y-81229992D01*
X165017540Y-81005236D01*
X165065000Y-80766637D01*
X165065000Y-80523363D01*
X165017540Y-80284764D01*
X164924443Y-80060008D01*
X164789287Y-79857733D01*
X164617267Y-79685713D01*
X164414992Y-79550557D01*
X164190236Y-79457460D01*
X163951637Y-79410000D01*
X163708363Y-79410000D01*
X163469764Y-79457460D01*
X163245008Y-79550557D01*
X163042733Y-79685713D01*
X162870713Y-79857733D01*
X162778504Y-79995733D01*
X162679764Y-79974841D01*
X162009605Y-80645000D01*
X162023748Y-80659143D01*
X161844143Y-80838748D01*
X161830000Y-80824605D01*
X161159841Y-81494764D01*
X161207148Y-81718348D01*
X161428516Y-81819237D01*
X161476930Y-81830638D01*
X158410342Y-84897226D01*
X158289158Y-84962001D01*
X158163459Y-85065159D01*
X158060301Y-85190858D01*
X157983647Y-85334266D01*
X157962364Y-85404428D01*
X157750000Y-85404428D01*
X157625518Y-85416688D01*
X157505820Y-85452998D01*
X157395506Y-85511963D01*
X157298815Y-85591315D01*
X157219463Y-85688006D01*
X157160498Y-85798320D01*
X157124188Y-85918018D01*
X157111928Y-86042500D01*
X157111928Y-86793938D01*
X153926368Y-89979500D01*
X149862999Y-89979500D01*
X149884467Y-89927672D01*
X149936200Y-89667589D01*
X149936200Y-89402411D01*
X149884467Y-89142328D01*
X149782987Y-88897335D01*
X149635662Y-88676847D01*
X149448153Y-88489338D01*
X149227665Y-88342013D01*
X149041740Y-88265000D01*
X149227665Y-88187987D01*
X149448153Y-88040662D01*
X149635662Y-87853153D01*
X149782987Y-87632665D01*
X149884467Y-87387672D01*
X149936200Y-87127589D01*
X149936200Y-86862411D01*
X149884467Y-86602328D01*
X149782987Y-86357335D01*
X149635662Y-86136847D01*
X149448153Y-85949338D01*
X149227665Y-85802013D01*
X148982672Y-85700533D01*
X148722589Y-85648800D01*
X148457411Y-85648800D01*
X148197328Y-85700533D01*
X147952335Y-85802013D01*
X147731847Y-85949338D01*
X147544338Y-86136847D01*
X147397013Y-86357335D01*
X147320000Y-86543260D01*
X147242987Y-86357335D01*
X147095662Y-86136847D01*
X146908153Y-85949338D01*
X146687665Y-85802013D01*
X146501740Y-85725000D01*
X146687665Y-85647987D01*
X146908153Y-85500662D01*
X147095662Y-85313153D01*
X147242987Y-85092665D01*
X147344467Y-84847672D01*
X147396200Y-84587589D01*
X147396200Y-84322411D01*
X147344467Y-84062328D01*
X147242987Y-83817335D01*
X147095662Y-83596847D01*
X146908153Y-83409338D01*
X146687665Y-83262013D01*
X146442672Y-83160533D01*
X146182589Y-83108800D01*
X145917411Y-83108800D01*
X145657328Y-83160533D01*
X145412335Y-83262013D01*
X145191847Y-83409338D01*
X145004338Y-83596847D01*
X144857013Y-83817335D01*
X144779031Y-84005600D01*
X144729542Y-83869720D01*
X144674183Y-83766152D01*
X144439273Y-83705332D01*
X143689605Y-84455000D01*
X144439273Y-85204668D01*
X144674183Y-85143848D01*
X144782206Y-84912066D01*
X144857013Y-85092665D01*
X145004338Y-85313153D01*
X145191847Y-85500662D01*
X145412335Y-85647987D01*
X145598260Y-85725000D01*
X145412335Y-85802013D01*
X145191847Y-85949338D01*
X145004338Y-86136847D01*
X144857013Y-86357335D01*
X144780000Y-86543260D01*
X144702987Y-86357335D01*
X144555662Y-86136847D01*
X144368153Y-85949338D01*
X144147665Y-85802013D01*
X143959400Y-85724031D01*
X144095280Y-85674542D01*
X144198848Y-85619183D01*
X144259668Y-85384273D01*
X143510000Y-84634605D01*
X142760332Y-85384273D01*
X142821152Y-85619183D01*
X143052934Y-85727206D01*
X142872335Y-85802013D01*
X142651847Y-85949338D01*
X142464338Y-86136847D01*
X142319272Y-86353954D01*
X142319272Y-86283800D01*
X142307012Y-86159318D01*
X142270702Y-86039620D01*
X142211737Y-85929306D01*
X142132385Y-85832615D01*
X142035694Y-85753263D01*
X141925380Y-85694298D01*
X141805682Y-85657988D01*
X141681200Y-85645728D01*
X141611046Y-85645728D01*
X141828153Y-85500662D01*
X142015662Y-85313153D01*
X142162987Y-85092665D01*
X142240969Y-84904400D01*
X142290458Y-85040280D01*
X142345817Y-85143848D01*
X142580727Y-85204668D01*
X143330395Y-84455000D01*
X142580727Y-83705332D01*
X142345817Y-83766152D01*
X142237794Y-83997934D01*
X142162987Y-83817335D01*
X142015662Y-83596847D01*
X141944542Y-83525727D01*
X142760332Y-83525727D01*
X143510000Y-84275395D01*
X144259668Y-83525727D01*
X144198848Y-83290817D01*
X143958491Y-83178798D01*
X143700898Y-83115824D01*
X143435970Y-83104313D01*
X143173887Y-83144709D01*
X142924720Y-83235458D01*
X142821152Y-83290817D01*
X142760332Y-83525727D01*
X141944542Y-83525727D01*
X141828153Y-83409338D01*
X141607665Y-83262013D01*
X141362672Y-83160533D01*
X141102589Y-83108800D01*
X140837411Y-83108800D01*
X140577328Y-83160533D01*
X140332335Y-83262013D01*
X140111847Y-83409338D01*
X139924338Y-83596847D01*
X139777013Y-83817335D01*
X139700000Y-84003260D01*
X139622987Y-83817335D01*
X139475662Y-83596847D01*
X139288153Y-83409338D01*
X139067665Y-83262013D01*
X138822672Y-83160533D01*
X138562589Y-83108800D01*
X138297411Y-83108800D01*
X138037328Y-83160533D01*
X137985500Y-83182001D01*
X137985500Y-82419040D01*
X152278091Y-82419040D01*
X152372930Y-82683881D01*
X152517615Y-82925131D01*
X152706586Y-83133519D01*
X152932580Y-83301037D01*
X153186913Y-83421246D01*
X153320961Y-83461904D01*
X153543000Y-83339915D01*
X153543000Y-82197000D01*
X153797000Y-82197000D01*
X153797000Y-83339915D01*
X154019039Y-83461904D01*
X154153087Y-83421246D01*
X154407420Y-83301037D01*
X154633414Y-83133519D01*
X154822385Y-82925131D01*
X154967070Y-82683881D01*
X155061909Y-82419040D01*
X154940624Y-82197000D01*
X153797000Y-82197000D01*
X153543000Y-82197000D01*
X152399376Y-82197000D01*
X152278091Y-82419040D01*
X137985500Y-82419040D01*
X137985500Y-81720960D01*
X152278091Y-81720960D01*
X152399376Y-81943000D01*
X153543000Y-81943000D01*
X153543000Y-80800085D01*
X153797000Y-80800085D01*
X153797000Y-81943000D01*
X154940624Y-81943000D01*
X155061909Y-81720960D01*
X154967070Y-81456119D01*
X154822385Y-81214869D01*
X154633414Y-81006481D01*
X154407420Y-80838963D01*
X154162998Y-80723438D01*
X160591505Y-80723438D01*
X160630605Y-80963549D01*
X160715798Y-81191418D01*
X160756652Y-81267852D01*
X160980236Y-81315159D01*
X161650395Y-80645000D01*
X160980236Y-79974841D01*
X160756652Y-80022148D01*
X160655763Y-80243516D01*
X160600000Y-80480313D01*
X160591505Y-80723438D01*
X154162998Y-80723438D01*
X154153087Y-80718754D01*
X154019039Y-80678096D01*
X153797000Y-80800085D01*
X153543000Y-80800085D01*
X153320961Y-80678096D01*
X153186913Y-80718754D01*
X152932580Y-80838963D01*
X152706586Y-81006481D01*
X152517615Y-81214869D01*
X152372930Y-81456119D01*
X152278091Y-81720960D01*
X137985500Y-81720960D01*
X137985500Y-80549278D01*
X138074759Y-80489637D01*
X138274637Y-80289759D01*
X138431680Y-80054727D01*
X138539853Y-79793574D01*
X138553684Y-79724039D01*
X145768096Y-79724039D01*
X145808754Y-79858087D01*
X145928963Y-80112420D01*
X146096481Y-80338414D01*
X146304869Y-80527385D01*
X146546119Y-80672070D01*
X146810960Y-80766909D01*
X147033000Y-80645624D01*
X147033000Y-79502000D01*
X147287000Y-79502000D01*
X147287000Y-80645624D01*
X147509040Y-80766909D01*
X147773881Y-80672070D01*
X148015131Y-80527385D01*
X148223519Y-80338414D01*
X148391037Y-80112420D01*
X148511246Y-79858087D01*
X148530309Y-79795236D01*
X161159841Y-79795236D01*
X161830000Y-80465395D01*
X162500159Y-79795236D01*
X162452852Y-79571652D01*
X162231484Y-79470763D01*
X161994687Y-79415000D01*
X161751562Y-79406505D01*
X161511451Y-79445605D01*
X161283582Y-79530798D01*
X161207148Y-79571652D01*
X161159841Y-79795236D01*
X148530309Y-79795236D01*
X148551904Y-79724039D01*
X148429915Y-79502000D01*
X147287000Y-79502000D01*
X147033000Y-79502000D01*
X145890085Y-79502000D01*
X145768096Y-79724039D01*
X138553684Y-79724039D01*
X138595000Y-79516335D01*
X138595000Y-79233665D01*
X138553685Y-79025961D01*
X145768096Y-79025961D01*
X145890085Y-79248000D01*
X147033000Y-79248000D01*
X147033000Y-78104376D01*
X147287000Y-78104376D01*
X147287000Y-79248000D01*
X148429915Y-79248000D01*
X148551904Y-79025961D01*
X148511246Y-78891913D01*
X148391037Y-78637580D01*
X148223519Y-78411586D01*
X148015131Y-78222615D01*
X147773881Y-78077930D01*
X147509040Y-77983091D01*
X147287000Y-78104376D01*
X147033000Y-78104376D01*
X146810960Y-77983091D01*
X146546119Y-78077930D01*
X146304869Y-78222615D01*
X146096481Y-78411586D01*
X145928963Y-78637580D01*
X145808754Y-78891913D01*
X145768096Y-79025961D01*
X138553685Y-79025961D01*
X138539853Y-78956426D01*
X138431680Y-78695273D01*
X138274637Y-78460241D01*
X138074759Y-78260363D01*
X137839727Y-78103320D01*
X137578574Y-77995147D01*
X137301335Y-77940000D01*
X137018665Y-77940000D01*
X136913376Y-77960944D01*
X135232398Y-76279966D01*
X135206541Y-76248459D01*
X135080842Y-76145301D01*
X134937434Y-76068647D01*
X134781826Y-76021444D01*
X134660553Y-76009500D01*
X134660550Y-76009500D01*
X134620000Y-76005506D01*
X134579450Y-76009500D01*
X118769547Y-76009500D01*
X118667312Y-75856495D01*
X118502817Y-75692000D01*
X177112394Y-75692000D01*
X179578000Y-78157606D01*
G36*
X116282688Y-75856495D02*
G01*
X116114701Y-76107905D01*
X115998989Y-76387257D01*
X115940000Y-76683816D01*
X115940000Y-76986184D01*
X115998989Y-77282743D01*
X116114701Y-77562095D01*
X116282688Y-77813505D01*
X116349127Y-77879944D01*
X116330820Y-77885498D01*
X116220506Y-77944463D01*
X116123815Y-78023815D01*
X116044463Y-78120506D01*
X115985498Y-78230820D01*
X115949188Y-78350518D01*
X115936928Y-78475000D01*
X115936928Y-80275000D01*
X115949188Y-80399482D01*
X115985498Y-80519180D01*
X116044463Y-80629494D01*
X116123815Y-80726185D01*
X116220506Y-80805537D01*
X116330820Y-80864502D01*
X116450518Y-80900812D01*
X116575000Y-80913072D01*
X118375000Y-80913072D01*
X118499482Y-80900812D01*
X118619180Y-80864502D01*
X118729494Y-80805537D01*
X118826185Y-80726185D01*
X118905537Y-80629494D01*
X118964502Y-80519180D01*
X119000812Y-80399482D01*
X119013072Y-80275000D01*
X119013072Y-80135000D01*
X124509099Y-80135000D01*
X124531068Y-80176101D01*
X124710392Y-80394608D01*
X124928899Y-80573932D01*
X125178192Y-80707182D01*
X125448691Y-80789236D01*
X125659508Y-80810000D01*
X125800492Y-80810000D01*
X126011309Y-80789236D01*
X126281808Y-80707182D01*
X126531101Y-80573932D01*
X126749608Y-80394608D01*
X126771689Y-80367702D01*
X132536903Y-80367702D01*
X132608486Y-80611671D01*
X132863996Y-80732571D01*
X133138184Y-80801300D01*
X133420512Y-80815217D01*
X133700130Y-80773787D01*
X133966292Y-80678603D01*
X134091514Y-80611671D01*
X134163097Y-80367702D01*
X133350000Y-79554605D01*
X132536903Y-80367702D01*
X126771689Y-80367702D01*
X126928932Y-80176101D01*
X127062182Y-79926808D01*
X127144236Y-79656309D01*
X127164998Y-79445512D01*
X131909783Y-79445512D01*
X131951213Y-79725130D01*
X132046397Y-79991292D01*
X132113329Y-80116514D01*
X132357298Y-80188097D01*
X133170395Y-79375000D01*
X133529605Y-79375000D01*
X134342702Y-80188097D01*
X134586671Y-80116514D01*
X134707571Y-79861004D01*
X134776300Y-79586816D01*
X134790217Y-79304488D01*
X134748787Y-79024870D01*
X134653603Y-78758708D01*
X134586671Y-78633486D01*
X134342702Y-78561903D01*
X133529605Y-79375000D01*
X133170395Y-79375000D01*
X132357298Y-78561903D01*
X132113329Y-78633486D01*
X131992429Y-78888996D01*
X131923700Y-79163184D01*
X131909783Y-79445512D01*
X127164998Y-79445512D01*
X127171943Y-79375000D01*
X127144236Y-79093691D01*
X127062182Y-78823192D01*
X126928932Y-78573899D01*
X126771690Y-78382298D01*
X132536903Y-78382298D01*
X133350000Y-79195395D01*
X134163097Y-78382298D01*
X134091514Y-78138329D01*
X133836004Y-78017429D01*
X133561816Y-77948700D01*
X133279488Y-77934783D01*
X132999870Y-77976213D01*
X132733708Y-78071397D01*
X132608486Y-78138329D01*
X132536903Y-78382298D01*
X126771690Y-78382298D01*
X126749608Y-78355392D01*
X126531101Y-78176068D01*
X126281808Y-78042818D01*
X126011309Y-77960764D01*
X125800492Y-77940000D01*
X125659508Y-77940000D01*
X125448691Y-77960764D01*
X125178192Y-78042818D01*
X124928899Y-78176068D01*
X124710392Y-78355392D01*
X124531068Y-78573899D01*
X124509099Y-78615000D01*
X119013072Y-78615000D01*
X119013072Y-78475000D01*
X119000812Y-78350518D01*
X118964502Y-78230820D01*
X118905537Y-78120506D01*
X118826185Y-78023815D01*
X118729494Y-77944463D01*
X118619180Y-77885498D01*
X118600873Y-77879944D01*
X118667312Y-77813505D01*
X118769547Y-77660500D01*
X134278068Y-77660500D01*
X135745944Y-79128376D01*
X135725000Y-79233665D01*
X135725000Y-79516335D01*
X135780147Y-79793574D01*
X135888320Y-80054727D01*
X136045363Y-80289759D01*
X136245241Y-80489637D01*
X136334501Y-80549278D01*
X136334500Y-83182001D01*
X136282672Y-83160533D01*
X136022589Y-83108800D01*
X135757411Y-83108800D01*
X135497328Y-83160533D01*
X135252335Y-83262013D01*
X135031847Y-83409338D01*
X134844338Y-83596847D01*
X134697013Y-83817335D01*
X134620000Y-84003260D01*
X134542987Y-83817335D01*
X134395662Y-83596847D01*
X134208153Y-83409338D01*
X133987665Y-83262013D01*
X133742672Y-83160533D01*
X133482589Y-83108800D01*
X133217411Y-83108800D01*
X132957328Y-83160533D01*
X132712335Y-83262013D01*
X132491847Y-83409338D01*
X132304338Y-83596847D01*
X132157013Y-83817335D01*
X132055533Y-84062328D01*
X132003800Y-84322411D01*
X132003800Y-84587589D01*
X132055533Y-84847672D01*
X132157013Y-85092665D01*
X132304338Y-85313153D01*
X132491847Y-85500662D01*
X132712335Y-85647987D01*
X132898260Y-85725000D01*
X132712335Y-85802013D01*
X132491847Y-85949338D01*
X132304338Y-86136847D01*
X132157013Y-86357335D01*
X132080000Y-86543260D01*
X132002987Y-86357335D01*
X131855662Y-86136847D01*
X131668153Y-85949338D01*
X131447665Y-85802013D01*
X131202672Y-85700533D01*
X130942589Y-85648800D01*
X130677411Y-85648800D01*
X130561631Y-85671830D01*
X130169003Y-85279202D01*
X130145201Y-85250199D01*
X130029476Y-85155226D01*
X129897447Y-85084654D01*
X129754186Y-85041197D01*
X129642533Y-85030200D01*
X129642522Y-85030200D01*
X129605200Y-85026524D01*
X129567878Y-85030200D01*
X116523922Y-85030200D01*
X116486599Y-85026524D01*
X116449276Y-85030200D01*
X116449267Y-85030200D01*
X116337614Y-85041197D01*
X116194353Y-85084654D01*
X116062324Y-85155226D01*
X115946599Y-85250199D01*
X115922801Y-85279198D01*
X115274698Y-85927301D01*
X115245700Y-85951099D01*
X115221902Y-85980097D01*
X115221901Y-85980098D01*
X115150726Y-86066824D01*
X115080154Y-86198854D01*
X115036698Y-86342115D01*
X115022024Y-86491100D01*
X115025701Y-86528432D01*
X115025700Y-94610978D01*
X115022024Y-94648300D01*
X115025700Y-94685622D01*
X115025700Y-94685632D01*
X115036697Y-94797285D01*
X115070053Y-94907246D01*
X115080154Y-94940546D01*
X115150726Y-95072576D01*
X115190571Y-95121126D01*
X115245699Y-95188301D01*
X115274703Y-95212104D01*
X116294178Y-96231580D01*
X116222931Y-96318394D01*
X116083775Y-96578736D01*
X115998084Y-96861223D01*
X115969149Y-97155000D01*
X115998084Y-97448777D01*
X116083775Y-97731264D01*
X116222931Y-97991606D01*
X116410203Y-98219797D01*
X116638394Y-98407069D01*
X116898736Y-98546225D01*
X117181223Y-98631916D01*
X117401381Y-98653600D01*
X117548619Y-98653600D01*
X117768777Y-98631916D01*
X118051264Y-98546225D01*
X118311606Y-98407069D01*
X118539797Y-98219797D01*
X118727069Y-97991606D01*
X118748470Y-97951567D01*
X118908146Y-98165293D01*
X119126512Y-98361817D01*
X119379022Y-98511964D01*
X119655973Y-98609963D01*
X119888000Y-98489464D01*
X119888000Y-97282000D01*
X120142000Y-97282000D01*
X120142000Y-98489464D01*
X120374027Y-98609963D01*
X120650978Y-98511964D01*
X120903488Y-98361817D01*
X121121854Y-98165293D01*
X121297684Y-97929944D01*
X121424222Y-97664814D01*
X121469958Y-97514026D01*
X121348817Y-97282000D01*
X120142000Y-97282000D01*
X119888000Y-97282000D01*
X119868000Y-97282000D01*
X119868000Y-97028000D01*
X119888000Y-97028000D01*
X119888000Y-97008000D01*
X120142000Y-97008000D01*
X120142000Y-97028000D01*
X121348817Y-97028000D01*
X121469958Y-96795974D01*
X121424222Y-96645186D01*
X121297684Y-96380056D01*
X121121854Y-96144707D01*
X120903488Y-95948183D01*
X120807090Y-95890863D01*
X120851606Y-95867069D01*
X121079797Y-95679797D01*
X121267069Y-95451606D01*
X121406225Y-95191264D01*
X121491916Y-94908777D01*
X121520851Y-94615000D01*
X121491916Y-94321223D01*
X121406225Y-94038736D01*
X121398295Y-94023900D01*
X129144099Y-94023900D01*
X129486830Y-94366631D01*
X129463800Y-94482411D01*
X129463800Y-94747589D01*
X129515533Y-95007672D01*
X129601080Y-95214200D01*
X127550050Y-95214200D01*
X127509500Y-95210206D01*
X127468949Y-95214200D01*
X127468947Y-95214200D01*
X127347674Y-95226144D01*
X127192066Y-95273347D01*
X127048657Y-95350001D01*
X126954458Y-95427308D01*
X126954457Y-95427309D01*
X126922959Y-95453159D01*
X126897111Y-95484655D01*
X119459961Y-102921807D01*
X119428460Y-102947659D01*
X119402609Y-102979159D01*
X119325301Y-103073358D01*
X119248647Y-103216767D01*
X119227364Y-103286928D01*
X119165000Y-103286928D01*
X119040518Y-103299188D01*
X118920820Y-103335498D01*
X118810506Y-103394463D01*
X118713815Y-103473815D01*
X118634463Y-103570506D01*
X118575498Y-103680820D01*
X118551034Y-103761466D01*
X118475269Y-103677412D01*
X118241920Y-103503359D01*
X117979099Y-103378175D01*
X117831890Y-103333524D01*
X117602000Y-103454845D01*
X117602000Y-104648000D01*
X117622000Y-104648000D01*
X117622000Y-104902000D01*
X117602000Y-104902000D01*
X117602000Y-106095155D01*
X117831890Y-106216476D01*
X117979099Y-106171825D01*
X118241920Y-106046641D01*
X118475269Y-105872588D01*
X118551034Y-105788534D01*
X118575498Y-105869180D01*
X118634463Y-105979494D01*
X118713815Y-106076185D01*
X118810506Y-106155537D01*
X118920820Y-106214502D01*
X119040518Y-106250812D01*
X119165000Y-106263072D01*
X120865000Y-106263072D01*
X120989482Y-106250812D01*
X121109180Y-106214502D01*
X121219494Y-106155537D01*
X121316185Y-106076185D01*
X121395537Y-105979494D01*
X121454502Y-105869180D01*
X121490812Y-105749482D01*
X121503072Y-105625000D01*
X121503072Y-103925000D01*
X121490812Y-103800518D01*
X121454502Y-103680820D01*
X121395537Y-103570506D01*
X121316185Y-103473815D01*
X121275888Y-103440744D01*
X124478632Y-100238001D01*
X124531068Y-100336101D01*
X124710392Y-100554608D01*
X124928899Y-100733932D01*
X125178192Y-100867182D01*
X125448691Y-100949236D01*
X125659508Y-100970000D01*
X125800492Y-100970000D01*
X126011309Y-100949236D01*
X126281808Y-100867182D01*
X126531101Y-100733932D01*
X126749608Y-100554608D01*
X126906765Y-100363112D01*
X126920800Y-100364494D01*
X126961350Y-100360500D01*
X126961353Y-100360500D01*
X127082626Y-100348556D01*
X127238234Y-100301353D01*
X127381642Y-100224699D01*
X127507341Y-100121541D01*
X127533198Y-100090034D01*
X129642733Y-97980500D01*
X129742520Y-97980500D01*
X129764338Y-98013153D01*
X129951847Y-98200662D01*
X130172335Y-98347987D01*
X130358260Y-98425000D01*
X130172335Y-98502013D01*
X129951847Y-98649338D01*
X129764338Y-98836847D01*
X129617013Y-99057335D01*
X129515533Y-99302328D01*
X129463800Y-99562411D01*
X129463800Y-99827589D01*
X129515533Y-100087672D01*
X129617013Y-100332665D01*
X129764338Y-100553153D01*
X129951847Y-100740662D01*
X130172335Y-100887987D01*
X130417328Y-100989467D01*
X130677411Y-101041200D01*
X130942589Y-101041200D01*
X131202672Y-100989467D01*
X131447665Y-100887987D01*
X131668153Y-100740662D01*
X131855662Y-100553153D01*
X132002987Y-100332665D01*
X132080000Y-100146740D01*
X132157013Y-100332665D01*
X132304338Y-100553153D01*
X132491847Y-100740662D01*
X132712335Y-100887987D01*
X132898260Y-100965000D01*
X132712335Y-101042013D01*
X132491847Y-101189338D01*
X132304338Y-101376847D01*
X132157013Y-101597335D01*
X132055533Y-101842328D01*
X132003800Y-102102411D01*
X132003800Y-102367589D01*
X132055533Y-102627672D01*
X132157013Y-102872665D01*
X132304338Y-103093153D01*
X132491847Y-103280662D01*
X132712335Y-103427987D01*
X132957328Y-103529467D01*
X133217411Y-103581200D01*
X133482589Y-103581200D01*
X133742672Y-103529467D01*
X133987665Y-103427987D01*
X134208153Y-103280662D01*
X134395662Y-103093153D01*
X134542987Y-102872665D01*
X134620000Y-102686740D01*
X134697013Y-102872665D01*
X134844338Y-103093153D01*
X135031847Y-103280662D01*
X135252335Y-103427987D01*
X135497328Y-103529467D01*
X135757411Y-103581200D01*
X136022589Y-103581200D01*
X136282672Y-103529467D01*
X136527665Y-103427987D01*
X136748153Y-103280662D01*
X136864542Y-103164273D01*
X137680332Y-103164273D01*
X137741152Y-103399183D01*
X137981509Y-103511202D01*
X138239102Y-103574176D01*
X138504030Y-103585687D01*
X138766113Y-103545291D01*
X139015280Y-103454542D01*
X139118848Y-103399183D01*
X139179668Y-103164273D01*
X138430000Y-102414605D01*
X137680332Y-103164273D01*
X136864542Y-103164273D01*
X136935662Y-103093153D01*
X137082987Y-102872665D01*
X137160969Y-102684400D01*
X137210458Y-102820280D01*
X137265817Y-102923848D01*
X137500727Y-102984668D01*
X138250395Y-102235000D01*
X138236253Y-102220858D01*
X138415858Y-102041253D01*
X138430000Y-102055395D01*
X138444143Y-102041253D01*
X138623748Y-102220858D01*
X138609605Y-102235000D01*
X139359273Y-102984668D01*
X139594183Y-102923848D01*
X139702206Y-102692066D01*
X139777013Y-102872665D01*
X139924338Y-103093153D01*
X140111847Y-103280662D01*
X140332335Y-103427987D01*
X140577328Y-103529467D01*
X140837411Y-103581200D01*
X141102589Y-103581200D01*
X141362672Y-103529467D01*
X141607665Y-103427987D01*
X141828153Y-103280662D01*
X142015662Y-103093153D01*
X142162987Y-102872665D01*
X142240000Y-102686740D01*
X142317013Y-102872665D01*
X142464338Y-103093153D01*
X142651847Y-103280662D01*
X142872335Y-103427987D01*
X143117328Y-103529467D01*
X143377411Y-103581200D01*
X143642589Y-103581200D01*
X143902672Y-103529467D01*
X144147665Y-103427987D01*
X144368153Y-103280662D01*
X144555662Y-103093153D01*
X144702987Y-102872665D01*
X144780000Y-102686740D01*
X144857013Y-102872665D01*
X145004338Y-103093153D01*
X145191847Y-103280662D01*
X145412335Y-103427987D01*
X145657328Y-103529467D01*
X145917411Y-103581200D01*
X146182589Y-103581200D01*
X146442672Y-103529467D01*
X146687665Y-103427987D01*
X146908153Y-103280662D01*
X147095662Y-103093153D01*
X147242987Y-102872665D01*
X147344467Y-102627672D01*
X147396200Y-102367589D01*
X147396200Y-102102411D01*
X147344467Y-101842328D01*
X147257222Y-101631700D01*
X147604500Y-101631700D01*
X147604501Y-106083647D01*
X147604501Y-106136091D01*
X147410392Y-106295392D01*
X147231068Y-106513899D01*
X147097818Y-106763192D01*
X147015764Y-107033691D01*
X146988057Y-107315000D01*
X147015764Y-107596309D01*
X147097818Y-107866808D01*
X147231068Y-108116101D01*
X147410392Y-108334608D01*
X147560746Y-108458000D01*
X139198998Y-108458000D01*
X139243097Y-108307702D01*
X138430000Y-107494605D01*
X137616903Y-108307702D01*
X137661002Y-108458000D01*
X116257606Y-108458000D01*
X115185118Y-107385512D01*
X136989783Y-107385512D01*
X137031213Y-107665130D01*
X137126397Y-107931292D01*
X137193329Y-108056514D01*
X137437298Y-108128097D01*
X138250395Y-107315000D01*
X138609605Y-107315000D01*
X139422702Y-108128097D01*
X139666671Y-108056514D01*
X139787571Y-107801004D01*
X139856300Y-107526816D01*
X139870217Y-107244488D01*
X139828787Y-106964870D01*
X139733603Y-106698708D01*
X139666671Y-106573486D01*
X139422702Y-106501903D01*
X138609605Y-107315000D01*
X138250395Y-107315000D01*
X137437298Y-106501903D01*
X137193329Y-106573486D01*
X137072429Y-106828996D01*
X137003700Y-107103184D01*
X136989783Y-107385512D01*
X115185118Y-107385512D01*
X114121904Y-106322298D01*
X137616903Y-106322298D01*
X138430000Y-107135395D01*
X139243097Y-106322298D01*
X139171514Y-106078329D01*
X138916004Y-105957429D01*
X138641816Y-105888700D01*
X138359488Y-105874783D01*
X138079870Y-105916213D01*
X137813708Y-106011397D01*
X137688486Y-106078329D01*
X137616903Y-106322298D01*
X114121904Y-106322298D01*
X113792000Y-105992394D01*
X113792000Y-105131891D01*
X116033519Y-105131891D01*
X116130843Y-105406252D01*
X116279822Y-105656355D01*
X116474731Y-105872588D01*
X116708080Y-106046641D01*
X116970901Y-106171825D01*
X117118110Y-106216476D01*
X117348000Y-106095155D01*
X117348000Y-104902000D01*
X116154186Y-104902000D01*
X116033519Y-105131891D01*
X113792000Y-105131891D01*
X113792000Y-104418109D01*
X116033519Y-104418109D01*
X116154186Y-104648000D01*
X117348000Y-104648000D01*
X117348000Y-103454845D01*
X117118110Y-103333524D01*
X116970901Y-103378175D01*
X116708080Y-103503359D01*
X116474731Y-103677412D01*
X116279822Y-103893645D01*
X116130843Y-104143748D01*
X116033519Y-104418109D01*
X113792000Y-104418109D01*
X113792000Y-78157606D01*
X116257606Y-75692000D01*
X116447183Y-75692000D01*
X116282688Y-75856495D01*
X116282688Y-75856495D01*
G37*
X116282688Y-75856495D02*
X116114701Y-76107905D01*
X115998989Y-76387257D01*
X115940000Y-76683816D01*
X115940000Y-76986184D01*
X115998989Y-77282743D01*
X116114701Y-77562095D01*
X116282688Y-77813505D01*
X116349127Y-77879944D01*
X116330820Y-77885498D01*
X116220506Y-77944463D01*
X116123815Y-78023815D01*
X116044463Y-78120506D01*
X115985498Y-78230820D01*
X115949188Y-78350518D01*
X115936928Y-78475000D01*
X115936928Y-80275000D01*
X115949188Y-80399482D01*
X115985498Y-80519180D01*
X116044463Y-80629494D01*
X116123815Y-80726185D01*
X116220506Y-80805537D01*
X116330820Y-80864502D01*
X116450518Y-80900812D01*
X116575000Y-80913072D01*
X118375000Y-80913072D01*
X118499482Y-80900812D01*
X118619180Y-80864502D01*
X118729494Y-80805537D01*
X118826185Y-80726185D01*
X118905537Y-80629494D01*
X118964502Y-80519180D01*
X119000812Y-80399482D01*
X119013072Y-80275000D01*
X119013072Y-80135000D01*
X124509099Y-80135000D01*
X124531068Y-80176101D01*
X124710392Y-80394608D01*
X124928899Y-80573932D01*
X125178192Y-80707182D01*
X125448691Y-80789236D01*
X125659508Y-80810000D01*
X125800492Y-80810000D01*
X126011309Y-80789236D01*
X126281808Y-80707182D01*
X126531101Y-80573932D01*
X126749608Y-80394608D01*
X126771689Y-80367702D01*
X132536903Y-80367702D01*
X132608486Y-80611671D01*
X132863996Y-80732571D01*
X133138184Y-80801300D01*
X133420512Y-80815217D01*
X133700130Y-80773787D01*
X133966292Y-80678603D01*
X134091514Y-80611671D01*
X134163097Y-80367702D01*
X133350000Y-79554605D01*
X132536903Y-80367702D01*
X126771689Y-80367702D01*
X126928932Y-80176101D01*
X127062182Y-79926808D01*
X127144236Y-79656309D01*
X127164998Y-79445512D01*
X131909783Y-79445512D01*
X131951213Y-79725130D01*
X132046397Y-79991292D01*
X132113329Y-80116514D01*
X132357298Y-80188097D01*
X133170395Y-79375000D01*
X133529605Y-79375000D01*
X134342702Y-80188097D01*
X134586671Y-80116514D01*
X134707571Y-79861004D01*
X134776300Y-79586816D01*
X134790217Y-79304488D01*
X134748787Y-79024870D01*
X134653603Y-78758708D01*
X134586671Y-78633486D01*
X134342702Y-78561903D01*
X133529605Y-79375000D01*
X133170395Y-79375000D01*
X132357298Y-78561903D01*
X132113329Y-78633486D01*
X131992429Y-78888996D01*
X131923700Y-79163184D01*
X131909783Y-79445512D01*
X127164998Y-79445512D01*
X127171943Y-79375000D01*
X127144236Y-79093691D01*
X127062182Y-78823192D01*
X126928932Y-78573899D01*
X126771690Y-78382298D01*
X132536903Y-78382298D01*
X133350000Y-79195395D01*
X134163097Y-78382298D01*
X134091514Y-78138329D01*
X133836004Y-78017429D01*
X133561816Y-77948700D01*
X133279488Y-77934783D01*
X132999870Y-77976213D01*
X132733708Y-78071397D01*
X132608486Y-78138329D01*
X132536903Y-78382298D01*
X126771690Y-78382298D01*
X126749608Y-78355392D01*
X126531101Y-78176068D01*
X126281808Y-78042818D01*
X126011309Y-77960764D01*
X125800492Y-77940000D01*
X125659508Y-77940000D01*
X125448691Y-77960764D01*
X125178192Y-78042818D01*
X124928899Y-78176068D01*
X124710392Y-78355392D01*
X124531068Y-78573899D01*
X124509099Y-78615000D01*
X119013072Y-78615000D01*
X119013072Y-78475000D01*
X119000812Y-78350518D01*
X118964502Y-78230820D01*
X118905537Y-78120506D01*
X118826185Y-78023815D01*
X118729494Y-77944463D01*
X118619180Y-77885498D01*
X118600873Y-77879944D01*
X118667312Y-77813505D01*
X118769547Y-77660500D01*
X134278068Y-77660500D01*
X135745944Y-79128376D01*
X135725000Y-79233665D01*
X135725000Y-79516335D01*
X135780147Y-79793574D01*
X135888320Y-80054727D01*
X136045363Y-80289759D01*
X136245241Y-80489637D01*
X136334501Y-80549278D01*
X136334500Y-83182001D01*
X136282672Y-83160533D01*
X136022589Y-83108800D01*
X135757411Y-83108800D01*
X135497328Y-83160533D01*
X135252335Y-83262013D01*
X135031847Y-83409338D01*
X134844338Y-83596847D01*
X134697013Y-83817335D01*
X134620000Y-84003260D01*
X134542987Y-83817335D01*
X134395662Y-83596847D01*
X134208153Y-83409338D01*
X133987665Y-83262013D01*
X133742672Y-83160533D01*
X133482589Y-83108800D01*
X133217411Y-83108800D01*
X132957328Y-83160533D01*
X132712335Y-83262013D01*
X132491847Y-83409338D01*
X132304338Y-83596847D01*
X132157013Y-83817335D01*
X132055533Y-84062328D01*
X132003800Y-84322411D01*
X132003800Y-84587589D01*
X132055533Y-84847672D01*
X132157013Y-85092665D01*
X132304338Y-85313153D01*
X132491847Y-85500662D01*
X132712335Y-85647987D01*
X132898260Y-85725000D01*
X132712335Y-85802013D01*
X132491847Y-85949338D01*
X132304338Y-86136847D01*
X132157013Y-86357335D01*
X132080000Y-86543260D01*
X132002987Y-86357335D01*
X131855662Y-86136847D01*
X131668153Y-85949338D01*
X131447665Y-85802013D01*
X131202672Y-85700533D01*
X130942589Y-85648800D01*
X130677411Y-85648800D01*
X130561631Y-85671830D01*
X130169003Y-85279202D01*
X130145201Y-85250199D01*
X130029476Y-85155226D01*
X129897447Y-85084654D01*
X129754186Y-85041197D01*
X129642533Y-85030200D01*
X129642522Y-85030200D01*
X129605200Y-85026524D01*
X129567878Y-85030200D01*
X116523922Y-85030200D01*
X116486599Y-85026524D01*
X116449276Y-85030200D01*
X116449267Y-85030200D01*
X116337614Y-85041197D01*
X116194353Y-85084654D01*
X116062324Y-85155226D01*
X115946599Y-85250199D01*
X115922801Y-85279198D01*
X115274698Y-85927301D01*
X115245700Y-85951099D01*
X115221902Y-85980097D01*
X115221901Y-85980098D01*
X115150726Y-86066824D01*
X115080154Y-86198854D01*
X115036698Y-86342115D01*
X115022024Y-86491100D01*
X115025701Y-86528432D01*
X115025700Y-94610978D01*
X115022024Y-94648300D01*
X115025700Y-94685622D01*
X115025700Y-94685632D01*
X115036697Y-94797285D01*
X115070053Y-94907246D01*
X115080154Y-94940546D01*
X115150726Y-95072576D01*
X115190571Y-95121126D01*
X115245699Y-95188301D01*
X115274703Y-95212104D01*
X116294178Y-96231580D01*
X116222931Y-96318394D01*
X116083775Y-96578736D01*
X115998084Y-96861223D01*
X115969149Y-97155000D01*
X115998084Y-97448777D01*
X116083775Y-97731264D01*
X116222931Y-97991606D01*
X116410203Y-98219797D01*
X116638394Y-98407069D01*
X116898736Y-98546225D01*
X117181223Y-98631916D01*
X117401381Y-98653600D01*
X117548619Y-98653600D01*
X117768777Y-98631916D01*
X118051264Y-98546225D01*
X118311606Y-98407069D01*
X118539797Y-98219797D01*
X118727069Y-97991606D01*
X118748470Y-97951567D01*
X118908146Y-98165293D01*
X119126512Y-98361817D01*
X119379022Y-98511964D01*
X119655973Y-98609963D01*
X119888000Y-98489464D01*
X119888000Y-97282000D01*
X120142000Y-97282000D01*
X120142000Y-98489464D01*
X120374027Y-98609963D01*
X120650978Y-98511964D01*
X120903488Y-98361817D01*
X121121854Y-98165293D01*
X121297684Y-97929944D01*
X121424222Y-97664814D01*
X121469958Y-97514026D01*
X121348817Y-97282000D01*
X120142000Y-97282000D01*
X119888000Y-97282000D01*
X119868000Y-97282000D01*
X119868000Y-97028000D01*
X119888000Y-97028000D01*
X119888000Y-97008000D01*
X120142000Y-97008000D01*
X120142000Y-97028000D01*
X121348817Y-97028000D01*
X121469958Y-96795974D01*
X121424222Y-96645186D01*
X121297684Y-96380056D01*
X121121854Y-96144707D01*
X120903488Y-95948183D01*
X120807090Y-95890863D01*
X120851606Y-95867069D01*
X121079797Y-95679797D01*
X121267069Y-95451606D01*
X121406225Y-95191264D01*
X121491916Y-94908777D01*
X121520851Y-94615000D01*
X121491916Y-94321223D01*
X121406225Y-94038736D01*
X121398295Y-94023900D01*
X129144099Y-94023900D01*
X129486830Y-94366631D01*
X129463800Y-94482411D01*
X129463800Y-94747589D01*
X129515533Y-95007672D01*
X129601080Y-95214200D01*
X127550050Y-95214200D01*
X127509500Y-95210206D01*
X127468949Y-95214200D01*
X127468947Y-95214200D01*
X127347674Y-95226144D01*
X127192066Y-95273347D01*
X127048657Y-95350001D01*
X126954458Y-95427308D01*
X126954457Y-95427309D01*
X126922959Y-95453159D01*
X126897111Y-95484655D01*
X119459961Y-102921807D01*
X119428460Y-102947659D01*
X119402609Y-102979159D01*
X119325301Y-103073358D01*
X119248647Y-103216767D01*
X119227364Y-103286928D01*
X119165000Y-103286928D01*
X119040518Y-103299188D01*
X118920820Y-103335498D01*
X118810506Y-103394463D01*
X118713815Y-103473815D01*
X118634463Y-103570506D01*
X118575498Y-103680820D01*
X118551034Y-103761466D01*
X118475269Y-103677412D01*
X118241920Y-103503359D01*
X117979099Y-103378175D01*
X117831890Y-103333524D01*
X117602000Y-103454845D01*
X117602000Y-104648000D01*
X117622000Y-104648000D01*
X117622000Y-104902000D01*
X117602000Y-104902000D01*
X117602000Y-106095155D01*
X117831890Y-106216476D01*
X117979099Y-106171825D01*
X118241920Y-106046641D01*
X118475269Y-105872588D01*
X118551034Y-105788534D01*
X118575498Y-105869180D01*
X118634463Y-105979494D01*
X118713815Y-106076185D01*
X118810506Y-106155537D01*
X118920820Y-106214502D01*
X119040518Y-106250812D01*
X119165000Y-106263072D01*
X120865000Y-106263072D01*
X120989482Y-106250812D01*
X121109180Y-106214502D01*
X121219494Y-106155537D01*
X121316185Y-106076185D01*
X121395537Y-105979494D01*
X121454502Y-105869180D01*
X121490812Y-105749482D01*
X121503072Y-105625000D01*
X121503072Y-103925000D01*
X121490812Y-103800518D01*
X121454502Y-103680820D01*
X121395537Y-103570506D01*
X121316185Y-103473815D01*
X121275888Y-103440744D01*
X124478632Y-100238001D01*
X124531068Y-100336101D01*
X124710392Y-100554608D01*
X124928899Y-100733932D01*
X125178192Y-100867182D01*
X125448691Y-100949236D01*
X125659508Y-100970000D01*
X125800492Y-100970000D01*
X126011309Y-100949236D01*
X126281808Y-100867182D01*
X126531101Y-100733932D01*
X126749608Y-100554608D01*
X126906765Y-100363112D01*
X126920800Y-100364494D01*
X126961350Y-100360500D01*
X126961353Y-100360500D01*
X127082626Y-100348556D01*
X127238234Y-100301353D01*
X127381642Y-100224699D01*
X127507341Y-100121541D01*
X127533198Y-100090034D01*
X129642733Y-97980500D01*
X129742520Y-97980500D01*
X129764338Y-98013153D01*
X129951847Y-98200662D01*
X130172335Y-98347987D01*
X130358260Y-98425000D01*
X130172335Y-98502013D01*
X129951847Y-98649338D01*
X129764338Y-98836847D01*
X129617013Y-99057335D01*
X129515533Y-99302328D01*
X129463800Y-99562411D01*
X129463800Y-99827589D01*
X129515533Y-100087672D01*
X129617013Y-100332665D01*
X129764338Y-100553153D01*
X129951847Y-100740662D01*
X130172335Y-100887987D01*
X130417328Y-100989467D01*
X130677411Y-101041200D01*
X130942589Y-101041200D01*
X131202672Y-100989467D01*
X131447665Y-100887987D01*
X131668153Y-100740662D01*
X131855662Y-100553153D01*
X132002987Y-100332665D01*
X132080000Y-100146740D01*
X132157013Y-100332665D01*
X132304338Y-100553153D01*
X132491847Y-100740662D01*
X132712335Y-100887987D01*
X132898260Y-100965000D01*
X132712335Y-101042013D01*
X132491847Y-101189338D01*
X132304338Y-101376847D01*
X132157013Y-101597335D01*
X132055533Y-101842328D01*
X132003800Y-102102411D01*
X132003800Y-102367589D01*
X132055533Y-102627672D01*
X132157013Y-102872665D01*
X132304338Y-103093153D01*
X132491847Y-103280662D01*
X132712335Y-103427987D01*
X132957328Y-103529467D01*
X133217411Y-103581200D01*
X133482589Y-103581200D01*
X133742672Y-103529467D01*
X133987665Y-103427987D01*
X134208153Y-103280662D01*
X134395662Y-103093153D01*
X134542987Y-102872665D01*
X134620000Y-102686740D01*
X134697013Y-102872665D01*
X134844338Y-103093153D01*
X135031847Y-103280662D01*
X135252335Y-103427987D01*
X135497328Y-103529467D01*
X135757411Y-103581200D01*
X136022589Y-103581200D01*
X136282672Y-103529467D01*
X136527665Y-103427987D01*
X136748153Y-103280662D01*
X136864542Y-103164273D01*
X137680332Y-103164273D01*
X137741152Y-103399183D01*
X137981509Y-103511202D01*
X138239102Y-103574176D01*
X138504030Y-103585687D01*
X138766113Y-103545291D01*
X139015280Y-103454542D01*
X139118848Y-103399183D01*
X139179668Y-103164273D01*
X138430000Y-102414605D01*
X137680332Y-103164273D01*
X136864542Y-103164273D01*
X136935662Y-103093153D01*
X137082987Y-102872665D01*
X137160969Y-102684400D01*
X137210458Y-102820280D01*
X137265817Y-102923848D01*
X137500727Y-102984668D01*
X138250395Y-102235000D01*
X138236253Y-102220858D01*
X138415858Y-102041253D01*
X138430000Y-102055395D01*
X138444143Y-102041253D01*
X138623748Y-102220858D01*
X138609605Y-102235000D01*
X139359273Y-102984668D01*
X139594183Y-102923848D01*
X139702206Y-102692066D01*
X139777013Y-102872665D01*
X139924338Y-103093153D01*
X140111847Y-103280662D01*
X140332335Y-103427987D01*
X140577328Y-103529467D01*
X140837411Y-103581200D01*
X141102589Y-103581200D01*
X141362672Y-103529467D01*
X141607665Y-103427987D01*
X141828153Y-103280662D01*
X142015662Y-103093153D01*
X142162987Y-102872665D01*
X142240000Y-102686740D01*
X142317013Y-102872665D01*
X142464338Y-103093153D01*
X142651847Y-103280662D01*
X142872335Y-103427987D01*
X143117328Y-103529467D01*
X143377411Y-103581200D01*
X143642589Y-103581200D01*
X143902672Y-103529467D01*
X144147665Y-103427987D01*
X144368153Y-103280662D01*
X144555662Y-103093153D01*
X144702987Y-102872665D01*
X144780000Y-102686740D01*
X144857013Y-102872665D01*
X145004338Y-103093153D01*
X145191847Y-103280662D01*
X145412335Y-103427987D01*
X145657328Y-103529467D01*
X145917411Y-103581200D01*
X146182589Y-103581200D01*
X146442672Y-103529467D01*
X146687665Y-103427987D01*
X146908153Y-103280662D01*
X147095662Y-103093153D01*
X147242987Y-102872665D01*
X147344467Y-102627672D01*
X147396200Y-102367589D01*
X147396200Y-102102411D01*
X147344467Y-101842328D01*
X147257222Y-101631700D01*
X147604500Y-101631700D01*
X147604501Y-106083647D01*
X147604501Y-106136091D01*
X147410392Y-106295392D01*
X147231068Y-106513899D01*
X147097818Y-106763192D01*
X147015764Y-107033691D01*
X146988057Y-107315000D01*
X147015764Y-107596309D01*
X147097818Y-107866808D01*
X147231068Y-108116101D01*
X147410392Y-108334608D01*
X147560746Y-108458000D01*
X139198998Y-108458000D01*
X139243097Y-108307702D01*
X138430000Y-107494605D01*
X137616903Y-108307702D01*
X137661002Y-108458000D01*
X116257606Y-108458000D01*
X115185118Y-107385512D01*
X136989783Y-107385512D01*
X137031213Y-107665130D01*
X137126397Y-107931292D01*
X137193329Y-108056514D01*
X137437298Y-108128097D01*
X138250395Y-107315000D01*
X138609605Y-107315000D01*
X139422702Y-108128097D01*
X139666671Y-108056514D01*
X139787571Y-107801004D01*
X139856300Y-107526816D01*
X139870217Y-107244488D01*
X139828787Y-106964870D01*
X139733603Y-106698708D01*
X139666671Y-106573486D01*
X139422702Y-106501903D01*
X138609605Y-107315000D01*
X138250395Y-107315000D01*
X137437298Y-106501903D01*
X137193329Y-106573486D01*
X137072429Y-106828996D01*
X137003700Y-107103184D01*
X136989783Y-107385512D01*
X115185118Y-107385512D01*
X114121904Y-106322298D01*
X137616903Y-106322298D01*
X138430000Y-107135395D01*
X139243097Y-106322298D01*
X139171514Y-106078329D01*
X138916004Y-105957429D01*
X138641816Y-105888700D01*
X138359488Y-105874783D01*
X138079870Y-105916213D01*
X137813708Y-106011397D01*
X137688486Y-106078329D01*
X137616903Y-106322298D01*
X114121904Y-106322298D01*
X113792000Y-105992394D01*
X113792000Y-105131891D01*
X116033519Y-105131891D01*
X116130843Y-105406252D01*
X116279822Y-105656355D01*
X116474731Y-105872588D01*
X116708080Y-106046641D01*
X116970901Y-106171825D01*
X117118110Y-106216476D01*
X117348000Y-106095155D01*
X117348000Y-104902000D01*
X116154186Y-104902000D01*
X116033519Y-105131891D01*
X113792000Y-105131891D01*
X113792000Y-104418109D01*
X116033519Y-104418109D01*
X116154186Y-104648000D01*
X117348000Y-104648000D01*
X117348000Y-103454845D01*
X117118110Y-103333524D01*
X116970901Y-103378175D01*
X116708080Y-103503359D01*
X116474731Y-103677412D01*
X116279822Y-103893645D01*
X116130843Y-104143748D01*
X116033519Y-104418109D01*
X113792000Y-104418109D01*
X113792000Y-78157606D01*
X116257606Y-75692000D01*
X116447183Y-75692000D01*
X116282688Y-75856495D01*
G36*
X146243748Y-99680858D02*
G01*
X146229605Y-99695000D01*
X146243748Y-99709143D01*
X146064143Y-99888748D01*
X146050000Y-99874605D01*
X146035858Y-99888748D01*
X145856253Y-99709143D01*
X145870395Y-99695000D01*
X145856253Y-99680858D01*
X146035858Y-99501253D01*
X146050000Y-99515395D01*
X146064143Y-99501253D01*
X146243748Y-99680858D01*
X146243748Y-99680858D01*
G37*
X146243748Y-99680858D02*
X146229605Y-99695000D01*
X146243748Y-99709143D01*
X146064143Y-99888748D01*
X146050000Y-99874605D01*
X146035858Y-99888748D01*
X145856253Y-99709143D01*
X145870395Y-99695000D01*
X145856253Y-99680858D01*
X146035858Y-99501253D01*
X146050000Y-99515395D01*
X146064143Y-99501253D01*
X146243748Y-99680858D01*
G36*
X125923748Y-89520858D02*
G01*
X125909605Y-89535000D01*
X125923748Y-89549143D01*
X125744143Y-89728748D01*
X125730000Y-89714605D01*
X125715858Y-89728748D01*
X125536253Y-89549143D01*
X125550395Y-89535000D01*
X125536253Y-89520858D01*
X125715858Y-89341253D01*
X125730000Y-89355395D01*
X125744143Y-89341253D01*
X125923748Y-89520858D01*
X125923748Y-89520858D01*
G37*
X125923748Y-89520858D02*
X125909605Y-89535000D01*
X125923748Y-89549143D01*
X125744143Y-89728748D01*
X125730000Y-89714605D01*
X125715858Y-89728748D01*
X125536253Y-89549143D01*
X125550395Y-89535000D01*
X125536253Y-89520858D01*
X125715858Y-89341253D01*
X125730000Y-89355395D01*
X125744143Y-89341253D01*
X125923748Y-89520858D01*
G36*
X133543748Y-89520858D02*
G01*
X133529605Y-89535000D01*
X133543748Y-89549143D01*
X133364143Y-89728748D01*
X133350000Y-89714605D01*
X133335858Y-89728748D01*
X133156253Y-89549143D01*
X133170395Y-89535000D01*
X133156253Y-89520858D01*
X133335858Y-89341253D01*
X133350000Y-89355395D01*
X133364143Y-89341253D01*
X133543748Y-89520858D01*
X133543748Y-89520858D01*
G37*
X133543748Y-89520858D02*
X133529605Y-89535000D01*
X133543748Y-89549143D01*
X133364143Y-89728748D01*
X133350000Y-89714605D01*
X133335858Y-89728748D01*
X133156253Y-89549143D01*
X133170395Y-89535000D01*
X133156253Y-89520858D01*
X133335858Y-89341253D01*
X133350000Y-89355395D01*
X133364143Y-89341253D01*
X133543748Y-89520858D01*
G36*
X129486830Y-86746631D02*
G01*
X129463800Y-86862411D01*
X129463800Y-87127589D01*
X129515533Y-87387672D01*
X129597725Y-87586100D01*
X121385427Y-87586100D01*
X121424222Y-87504814D01*
X121469958Y-87354026D01*
X121348817Y-87122000D01*
X120142000Y-87122000D01*
X120142000Y-87142000D01*
X119888000Y-87142000D01*
X119888000Y-87122000D01*
X119868000Y-87122000D01*
X119868000Y-86868000D01*
X119888000Y-86868000D01*
X119888000Y-86848000D01*
X120142000Y-86848000D01*
X120142000Y-86868000D01*
X121348817Y-86868000D01*
X121469958Y-86635974D01*
X121443942Y-86550200D01*
X129290399Y-86550200D01*
X129486830Y-86746631D01*
X129486830Y-86746631D01*
G37*
X129486830Y-86746631D02*
X129463800Y-86862411D01*
X129463800Y-87127589D01*
X129515533Y-87387672D01*
X129597725Y-87586100D01*
X121385427Y-87586100D01*
X121424222Y-87504814D01*
X121469958Y-87354026D01*
X121348817Y-87122000D01*
X120142000Y-87122000D01*
X120142000Y-87142000D01*
X119888000Y-87142000D01*
X119888000Y-87122000D01*
X119868000Y-87122000D01*
X119868000Y-86868000D01*
X119888000Y-86868000D01*
X119888000Y-86848000D01*
X120142000Y-86848000D01*
X120142000Y-86868000D01*
X121348817Y-86868000D01*
X121469958Y-86635974D01*
X121443942Y-86550200D01*
X129290399Y-86550200D01*
X129486830Y-86746631D01*
M02*
